%TF.GenerationSoftware,KiCad,Pcbnew,8.0.9-8.0.9-0~ubuntu24.04.1*%
%TF.CreationDate,2025-02-27T11:28:28+07:00*%
%TF.ProjectId,rp2040_dev,72703230-3430-45f6-9465-762e6b696361,rev?*%
%TF.SameCoordinates,Original*%
%TF.FileFunction,Paste,Top*%
%TF.FilePolarity,Positive*%
%FSLAX46Y46*%
G04 Gerber Fmt 4.6, Leading zero omitted, Abs format (unit mm)*
G04 Created by KiCad (PCBNEW 8.0.9-8.0.9-0~ubuntu24.04.1) date 2025-02-27 11:28:28*
%MOMM*%
%LPD*%
G01*
G04 APERTURE LIST*
G04 Aperture macros list*
%AMRoundRect*
0 Rectangle with rounded corners*
0 $1 Rounding radius*
0 $2 $3 $4 $5 $6 $7 $8 $9 X,Y pos of 4 corners*
0 Add a 4 corners polygon primitive as box body*
4,1,4,$2,$3,$4,$5,$6,$7,$8,$9,$2,$3,0*
0 Add four circle primitives for the rounded corners*
1,1,$1+$1,$2,$3*
1,1,$1+$1,$4,$5*
1,1,$1+$1,$6,$7*
1,1,$1+$1,$8,$9*
0 Add four rect primitives between the rounded corners*
20,1,$1+$1,$2,$3,$4,$5,0*
20,1,$1+$1,$4,$5,$6,$7,0*
20,1,$1+$1,$6,$7,$8,$9,0*
20,1,$1+$1,$8,$9,$2,$3,0*%
%AMFreePoly0*
4,1,19,0.563745,0.600348,0.608674,0.548497,0.619677,0.497915,0.619677,-0.497915,0.600348,-0.563745,0.548497,-0.608674,0.497915,-0.619677,-0.497915,-0.619677,-0.563745,-0.600348,-0.608674,-0.548497,-0.619677,-0.497915,-0.619677,0.397045,-0.600348,0.462875,-0.584014,0.483144,-0.483144,0.584014,-0.422927,0.616894,-0.397045,0.619677,0.497915,0.619677,0.563745,0.600348,0.563745,0.600348,
$1*%
%AMFreePoly1*
4,1,19,0.563745,0.600348,0.608674,0.548497,0.619677,0.497915,0.619677,-0.497915,0.600348,-0.563745,0.548497,-0.608674,0.497915,-0.619677,-0.397045,-0.619677,-0.462875,-0.600348,-0.483144,-0.584014,-0.584014,-0.483144,-0.616894,-0.422927,-0.619677,-0.397045,-0.619677,0.497915,-0.600348,0.563745,-0.548497,0.608674,-0.497915,0.619677,0.497915,0.619677,0.563745,0.600348,0.563745,0.600348,
$1*%
%AMFreePoly2*
4,1,19,0.462875,0.600348,0.483144,0.584014,0.584014,0.483144,0.616894,0.422927,0.619677,0.397045,0.619677,-0.497915,0.600348,-0.563745,0.548497,-0.608674,0.497915,-0.619677,-0.497915,-0.619677,-0.563745,-0.600348,-0.608674,-0.548497,-0.619677,-0.497915,-0.619677,0.497915,-0.600348,0.563745,-0.548497,0.608674,-0.497915,0.619677,0.397045,0.619677,0.462875,0.600348,0.462875,0.600348,
$1*%
%AMFreePoly3*
4,1,19,0.563745,0.600348,0.608674,0.548497,0.619677,0.497915,0.619677,-0.397045,0.600348,-0.462875,0.584014,-0.483144,0.483144,-0.584014,0.422927,-0.616894,0.397045,-0.619677,-0.497915,-0.619677,-0.563745,-0.600348,-0.608674,-0.548497,-0.619677,-0.497915,-0.619677,0.497915,-0.600348,0.563745,-0.548497,0.608674,-0.497915,0.619677,0.497915,0.619677,0.563745,0.600348,0.563745,0.600348,
$1*%
G04 Aperture macros list end*
%ADD10R,0.800000X0.900000*%
%ADD11RoundRect,0.250000X1.000000X0.650000X-1.000000X0.650000X-1.000000X-0.650000X1.000000X-0.650000X0*%
%ADD12R,0.900000X0.800000*%
%ADD13RoundRect,0.250000X-1.500000X-0.550000X1.500000X-0.550000X1.500000X0.550000X-1.500000X0.550000X0*%
%ADD14R,1.200000X0.400000*%
%ADD15RoundRect,0.250000X-0.255000X-0.255000X0.255000X-0.255000X0.255000X0.255000X-0.255000X0.255000X0*%
%ADD16RoundRect,0.062500X-0.375000X-0.062500X0.375000X-0.062500X0.375000X0.062500X-0.375000X0.062500X0*%
%ADD17RoundRect,0.062500X-0.062500X-0.375000X0.062500X-0.375000X0.062500X0.375000X-0.062500X0.375000X0*%
%ADD18RoundRect,0.150000X-0.650000X-0.150000X0.650000X-0.150000X0.650000X0.150000X-0.650000X0.150000X0*%
%ADD19RoundRect,0.150000X-0.425000X0.150000X-0.425000X-0.150000X0.425000X-0.150000X0.425000X0.150000X0*%
%ADD20RoundRect,0.075000X-0.500000X0.075000X-0.500000X-0.075000X0.500000X-0.075000X0.500000X0.075000X0*%
%ADD21O,2.100000X1.000000*%
%ADD22O,1.800000X1.000000*%
%ADD23RoundRect,0.090000X-0.660000X-0.360000X0.660000X-0.360000X0.660000X0.360000X-0.660000X0.360000X0*%
%ADD24RoundRect,0.150000X-0.675000X-0.150000X0.675000X-0.150000X0.675000X0.150000X-0.675000X0.150000X0*%
%ADD25R,0.900000X1.700000*%
%ADD26RoundRect,0.150000X0.150000X-0.825000X0.150000X0.825000X-0.150000X0.825000X-0.150000X-0.825000X0*%
%ADD27RoundRect,0.150000X-0.512500X-0.150000X0.512500X-0.150000X0.512500X0.150000X-0.512500X0.150000X0*%
%ADD28R,2.000000X2.400000*%
%ADD29RoundRect,0.150000X0.325000X0.150000X-0.325000X0.150000X-0.325000X-0.150000X0.325000X-0.150000X0*%
%ADD30RoundRect,0.150000X0.150000X0.325000X-0.150000X0.325000X-0.150000X-0.325000X0.150000X-0.325000X0*%
%ADD31R,0.700000X1.600000*%
%ADD32R,1.200000X1.400000*%
%ADD33R,1.200000X2.200000*%
%ADD34R,1.600000X1.400000*%
%ADD35R,3.550000X3.500000*%
%ADD36RoundRect,0.090000X0.660000X0.360000X-0.660000X0.360000X-0.660000X-0.360000X0.660000X-0.360000X0*%
%ADD37RoundRect,0.150000X0.587500X0.150000X-0.587500X0.150000X-0.587500X-0.150000X0.587500X-0.150000X0*%
%ADD38RoundRect,0.250000X0.550000X-1.500000X0.550000X1.500000X-0.550000X1.500000X-0.550000X-1.500000X0*%
%ADD39FreePoly0,0.000000*%
%ADD40FreePoly1,0.000000*%
%ADD41FreePoly2,0.000000*%
%ADD42FreePoly3,0.000000*%
%ADD43RoundRect,0.050000X-0.387500X-0.050000X0.387500X-0.050000X0.387500X0.050000X-0.387500X0.050000X0*%
%ADD44RoundRect,0.050000X-0.050000X-0.387500X0.050000X-0.387500X0.050000X0.387500X-0.050000X0.387500X0*%
%ADD45RoundRect,0.218750X-0.256250X0.218750X-0.256250X-0.218750X0.256250X-0.218750X0.256250X0.218750X0*%
%ADD46RoundRect,0.218750X0.256250X-0.218750X0.256250X0.218750X-0.256250X0.218750X-0.256250X-0.218750X0*%
%ADD47R,2.400000X2.000000*%
%ADD48RoundRect,0.218750X0.218750X0.256250X-0.218750X0.256250X-0.218750X-0.256250X0.218750X-0.256250X0*%
G04 APERTURE END LIST*
D10*
%TO.C,R62*%
X172413000Y-105634000D03*
X172413000Y-107434000D03*
%TD*%
D11*
%TO.C,D1*%
X116717500Y-118130000D03*
X112717500Y-118130000D03*
%TD*%
D10*
%TO.C,C32*%
X167871000Y-92779869D03*
X167871000Y-90979869D03*
%TD*%
D12*
%TO.C,R34*%
X151850000Y-129080000D03*
X150050000Y-129080000D03*
%TD*%
%TO.C,C41*%
X179522065Y-95060000D03*
X181322065Y-95060000D03*
%TD*%
%TO.C,R11*%
X117740000Y-109226000D03*
X119540000Y-109226000D03*
%TD*%
D10*
%TO.C,C21*%
X161124000Y-131147066D03*
X161124000Y-132947066D03*
%TD*%
D13*
%TO.C,C12*%
X126822000Y-101627000D03*
X121422000Y-101627000D03*
%TD*%
D12*
%TO.C,R29*%
X186681000Y-103097750D03*
X184881000Y-103097750D03*
%TD*%
%TO.C,C29*%
X137213000Y-98987000D03*
X139013000Y-98987000D03*
%TD*%
D14*
%TO.C,U8*%
X144890000Y-91289000D03*
X144890000Y-91924000D03*
X144890000Y-92559000D03*
X144890000Y-93194000D03*
X144890000Y-93829000D03*
X144890000Y-94464000D03*
X144890000Y-95099000D03*
X144890000Y-95734000D03*
X144890000Y-96369000D03*
X144890000Y-97004000D03*
X144890000Y-97639000D03*
X144890000Y-98274000D03*
X144890000Y-98909000D03*
X144890000Y-99544000D03*
X150090000Y-99544000D03*
X150090000Y-98909000D03*
X150090000Y-98274000D03*
X150090000Y-97639000D03*
X150090000Y-97004000D03*
X150090000Y-96369000D03*
X150090000Y-95734000D03*
X150090000Y-95099000D03*
X150090000Y-94464000D03*
X150090000Y-93829000D03*
X150090000Y-93194000D03*
X150090000Y-92559000D03*
X150090000Y-91924000D03*
X150090000Y-91289000D03*
%TD*%
D15*
%TO.C,U9*%
X171549000Y-100327500D03*
X171549000Y-101577500D03*
X172799000Y-100327500D03*
X172799000Y-101577500D03*
D16*
X170236500Y-99702500D03*
X170236500Y-100202500D03*
X170236500Y-100702500D03*
X170236500Y-101202500D03*
X170236500Y-101702500D03*
X170236500Y-102202500D03*
D17*
X170924000Y-102890000D03*
X171424000Y-102890000D03*
X171924000Y-102890000D03*
X172424000Y-102890000D03*
X172924000Y-102890000D03*
X173424000Y-102890000D03*
D16*
X174111500Y-102202500D03*
X174111500Y-101702500D03*
X174111500Y-101202500D03*
X174111500Y-100702500D03*
X174111500Y-100202500D03*
X174111500Y-99702500D03*
D17*
X173424000Y-99015000D03*
X172924000Y-99015000D03*
X172424000Y-99015000D03*
X171924000Y-99015000D03*
X171424000Y-99015000D03*
X170924000Y-99015000D03*
%TD*%
D12*
%TO.C,R14*%
X117760000Y-91666000D03*
X119560000Y-91666000D03*
%TD*%
%TO.C,R24*%
X180545000Y-116045000D03*
X182345000Y-116045000D03*
%TD*%
%TO.C,R6*%
X149088000Y-110451000D03*
X150888000Y-110451000D03*
%TD*%
D10*
%TO.C,R36*%
X151839000Y-83301000D03*
X151839000Y-85101000D03*
%TD*%
D12*
%TO.C,R68*%
X153854000Y-93614000D03*
X155654000Y-93614000D03*
%TD*%
%TO.C,R7*%
X117757000Y-89881000D03*
X119557000Y-89881000D03*
%TD*%
%TO.C,R30*%
X186681000Y-101741750D03*
X184881000Y-101741750D03*
%TD*%
D18*
%TO.C,U3*%
X155028000Y-112105000D03*
X155028000Y-113375000D03*
X155028000Y-114645000D03*
X155028000Y-115915000D03*
X162228000Y-115915000D03*
X162228000Y-114645000D03*
X162228000Y-113375000D03*
X162228000Y-112105000D03*
%TD*%
D10*
%TO.C,C44*%
X162013000Y-102134066D03*
X162013000Y-103934066D03*
%TD*%
D11*
%TO.C,D4*%
X126990000Y-126200000D03*
X122990000Y-126200000D03*
%TD*%
D12*
%TO.C,C26*%
X155674000Y-90910000D03*
X153874000Y-90910000D03*
%TD*%
%TO.C,R3*%
X130517000Y-103631000D03*
X132317000Y-103631000D03*
%TD*%
D19*
%TO.C,J1*%
X113566000Y-105928000D03*
X113566000Y-106728000D03*
D20*
X113566000Y-107878000D03*
X113566000Y-108878000D03*
X113566000Y-109378000D03*
X113566000Y-110378000D03*
D19*
X113566000Y-111528000D03*
X113566000Y-112328000D03*
X113566000Y-112328000D03*
X113566000Y-111528000D03*
D20*
X113566000Y-110878000D03*
X113566000Y-109878000D03*
X113566000Y-108378000D03*
X113566000Y-107378000D03*
D19*
X113566000Y-106728000D03*
X113566000Y-105928000D03*
D21*
X112991000Y-104808000D03*
D22*
X108811000Y-104808000D03*
D21*
X112991000Y-113448000D03*
D22*
X108811000Y-113448000D03*
%TD*%
D23*
%TO.C,D8*%
X134378000Y-122740000D03*
X134378000Y-126040000D03*
X139278000Y-126040000D03*
X139278000Y-122740000D03*
%TD*%
D12*
%TO.C,R18*%
X180545000Y-124232000D03*
X182345000Y-124232000D03*
%TD*%
%TO.C,R31*%
X184858000Y-99901750D03*
X186658000Y-99901750D03*
%TD*%
%TO.C,R19*%
X180545000Y-122847000D03*
X182345000Y-122847000D03*
%TD*%
D24*
%TO.C,U5*%
X122417000Y-89599000D03*
X122417000Y-90869000D03*
X122417000Y-92139000D03*
X122417000Y-93409000D03*
X127667000Y-93409000D03*
X127667000Y-92139000D03*
X127667000Y-90869000D03*
X127667000Y-89599000D03*
%TD*%
D10*
%TO.C,C18*%
X167681000Y-112630632D03*
X167681000Y-114430632D03*
%TD*%
D12*
%TO.C,R37*%
X137242000Y-101750000D03*
X139042000Y-101750000D03*
%TD*%
D10*
%TO.C,C15*%
X177005000Y-132988000D03*
X177005000Y-131188000D03*
%TD*%
D12*
%TO.C,R27*%
X153854000Y-100068000D03*
X155654000Y-100068000D03*
%TD*%
D10*
%TO.C,C17*%
X178446000Y-132988000D03*
X178446000Y-131188000D03*
%TD*%
D12*
%TO.C,R55*%
X179513000Y-102574000D03*
X181313000Y-102574000D03*
%TD*%
D11*
%TO.C,D2*%
X121283500Y-96103000D03*
X117283500Y-96103000D03*
%TD*%
D12*
%TO.C,C13*%
X116373066Y-101651000D03*
X118173066Y-101651000D03*
%TD*%
D10*
%TO.C,C36*%
X169228000Y-90970000D03*
X169228000Y-92770000D03*
%TD*%
D25*
%TO.C,SW2*%
X143520000Y-113280000D03*
X146920000Y-113280000D03*
%TD*%
D10*
%TO.C,R44*%
X166525000Y-92779934D03*
X166525000Y-90979934D03*
%TD*%
D25*
%TO.C,SW1*%
X152487000Y-113280000D03*
X149087000Y-113280000D03*
%TD*%
D10*
%TO.C,R35*%
X150216000Y-83301000D03*
X150216000Y-85101000D03*
%TD*%
%TO.C,C38*%
X170598000Y-90970000D03*
X170598000Y-92770000D03*
%TD*%
%TO.C,C5*%
X175597000Y-132988000D03*
X175597000Y-131188000D03*
%TD*%
D12*
%TO.C,C23*%
X159113000Y-78747500D03*
X157313000Y-78747500D03*
%TD*%
D26*
%TO.C,U2*%
X125141000Y-111554000D03*
X126411000Y-111554000D03*
X127681000Y-111554000D03*
X128951000Y-111554000D03*
X128951000Y-106604000D03*
X127681000Y-106604000D03*
X126411000Y-106604000D03*
X125141000Y-106604000D03*
%TD*%
D27*
%TO.C,U7*%
X152070500Y-78746500D03*
X152070500Y-79696500D03*
X152070500Y-80646500D03*
X154345500Y-80646500D03*
X154345500Y-79696500D03*
X154345500Y-78746500D03*
%TD*%
D12*
%TO.C,R28*%
X184866000Y-98511750D03*
X186666000Y-98511750D03*
%TD*%
%TO.C,C28*%
X137237000Y-100384000D03*
X139037000Y-100384000D03*
%TD*%
D10*
%TO.C,R4*%
X190410000Y-128340000D03*
X190410000Y-130140000D03*
%TD*%
D12*
%TO.C,C19*%
X125894000Y-95519000D03*
X127694000Y-95519000D03*
%TD*%
%TO.C,C3*%
X160442000Y-109743000D03*
X162242000Y-109743000D03*
%TD*%
D28*
%TO.C,Y2*%
X137895000Y-89594500D03*
X141595000Y-89594500D03*
%TD*%
D10*
%TO.C,C16*%
X169101000Y-112630632D03*
X169101000Y-114430632D03*
%TD*%
D12*
%TO.C,C33*%
X181322935Y-104472000D03*
X179522935Y-104472000D03*
%TD*%
D29*
%TO.C,U4*%
X192292500Y-124637500D03*
X192292500Y-123837500D03*
X192292500Y-123037500D03*
X192292500Y-122237500D03*
X192292500Y-121437500D03*
X192292500Y-120637500D03*
D30*
X191292500Y-120637500D03*
D29*
X190292500Y-120637500D03*
X190292500Y-121437500D03*
X190292500Y-122237500D03*
X190292500Y-123037500D03*
X190292500Y-123837500D03*
X190292500Y-124637500D03*
D30*
X191292500Y-124637500D03*
%TD*%
D12*
%TO.C,C1*%
X157178000Y-118259000D03*
X158978000Y-118259000D03*
%TD*%
%TO.C,R2*%
X154954000Y-109742500D03*
X156754000Y-109742500D03*
%TD*%
D31*
%TO.C,J3*%
X189000000Y-85409395D03*
X190100000Y-85409395D03*
X191200000Y-85409395D03*
X192300000Y-85409395D03*
X193400000Y-85409395D03*
X194500000Y-85409395D03*
X195600000Y-85409395D03*
X196700000Y-85409395D03*
X197800000Y-85409395D03*
D32*
X199000000Y-84459395D03*
D33*
X199000000Y-74859395D03*
D34*
X184400000Y-84459395D03*
D33*
X183500000Y-74859395D03*
%TD*%
D12*
%TO.C,C2*%
X157780000Y-124190000D03*
X159580000Y-124190000D03*
%TD*%
%TO.C,C45*%
X181322935Y-101189000D03*
X179522935Y-101189000D03*
%TD*%
D19*
%TO.C,J2*%
X113566000Y-89764000D03*
X113566000Y-90564000D03*
D20*
X113566000Y-91714000D03*
X113566000Y-92714000D03*
X113566000Y-93214000D03*
X113566000Y-94214000D03*
D19*
X113566000Y-95364000D03*
X113566000Y-96164000D03*
X113566000Y-96164000D03*
X113566000Y-95364000D03*
D20*
X113566000Y-94714000D03*
X113566000Y-93714000D03*
X113566000Y-92214000D03*
X113566000Y-91214000D03*
D19*
X113566000Y-90564000D03*
X113566000Y-89764000D03*
D21*
X112991000Y-88644000D03*
D22*
X108811000Y-88644000D03*
D21*
X112991000Y-97284000D03*
D22*
X108811000Y-97284000D03*
%TD*%
D10*
%TO.C,C11*%
X174211000Y-112682066D03*
X174211000Y-114482066D03*
%TD*%
D12*
%TO.C,C7*%
X182306000Y-125987000D03*
X180506000Y-125987000D03*
%TD*%
D35*
%TO.C,L1*%
X122055000Y-118642500D03*
X131005000Y-118642500D03*
%TD*%
D12*
%TO.C,C30*%
X140487000Y-86755500D03*
X142287000Y-86755500D03*
%TD*%
%TO.C,R9*%
X146891000Y-110445000D03*
X145091000Y-110445000D03*
%TD*%
D10*
%TO.C,R63*%
X173778000Y-105634000D03*
X173778000Y-107434000D03*
%TD*%
%TO.C,R54*%
X175142000Y-105634000D03*
X175142000Y-107434000D03*
%TD*%
D12*
%TO.C,R26*%
X180545000Y-114680000D03*
X182345000Y-114680000D03*
%TD*%
D10*
%TO.C,R10*%
X170621000Y-112630566D03*
X170621000Y-114430566D03*
%TD*%
D12*
%TO.C,C34*%
X181322935Y-105832000D03*
X179522935Y-105832000D03*
%TD*%
D10*
%TO.C,R43*%
X177376000Y-92779934D03*
X177376000Y-90979934D03*
%TD*%
D12*
%TO.C,R13*%
X117760000Y-93039000D03*
X119560000Y-93039000D03*
%TD*%
%TO.C,C24*%
X155674000Y-96394000D03*
X153874000Y-96394000D03*
%TD*%
D36*
%TO.C,D9*%
X147020000Y-132378000D03*
X147020000Y-129078000D03*
X142120000Y-129078000D03*
X142120000Y-132378000D03*
%TD*%
D12*
%TO.C,C27*%
X155647000Y-97950000D03*
X153847000Y-97950000D03*
%TD*%
%TO.C,R20*%
X180545000Y-121484000D03*
X182345000Y-121484000D03*
%TD*%
%TO.C,R22*%
X180545000Y-118767000D03*
X182345000Y-118767000D03*
%TD*%
D10*
%TO.C,C4*%
X192960000Y-130110000D03*
X192960000Y-128310000D03*
%TD*%
D12*
%TO.C,R23*%
X180545000Y-117405000D03*
X182345000Y-117405000D03*
%TD*%
D10*
%TO.C,C39*%
X166254000Y-105642500D03*
X166254000Y-107442500D03*
%TD*%
D37*
%TO.C,Q1*%
X123086500Y-132327500D03*
X123086500Y-130427500D03*
X121211500Y-131377500D03*
%TD*%
D38*
%TO.C,C14*%
X134662000Y-110887000D03*
X134662000Y-105487000D03*
%TD*%
D10*
%TO.C,C46*%
X162013000Y-100711000D03*
X162013000Y-98911000D03*
%TD*%
%TO.C,C6*%
X148240000Y-80559000D03*
X148240000Y-78759000D03*
%TD*%
%TO.C,R45*%
X171955000Y-92779934D03*
X171955000Y-90979934D03*
%TD*%
%TO.C,R42*%
X174661000Y-92779934D03*
X174661000Y-90979934D03*
%TD*%
D23*
%TO.C,D7*%
X142220000Y-122740000D03*
X142220000Y-126040000D03*
X147120000Y-126040000D03*
X147120000Y-122740000D03*
%TD*%
D39*
%TO.C,U6*%
X168066000Y-121505000D03*
D40*
X168066000Y-122855000D03*
D41*
X169416000Y-121505000D03*
D42*
X169416000Y-122855000D03*
D43*
X165303500Y-119580000D03*
X165303500Y-119980000D03*
X165303500Y-120380000D03*
X165303500Y-120780000D03*
X165303500Y-121180000D03*
X165303500Y-121580000D03*
X165303500Y-121980000D03*
X165303500Y-122380000D03*
X165303500Y-122780000D03*
X165303500Y-123180000D03*
X165303500Y-123580000D03*
X165303500Y-123980000D03*
X165303500Y-124380000D03*
X165303500Y-124780000D03*
D44*
X166141000Y-125617500D03*
X166541000Y-125617500D03*
X166941000Y-125617500D03*
X167341000Y-125617500D03*
X167741000Y-125617500D03*
X168141000Y-125617500D03*
X168541000Y-125617500D03*
X168941000Y-125617500D03*
X169341000Y-125617500D03*
X169741000Y-125617500D03*
X170141000Y-125617500D03*
X170541000Y-125617500D03*
X170941000Y-125617500D03*
X171341000Y-125617500D03*
D43*
X172178500Y-124780000D03*
X172178500Y-124380000D03*
X172178500Y-123980000D03*
X172178500Y-123580000D03*
X172178500Y-123180000D03*
X172178500Y-122780000D03*
X172178500Y-122380000D03*
X172178500Y-121980000D03*
X172178500Y-121580000D03*
X172178500Y-121180000D03*
X172178500Y-120780000D03*
X172178500Y-120380000D03*
X172178500Y-119980000D03*
X172178500Y-119580000D03*
D44*
X171341000Y-118742500D03*
X170941000Y-118742500D03*
X170541000Y-118742500D03*
X170141000Y-118742500D03*
X169741000Y-118742500D03*
X169341000Y-118742500D03*
X168941000Y-118742500D03*
X168541000Y-118742500D03*
X168141000Y-118742500D03*
X167741000Y-118742500D03*
X167341000Y-118742500D03*
X166941000Y-118742500D03*
X166541000Y-118742500D03*
X166141000Y-118742500D03*
%TD*%
D12*
%TO.C,C40*%
X179522065Y-93661000D03*
X181322065Y-93661000D03*
%TD*%
D45*
%TO.C,D10*%
X146652000Y-86720000D03*
X146652000Y-88295000D03*
%TD*%
D12*
%TO.C,R33*%
X127500000Y-132300000D03*
X125700000Y-132300000D03*
%TD*%
D10*
%TO.C,R60*%
X169691000Y-105634000D03*
X169691000Y-107434000D03*
%TD*%
D12*
%TO.C,C31*%
X139058369Y-86755500D03*
X137258369Y-86755500D03*
%TD*%
D10*
%TO.C,C35*%
X167644000Y-105642500D03*
X167644000Y-107442500D03*
%TD*%
%TO.C,R15*%
X171982000Y-112630566D03*
X171982000Y-114430566D03*
%TD*%
%TO.C,R64*%
X169240000Y-96528000D03*
X169240000Y-94728000D03*
%TD*%
D12*
%TO.C,R12*%
X117740000Y-107879000D03*
X119540000Y-107879000D03*
%TD*%
D28*
%TO.C,Y1*%
X167414000Y-132073000D03*
X163714000Y-132073000D03*
%TD*%
D12*
%TO.C,R32*%
X155664000Y-101429000D03*
X153864000Y-101429000D03*
%TD*%
D10*
%TO.C,C9*%
X175617000Y-112682066D03*
X175617000Y-114482066D03*
%TD*%
D46*
%TO.C,D13*%
X151821000Y-88255000D03*
X151821000Y-86680000D03*
%TD*%
D12*
%TO.C,R69*%
X153854000Y-92261000D03*
X155654000Y-92261000D03*
%TD*%
%TO.C,R8*%
X117757000Y-88515000D03*
X119557000Y-88515000D03*
%TD*%
%TO.C,R66*%
X179513000Y-99834000D03*
X181313000Y-99834000D03*
%TD*%
D45*
%TO.C,D12*%
X150161000Y-86720000D03*
X150161000Y-88295000D03*
%TD*%
D47*
%TO.C,Y3*%
X165131000Y-99582000D03*
X165131000Y-103282000D03*
%TD*%
D10*
%TO.C,R16*%
X169852000Y-132957000D03*
X169852000Y-131157000D03*
%TD*%
D23*
%TO.C,D6*%
X142170000Y-116502000D03*
X142170000Y-119802000D03*
X147070000Y-119802000D03*
X147070000Y-116502000D03*
%TD*%
D48*
%TO.C,FB1*%
X181205500Y-96571000D03*
X179630500Y-96571000D03*
%TD*%
D10*
%TO.C,R5*%
X189056000Y-128340000D03*
X189056000Y-130140000D03*
%TD*%
D36*
%TO.C,D5*%
X154940000Y-126030000D03*
X154940000Y-122730000D03*
X150040000Y-122730000D03*
X150040000Y-126030000D03*
%TD*%
D10*
%TO.C,C42*%
X173337000Y-90970000D03*
X173337000Y-92770000D03*
%TD*%
%TO.C,C8*%
X149610000Y-80577066D03*
X149610000Y-78777066D03*
%TD*%
D12*
%TO.C,C25*%
X155670000Y-94994000D03*
X153870000Y-94994000D03*
%TD*%
%TO.C,R21*%
X180545000Y-120122000D03*
X182345000Y-120122000D03*
%TD*%
D48*
%TO.C,D3*%
X132339500Y-102207000D03*
X130764500Y-102207000D03*
%TD*%
D12*
%TO.C,C20*%
X125894000Y-87609000D03*
X127694000Y-87609000D03*
%TD*%
D10*
%TO.C,C22*%
X171205000Y-131147066D03*
X171205000Y-132947066D03*
%TD*%
%TO.C,R59*%
X171053000Y-105634000D03*
X171053000Y-107434000D03*
%TD*%
D46*
%TO.C,D11*%
X148435000Y-88255000D03*
X148435000Y-86680000D03*
%TD*%
D10*
%TO.C,C37*%
X165148000Y-90970000D03*
X165148000Y-92770000D03*
%TD*%
D12*
%TO.C,R17*%
X159103000Y-80125500D03*
X157303000Y-80125500D03*
%TD*%
D10*
%TO.C,C43*%
X176016000Y-90970000D03*
X176016000Y-92770000D03*
%TD*%
M02*
