M48
; DRILL file {KiCad 8.0.9-8.0.9-0~ubuntu24.04.1} date 2025-02-27T11:28:30+0700
; FORMAT={-:-/ absolute / metric / decimal}
; #@! TF.CreationDate,2025-02-27T11:28:30+07:00
; #@! TF.GenerationSoftware,Kicad,Pcbnew,8.0.9-8.0.9-0~ubuntu24.04.1
; #@! TF.FileFunction,Plated,1,2,PTH
FMAT,2
METRIC
; #@! TA.AperFunction,Plated,PTH,ComponentDrill
T1C0.200
; #@! TA.AperFunction,Plated,PTH,ViaDrill
T2C0.300
; #@! TA.AperFunction,Plated,PTH,ComponentDrill
T3C0.500
; #@! TA.AperFunction,Plated,PTH,ComponentDrill
T4C0.600
; #@! TA.AperFunction,Plated,PTH,ComponentDrill
T5C0.800
; #@! TA.AperFunction,Plated,PTH,ComponentDrill
T6C0.900
; #@! TA.AperFunction,Plated,PTH,ComponentDrill
T7C1.000
; #@! TA.AperFunction,Plated,PTH,ComponentDrill
T8C1.800
; #@! TA.AperFunction,Plated,PTH,ComponentDrill
T9C2.300
%
G90
G05
T1
X167.391Y-120.83
X167.391Y-123.53
X170.091Y-120.83
X170.091Y-123.53
T2
X111.241Y-108.911
X111.302Y-92.726
X115.286Y-88.948
X115.719Y-106.466
X115.75Y-90.779
X115.795Y-93.217
X115.943Y-88.491
X116.27Y-112.4
X116.359Y-109.38
X117.206Y-98.717
X121.283Y-98.948
X121.29Y-98.18
X121.464Y-103.856
X124.66Y-113.87
X124.843Y-91.687
X125.636Y-91.579
X127.691Y-97.265
X131.08Y-123.73
X132.373Y-106.609
X133.53Y-131.38
X138.25Y-116.502
X146.891Y-111.62
X147.387Y-98.599
X148.375Y-103.422
X148.418Y-104.313
X148.45Y-93.846
X148.506Y-90.201
X148.834Y-84.139
X152.149Y-91.854
X152.29Y-92.641
X152.434Y-93.428
X152.481Y-94.227
X152.609Y-97.253
X153.234Y-82.57
X153.495Y-88.371
X153.854Y-83.183
X154.522Y-82.744
X154.898Y-84.13
X155.803Y-78.758
X155.842Y-119.491
X156.447Y-78.764
X156.534Y-119.91
X157.556Y-103.033
X157.803Y-93.604
X158.069Y-92.262
X158.268Y-102.257
X158.346Y-112.13
X158.591Y-103.457
X159.017Y-113.588
X159.33Y-90.178
X159.44Y-103.457
X159.787Y-114.288
X159.881Y-122.046
X160.028Y-96.146
X160.043Y-115.393
X160.412Y-127.492
X160.584Y-125.823
X160.658Y-118.449
X160.679Y-84.136
X160.713Y-121.78
X160.812Y-126.799
X160.99Y-124.206
X161.389Y-96.146
X161.441Y-125.873
X161.463Y-121.38
X161.881Y-117.466
X162.149Y-120.968
X162.17Y-123.02
X162.29Y-107.699
X162.78Y-96.146
X163.66Y-117.435
X164.068Y-127.153
X164.107Y-116.769
X164.121Y-111.02
X164.128Y-96.146
X164.163Y-125.851
X164.22Y-127.975
X167.4Y-128.331
X167.426Y-94.879
X167.87Y-89.246
X167.886Y-93.875
X169.491Y-127.933
X169.671Y-108.862
X170.067Y-104.568
X170.825Y-104.521
X171.052Y-108.862
X171.127Y-97.074
X171.192Y-116.552
X171.542Y-104.239
X171.873Y-96.998
X172.198Y-100.91
X172.349Y-104.245
X172.397Y-108.862
X172.622Y-97.047
X173.135Y-104.245
X173.365Y-97.144
X173.374Y-126.277
X173.418Y-125.437
X173.612Y-127.701
X173.804Y-108.862
X173.85Y-132.42
X174.062Y-124.934
X174.063Y-117.144
X174.18Y-111.03
X174.28Y-94.689
X174.705Y-124.215
X174.814Y-110.374
X175.558Y-110.731
X176.133Y-101.847
X176.588Y-100.628
X176.67Y-125.49
X176.78Y-98.693
X176.839Y-99.565
X177.259Y-128.472
X177.516Y-94.129
X177.609Y-129.191
X178.232Y-129.692
X178.665Y-112.015
X178.928Y-92.421
X179.7Y-129.663
X182.726Y-104.214
X182.741Y-99.988
X184.428Y-105.851
X184.536Y-123.081
X184.547Y-123.831
X184.555Y-117.78
X184.56Y-115.662
X184.563Y-118.53
X184.571Y-114.912
X184.575Y-121.157
X184.593Y-120.408
X184.988Y-97.238
X185.114Y-105.44
X189.49Y-104.88
X189.81Y-126.37
X190.098Y-88.145
X190.136Y-89.369
X190.177Y-111.43
X190.593Y-126.533
X192.083Y-89.568
X193.368Y-87.446
X193.593Y-88.432
T3
X191.633Y-95.407
X191.633Y-96.407
X191.633Y-97.407
X191.633Y-98.407
X191.633Y-99.407
X191.633Y-100.407
X191.633Y-101.407
X191.633Y-102.407
X191.633Y-103.407
X191.633Y-104.407
X192.383Y-95.907
X192.383Y-96.907
X192.383Y-97.907
X192.383Y-98.907
X192.383Y-99.907
X192.383Y-100.907
X192.383Y-101.907
X192.383Y-102.907
X192.383Y-103.907
T5
X144.599Y-106.634
X152.219Y-106.634
T7
X114.07Y-123.55
X114.07Y-131.15
X116.041Y-79.972
X116.041Y-82.592
X118.541Y-79.972
X118.541Y-82.592
X120.541Y-79.972
X120.541Y-82.592
X123.041Y-79.972
X123.041Y-82.592
X134.477Y-79.972
X134.477Y-82.592
X136.977Y-79.972
X136.977Y-82.592
X138.977Y-79.972
X138.977Y-82.592
X141.477Y-79.972
X141.477Y-82.592
X164.726Y-72.747
X167.056Y-86.527
X167.266Y-72.747
X168.326Y-83.987
X169.596Y-86.527
X170.866Y-83.987
X172.136Y-86.527
X173.406Y-83.987
X174.676Y-86.527
X175.426Y-72.747
X175.946Y-83.987
X177.966Y-72.747
X196.71Y-114.485
X196.71Y-117.025
X196.71Y-119.565
X196.71Y-122.105
X196.71Y-124.645
T8
X163.386Y-80.747
X179.386Y-80.747
T9
X112.971Y-77.262
X112.971Y-82.942
X126.111Y-77.262
X126.111Y-82.942
X131.407Y-77.262
X131.407Y-82.942
X144.547Y-77.262
X144.547Y-82.942
T4
G00X109.211Y-88.644
M15
G01X108.411Y-88.644
M16
G05
G00X109.211Y-97.284
M15
G01X108.411Y-97.284
M16
G05
G00X109.211Y-104.808
M15
G01X108.411Y-104.808
M16
G05
G00X109.211Y-113.448
M15
G01X108.411Y-113.448
M16
G05
G00X113.541Y-88.644
M15
G01X112.441Y-88.644
M16
G05
G00X113.541Y-97.284
M15
G01X112.441Y-97.284
M16
G05
G00X113.541Y-104.808
M15
G01X112.441Y-104.808
M16
G05
G00X113.541Y-113.448
M15
G01X112.441Y-113.448
M16
G05
T6
G00X191.108Y-92.657
M15
G01X192.909Y-92.657
M16
G05
G00X191.108Y-107.157
M15
G01X192.909Y-107.157
M16
G05
G00X197.558Y-92.657
M15
G01X198.358Y-92.657
M16
G05
G00X197.558Y-107.157
M15
G01X198.358Y-107.157
M16
G05
M30
