%TF.GenerationSoftware,KiCad,Pcbnew,9.0.3-9.0.3-0~ubuntu24.04.1*%
%TF.CreationDate,2025-07-31T13:59:27+07:00*%
%TF.ProjectId,rp2040_dev,72703230-3430-45f6-9465-762e6b696361,rev?*%
%TF.SameCoordinates,Original*%
%TF.FileFunction,Legend,Bot*%
%TF.FilePolarity,Positive*%
%FSLAX46Y46*%
G04 Gerber Fmt 4.6, Leading zero omitted, Abs format (unit mm)*
G04 Created by KiCad (PCBNEW 9.0.3-9.0.3-0~ubuntu24.04.1) date 2025-07-31 13:59:27*
%MOMM*%
%LPD*%
G01*
G04 APERTURE LIST*
%ADD10C,0.150000*%
%ADD11C,0.300000*%
%ADD12C,0.120000*%
%ADD13C,0.000000*%
G04 APERTURE END LIST*
D10*
X152754285Y-87722295D02*
X153020952Y-87341342D01*
X153211428Y-87722295D02*
X153211428Y-86922295D01*
X153211428Y-86922295D02*
X152906666Y-86922295D01*
X152906666Y-86922295D02*
X152830476Y-86960390D01*
X152830476Y-86960390D02*
X152792381Y-86998485D01*
X152792381Y-86998485D02*
X152754285Y-87074676D01*
X152754285Y-87074676D02*
X152754285Y-87188961D01*
X152754285Y-87188961D02*
X152792381Y-87265152D01*
X152792381Y-87265152D02*
X152830476Y-87303247D01*
X152830476Y-87303247D02*
X152906666Y-87341342D01*
X152906666Y-87341342D02*
X153211428Y-87341342D01*
X152030476Y-86922295D02*
X152411428Y-86922295D01*
X152411428Y-86922295D02*
X152449524Y-87303247D01*
X152449524Y-87303247D02*
X152411428Y-87265152D01*
X152411428Y-87265152D02*
X152335238Y-87227057D01*
X152335238Y-87227057D02*
X152144762Y-87227057D01*
X152144762Y-87227057D02*
X152068571Y-87265152D01*
X152068571Y-87265152D02*
X152030476Y-87303247D01*
X152030476Y-87303247D02*
X151992381Y-87379438D01*
X151992381Y-87379438D02*
X151992381Y-87569914D01*
X151992381Y-87569914D02*
X152030476Y-87646104D01*
X152030476Y-87646104D02*
X152068571Y-87684200D01*
X152068571Y-87684200D02*
X152144762Y-87722295D01*
X152144762Y-87722295D02*
X152335238Y-87722295D01*
X152335238Y-87722295D02*
X152411428Y-87684200D01*
X152411428Y-87684200D02*
X152449524Y-87646104D01*
X151535238Y-87265152D02*
X151611428Y-87227057D01*
X151611428Y-87227057D02*
X151649523Y-87188961D01*
X151649523Y-87188961D02*
X151687619Y-87112771D01*
X151687619Y-87112771D02*
X151687619Y-87074676D01*
X151687619Y-87074676D02*
X151649523Y-86998485D01*
X151649523Y-86998485D02*
X151611428Y-86960390D01*
X151611428Y-86960390D02*
X151535238Y-86922295D01*
X151535238Y-86922295D02*
X151382857Y-86922295D01*
X151382857Y-86922295D02*
X151306666Y-86960390D01*
X151306666Y-86960390D02*
X151268571Y-86998485D01*
X151268571Y-86998485D02*
X151230476Y-87074676D01*
X151230476Y-87074676D02*
X151230476Y-87112771D01*
X151230476Y-87112771D02*
X151268571Y-87188961D01*
X151268571Y-87188961D02*
X151306666Y-87227057D01*
X151306666Y-87227057D02*
X151382857Y-87265152D01*
X151382857Y-87265152D02*
X151535238Y-87265152D01*
X151535238Y-87265152D02*
X151611428Y-87303247D01*
X151611428Y-87303247D02*
X151649523Y-87341342D01*
X151649523Y-87341342D02*
X151687619Y-87417533D01*
X151687619Y-87417533D02*
X151687619Y-87569914D01*
X151687619Y-87569914D02*
X151649523Y-87646104D01*
X151649523Y-87646104D02*
X151611428Y-87684200D01*
X151611428Y-87684200D02*
X151535238Y-87722295D01*
X151535238Y-87722295D02*
X151382857Y-87722295D01*
X151382857Y-87722295D02*
X151306666Y-87684200D01*
X151306666Y-87684200D02*
X151268571Y-87646104D01*
X151268571Y-87646104D02*
X151230476Y-87569914D01*
X151230476Y-87569914D02*
X151230476Y-87417533D01*
X151230476Y-87417533D02*
X151268571Y-87341342D01*
X151268571Y-87341342D02*
X151306666Y-87303247D01*
X151306666Y-87303247D02*
X151382857Y-87265152D01*
D11*
X177916423Y-114772327D02*
X178059281Y-114700898D01*
X178059281Y-114700898D02*
X178273566Y-114700898D01*
X178273566Y-114700898D02*
X178487852Y-114772327D01*
X178487852Y-114772327D02*
X178630709Y-114915184D01*
X178630709Y-114915184D02*
X178702138Y-115058041D01*
X178702138Y-115058041D02*
X178773566Y-115343755D01*
X178773566Y-115343755D02*
X178773566Y-115558041D01*
X178773566Y-115558041D02*
X178702138Y-115843755D01*
X178702138Y-115843755D02*
X178630709Y-115986612D01*
X178630709Y-115986612D02*
X178487852Y-116129470D01*
X178487852Y-116129470D02*
X178273566Y-116200898D01*
X178273566Y-116200898D02*
X178130709Y-116200898D01*
X178130709Y-116200898D02*
X177916423Y-116129470D01*
X177916423Y-116129470D02*
X177844995Y-116058041D01*
X177844995Y-116058041D02*
X177844995Y-115558041D01*
X177844995Y-115558041D02*
X178130709Y-115558041D01*
X176987852Y-114700898D02*
X176987852Y-115058041D01*
X177344995Y-114915184D02*
X176987852Y-115058041D01*
X176987852Y-115058041D02*
X176630709Y-114915184D01*
X177202138Y-115343755D02*
X176987852Y-115058041D01*
X176987852Y-115058041D02*
X176773566Y-115343755D01*
X175844995Y-114700898D02*
X175844995Y-115058041D01*
X176202138Y-114915184D02*
X175844995Y-115058041D01*
X175844995Y-115058041D02*
X175487852Y-114915184D01*
X176059281Y-115343755D02*
X175844995Y-115058041D01*
X175844995Y-115058041D02*
X175630709Y-115343755D01*
X174702138Y-114700898D02*
X174702138Y-115058041D01*
X175059281Y-114915184D02*
X174702138Y-115058041D01*
X174702138Y-115058041D02*
X174344995Y-114915184D01*
X174916424Y-115343755D02*
X174702138Y-115058041D01*
X174702138Y-115058041D02*
X174487852Y-115343755D01*
D10*
X157532295Y-97956714D02*
X157151342Y-97690047D01*
X157532295Y-97499571D02*
X156732295Y-97499571D01*
X156732295Y-97499571D02*
X156732295Y-97804333D01*
X156732295Y-97804333D02*
X156770390Y-97880523D01*
X156770390Y-97880523D02*
X156808485Y-97918618D01*
X156808485Y-97918618D02*
X156884676Y-97956714D01*
X156884676Y-97956714D02*
X156998961Y-97956714D01*
X156998961Y-97956714D02*
X157075152Y-97918618D01*
X157075152Y-97918618D02*
X157113247Y-97880523D01*
X157113247Y-97880523D02*
X157151342Y-97804333D01*
X157151342Y-97804333D02*
X157151342Y-97499571D01*
X156998961Y-98642428D02*
X157532295Y-98642428D01*
X156694200Y-98451952D02*
X157265628Y-98261475D01*
X157265628Y-98261475D02*
X157265628Y-98756714D01*
X157075152Y-99175761D02*
X157037057Y-99099571D01*
X157037057Y-99099571D02*
X156998961Y-99061476D01*
X156998961Y-99061476D02*
X156922771Y-99023380D01*
X156922771Y-99023380D02*
X156884676Y-99023380D01*
X156884676Y-99023380D02*
X156808485Y-99061476D01*
X156808485Y-99061476D02*
X156770390Y-99099571D01*
X156770390Y-99099571D02*
X156732295Y-99175761D01*
X156732295Y-99175761D02*
X156732295Y-99328142D01*
X156732295Y-99328142D02*
X156770390Y-99404333D01*
X156770390Y-99404333D02*
X156808485Y-99442428D01*
X156808485Y-99442428D02*
X156884676Y-99480523D01*
X156884676Y-99480523D02*
X156922771Y-99480523D01*
X156922771Y-99480523D02*
X156998961Y-99442428D01*
X156998961Y-99442428D02*
X157037057Y-99404333D01*
X157037057Y-99404333D02*
X157075152Y-99328142D01*
X157075152Y-99328142D02*
X157075152Y-99175761D01*
X157075152Y-99175761D02*
X157113247Y-99099571D01*
X157113247Y-99099571D02*
X157151342Y-99061476D01*
X157151342Y-99061476D02*
X157227533Y-99023380D01*
X157227533Y-99023380D02*
X157379914Y-99023380D01*
X157379914Y-99023380D02*
X157456104Y-99061476D01*
X157456104Y-99061476D02*
X157494200Y-99099571D01*
X157494200Y-99099571D02*
X157532295Y-99175761D01*
X157532295Y-99175761D02*
X157532295Y-99328142D01*
X157532295Y-99328142D02*
X157494200Y-99404333D01*
X157494200Y-99404333D02*
X157456104Y-99442428D01*
X157456104Y-99442428D02*
X157379914Y-99480523D01*
X157379914Y-99480523D02*
X157227533Y-99480523D01*
X157227533Y-99480523D02*
X157151342Y-99442428D01*
X157151342Y-99442428D02*
X157113247Y-99404333D01*
X157113247Y-99404333D02*
X157075152Y-99328142D01*
X154882295Y-93405714D02*
X154501342Y-93139047D01*
X154882295Y-92948571D02*
X154082295Y-92948571D01*
X154082295Y-92948571D02*
X154082295Y-93253333D01*
X154082295Y-93253333D02*
X154120390Y-93329523D01*
X154120390Y-93329523D02*
X154158485Y-93367618D01*
X154158485Y-93367618D02*
X154234676Y-93405714D01*
X154234676Y-93405714D02*
X154348961Y-93405714D01*
X154348961Y-93405714D02*
X154425152Y-93367618D01*
X154425152Y-93367618D02*
X154463247Y-93329523D01*
X154463247Y-93329523D02*
X154501342Y-93253333D01*
X154501342Y-93253333D02*
X154501342Y-92948571D01*
X154082295Y-93672380D02*
X154082295Y-94167618D01*
X154082295Y-94167618D02*
X154387057Y-93900952D01*
X154387057Y-93900952D02*
X154387057Y-94015237D01*
X154387057Y-94015237D02*
X154425152Y-94091428D01*
X154425152Y-94091428D02*
X154463247Y-94129523D01*
X154463247Y-94129523D02*
X154539438Y-94167618D01*
X154539438Y-94167618D02*
X154729914Y-94167618D01*
X154729914Y-94167618D02*
X154806104Y-94129523D01*
X154806104Y-94129523D02*
X154844200Y-94091428D01*
X154844200Y-94091428D02*
X154882295Y-94015237D01*
X154882295Y-94015237D02*
X154882295Y-93786666D01*
X154882295Y-93786666D02*
X154844200Y-93710475D01*
X154844200Y-93710475D02*
X154806104Y-93672380D01*
X154425152Y-94624761D02*
X154387057Y-94548571D01*
X154387057Y-94548571D02*
X154348961Y-94510476D01*
X154348961Y-94510476D02*
X154272771Y-94472380D01*
X154272771Y-94472380D02*
X154234676Y-94472380D01*
X154234676Y-94472380D02*
X154158485Y-94510476D01*
X154158485Y-94510476D02*
X154120390Y-94548571D01*
X154120390Y-94548571D02*
X154082295Y-94624761D01*
X154082295Y-94624761D02*
X154082295Y-94777142D01*
X154082295Y-94777142D02*
X154120390Y-94853333D01*
X154120390Y-94853333D02*
X154158485Y-94891428D01*
X154158485Y-94891428D02*
X154234676Y-94929523D01*
X154234676Y-94929523D02*
X154272771Y-94929523D01*
X154272771Y-94929523D02*
X154348961Y-94891428D01*
X154348961Y-94891428D02*
X154387057Y-94853333D01*
X154387057Y-94853333D02*
X154425152Y-94777142D01*
X154425152Y-94777142D02*
X154425152Y-94624761D01*
X154425152Y-94624761D02*
X154463247Y-94548571D01*
X154463247Y-94548571D02*
X154501342Y-94510476D01*
X154501342Y-94510476D02*
X154577533Y-94472380D01*
X154577533Y-94472380D02*
X154729914Y-94472380D01*
X154729914Y-94472380D02*
X154806104Y-94510476D01*
X154806104Y-94510476D02*
X154844200Y-94548571D01*
X154844200Y-94548571D02*
X154882295Y-94624761D01*
X154882295Y-94624761D02*
X154882295Y-94777142D01*
X154882295Y-94777142D02*
X154844200Y-94853333D01*
X154844200Y-94853333D02*
X154806104Y-94891428D01*
X154806104Y-94891428D02*
X154729914Y-94929523D01*
X154729914Y-94929523D02*
X154577533Y-94929523D01*
X154577533Y-94929523D02*
X154501342Y-94891428D01*
X154501342Y-94891428D02*
X154463247Y-94853333D01*
X154463247Y-94853333D02*
X154425152Y-94777142D01*
X154822295Y-97956714D02*
X154441342Y-97690047D01*
X154822295Y-97499571D02*
X154022295Y-97499571D01*
X154022295Y-97499571D02*
X154022295Y-97804333D01*
X154022295Y-97804333D02*
X154060390Y-97880523D01*
X154060390Y-97880523D02*
X154098485Y-97918618D01*
X154098485Y-97918618D02*
X154174676Y-97956714D01*
X154174676Y-97956714D02*
X154288961Y-97956714D01*
X154288961Y-97956714D02*
X154365152Y-97918618D01*
X154365152Y-97918618D02*
X154403247Y-97880523D01*
X154403247Y-97880523D02*
X154441342Y-97804333D01*
X154441342Y-97804333D02*
X154441342Y-97499571D01*
X154288961Y-98642428D02*
X154822295Y-98642428D01*
X153984200Y-98451952D02*
X154555628Y-98261475D01*
X154555628Y-98261475D02*
X154555628Y-98756714D01*
X154022295Y-99404333D02*
X154022295Y-99251952D01*
X154022295Y-99251952D02*
X154060390Y-99175761D01*
X154060390Y-99175761D02*
X154098485Y-99137666D01*
X154098485Y-99137666D02*
X154212771Y-99061476D01*
X154212771Y-99061476D02*
X154365152Y-99023380D01*
X154365152Y-99023380D02*
X154669914Y-99023380D01*
X154669914Y-99023380D02*
X154746104Y-99061476D01*
X154746104Y-99061476D02*
X154784200Y-99099571D01*
X154784200Y-99099571D02*
X154822295Y-99175761D01*
X154822295Y-99175761D02*
X154822295Y-99328142D01*
X154822295Y-99328142D02*
X154784200Y-99404333D01*
X154784200Y-99404333D02*
X154746104Y-99442428D01*
X154746104Y-99442428D02*
X154669914Y-99480523D01*
X154669914Y-99480523D02*
X154479438Y-99480523D01*
X154479438Y-99480523D02*
X154403247Y-99442428D01*
X154403247Y-99442428D02*
X154365152Y-99404333D01*
X154365152Y-99404333D02*
X154327057Y-99328142D01*
X154327057Y-99328142D02*
X154327057Y-99175761D01*
X154327057Y-99175761D02*
X154365152Y-99099571D01*
X154365152Y-99099571D02*
X154403247Y-99061476D01*
X154403247Y-99061476D02*
X154479438Y-99023380D01*
X167194285Y-89572295D02*
X167460952Y-89191342D01*
X167651428Y-89572295D02*
X167651428Y-88772295D01*
X167651428Y-88772295D02*
X167346666Y-88772295D01*
X167346666Y-88772295D02*
X167270476Y-88810390D01*
X167270476Y-88810390D02*
X167232381Y-88848485D01*
X167232381Y-88848485D02*
X167194285Y-88924676D01*
X167194285Y-88924676D02*
X167194285Y-89038961D01*
X167194285Y-89038961D02*
X167232381Y-89115152D01*
X167232381Y-89115152D02*
X167270476Y-89153247D01*
X167270476Y-89153247D02*
X167346666Y-89191342D01*
X167346666Y-89191342D02*
X167651428Y-89191342D01*
X166470476Y-88772295D02*
X166851428Y-88772295D01*
X166851428Y-88772295D02*
X166889524Y-89153247D01*
X166889524Y-89153247D02*
X166851428Y-89115152D01*
X166851428Y-89115152D02*
X166775238Y-89077057D01*
X166775238Y-89077057D02*
X166584762Y-89077057D01*
X166584762Y-89077057D02*
X166508571Y-89115152D01*
X166508571Y-89115152D02*
X166470476Y-89153247D01*
X166470476Y-89153247D02*
X166432381Y-89229438D01*
X166432381Y-89229438D02*
X166432381Y-89419914D01*
X166432381Y-89419914D02*
X166470476Y-89496104D01*
X166470476Y-89496104D02*
X166508571Y-89534200D01*
X166508571Y-89534200D02*
X166584762Y-89572295D01*
X166584762Y-89572295D02*
X166775238Y-89572295D01*
X166775238Y-89572295D02*
X166851428Y-89534200D01*
X166851428Y-89534200D02*
X166889524Y-89496104D01*
X166165714Y-88772295D02*
X165670476Y-88772295D01*
X165670476Y-88772295D02*
X165937142Y-89077057D01*
X165937142Y-89077057D02*
X165822857Y-89077057D01*
X165822857Y-89077057D02*
X165746666Y-89115152D01*
X165746666Y-89115152D02*
X165708571Y-89153247D01*
X165708571Y-89153247D02*
X165670476Y-89229438D01*
X165670476Y-89229438D02*
X165670476Y-89419914D01*
X165670476Y-89419914D02*
X165708571Y-89496104D01*
X165708571Y-89496104D02*
X165746666Y-89534200D01*
X165746666Y-89534200D02*
X165822857Y-89572295D01*
X165822857Y-89572295D02*
X166051428Y-89572295D01*
X166051428Y-89572295D02*
X166127619Y-89534200D01*
X166127619Y-89534200D02*
X166165714Y-89496104D01*
X168902295Y-87815714D02*
X168521342Y-87549047D01*
X168902295Y-87358571D02*
X168102295Y-87358571D01*
X168102295Y-87358571D02*
X168102295Y-87663333D01*
X168102295Y-87663333D02*
X168140390Y-87739523D01*
X168140390Y-87739523D02*
X168178485Y-87777618D01*
X168178485Y-87777618D02*
X168254676Y-87815714D01*
X168254676Y-87815714D02*
X168368961Y-87815714D01*
X168368961Y-87815714D02*
X168445152Y-87777618D01*
X168445152Y-87777618D02*
X168483247Y-87739523D01*
X168483247Y-87739523D02*
X168521342Y-87663333D01*
X168521342Y-87663333D02*
X168521342Y-87358571D01*
X168102295Y-88539523D02*
X168102295Y-88158571D01*
X168102295Y-88158571D02*
X168483247Y-88120475D01*
X168483247Y-88120475D02*
X168445152Y-88158571D01*
X168445152Y-88158571D02*
X168407057Y-88234761D01*
X168407057Y-88234761D02*
X168407057Y-88425237D01*
X168407057Y-88425237D02*
X168445152Y-88501428D01*
X168445152Y-88501428D02*
X168483247Y-88539523D01*
X168483247Y-88539523D02*
X168559438Y-88577618D01*
X168559438Y-88577618D02*
X168749914Y-88577618D01*
X168749914Y-88577618D02*
X168826104Y-88539523D01*
X168826104Y-88539523D02*
X168864200Y-88501428D01*
X168864200Y-88501428D02*
X168902295Y-88425237D01*
X168902295Y-88425237D02*
X168902295Y-88234761D01*
X168902295Y-88234761D02*
X168864200Y-88158571D01*
X168864200Y-88158571D02*
X168826104Y-88120475D01*
X168178485Y-88882380D02*
X168140390Y-88920476D01*
X168140390Y-88920476D02*
X168102295Y-88996666D01*
X168102295Y-88996666D02*
X168102295Y-89187142D01*
X168102295Y-89187142D02*
X168140390Y-89263333D01*
X168140390Y-89263333D02*
X168178485Y-89301428D01*
X168178485Y-89301428D02*
X168254676Y-89339523D01*
X168254676Y-89339523D02*
X168330866Y-89339523D01*
X168330866Y-89339523D02*
X168445152Y-89301428D01*
X168445152Y-89301428D02*
X168902295Y-88844285D01*
X168902295Y-88844285D02*
X168902295Y-89339523D01*
X158992295Y-93405714D02*
X158611342Y-93139047D01*
X158992295Y-92948571D02*
X158192295Y-92948571D01*
X158192295Y-92948571D02*
X158192295Y-93253333D01*
X158192295Y-93253333D02*
X158230390Y-93329523D01*
X158230390Y-93329523D02*
X158268485Y-93367618D01*
X158268485Y-93367618D02*
X158344676Y-93405714D01*
X158344676Y-93405714D02*
X158458961Y-93405714D01*
X158458961Y-93405714D02*
X158535152Y-93367618D01*
X158535152Y-93367618D02*
X158573247Y-93329523D01*
X158573247Y-93329523D02*
X158611342Y-93253333D01*
X158611342Y-93253333D02*
X158611342Y-92948571D01*
X158458961Y-94091428D02*
X158992295Y-94091428D01*
X158154200Y-93900952D02*
X158725628Y-93710475D01*
X158725628Y-93710475D02*
X158725628Y-94205714D01*
X158992295Y-94929523D02*
X158992295Y-94472380D01*
X158992295Y-94700952D02*
X158192295Y-94700952D01*
X158192295Y-94700952D02*
X158306580Y-94624761D01*
X158306580Y-94624761D02*
X158382771Y-94548571D01*
X158382771Y-94548571D02*
X158420866Y-94472380D01*
X158922295Y-97956714D02*
X158541342Y-97690047D01*
X158922295Y-97499571D02*
X158122295Y-97499571D01*
X158122295Y-97499571D02*
X158122295Y-97804333D01*
X158122295Y-97804333D02*
X158160390Y-97880523D01*
X158160390Y-97880523D02*
X158198485Y-97918618D01*
X158198485Y-97918618D02*
X158274676Y-97956714D01*
X158274676Y-97956714D02*
X158388961Y-97956714D01*
X158388961Y-97956714D02*
X158465152Y-97918618D01*
X158465152Y-97918618D02*
X158503247Y-97880523D01*
X158503247Y-97880523D02*
X158541342Y-97804333D01*
X158541342Y-97804333D02*
X158541342Y-97499571D01*
X158388961Y-98642428D02*
X158922295Y-98642428D01*
X158084200Y-98451952D02*
X158655628Y-98261475D01*
X158655628Y-98261475D02*
X158655628Y-98756714D01*
X158922295Y-99099571D02*
X158922295Y-99251952D01*
X158922295Y-99251952D02*
X158884200Y-99328142D01*
X158884200Y-99328142D02*
X158846104Y-99366238D01*
X158846104Y-99366238D02*
X158731819Y-99442428D01*
X158731819Y-99442428D02*
X158579438Y-99480523D01*
X158579438Y-99480523D02*
X158274676Y-99480523D01*
X158274676Y-99480523D02*
X158198485Y-99442428D01*
X158198485Y-99442428D02*
X158160390Y-99404333D01*
X158160390Y-99404333D02*
X158122295Y-99328142D01*
X158122295Y-99328142D02*
X158122295Y-99175761D01*
X158122295Y-99175761D02*
X158160390Y-99099571D01*
X158160390Y-99099571D02*
X158198485Y-99061476D01*
X158198485Y-99061476D02*
X158274676Y-99023380D01*
X158274676Y-99023380D02*
X158465152Y-99023380D01*
X158465152Y-99023380D02*
X158541342Y-99061476D01*
X158541342Y-99061476D02*
X158579438Y-99099571D01*
X158579438Y-99099571D02*
X158617533Y-99175761D01*
X158617533Y-99175761D02*
X158617533Y-99328142D01*
X158617533Y-99328142D02*
X158579438Y-99404333D01*
X158579438Y-99404333D02*
X158541342Y-99442428D01*
X158541342Y-99442428D02*
X158465152Y-99480523D01*
X156242295Y-93405714D02*
X155861342Y-93139047D01*
X156242295Y-92948571D02*
X155442295Y-92948571D01*
X155442295Y-92948571D02*
X155442295Y-93253333D01*
X155442295Y-93253333D02*
X155480390Y-93329523D01*
X155480390Y-93329523D02*
X155518485Y-93367618D01*
X155518485Y-93367618D02*
X155594676Y-93405714D01*
X155594676Y-93405714D02*
X155708961Y-93405714D01*
X155708961Y-93405714D02*
X155785152Y-93367618D01*
X155785152Y-93367618D02*
X155823247Y-93329523D01*
X155823247Y-93329523D02*
X155861342Y-93253333D01*
X155861342Y-93253333D02*
X155861342Y-92948571D01*
X155442295Y-93672380D02*
X155442295Y-94167618D01*
X155442295Y-94167618D02*
X155747057Y-93900952D01*
X155747057Y-93900952D02*
X155747057Y-94015237D01*
X155747057Y-94015237D02*
X155785152Y-94091428D01*
X155785152Y-94091428D02*
X155823247Y-94129523D01*
X155823247Y-94129523D02*
X155899438Y-94167618D01*
X155899438Y-94167618D02*
X156089914Y-94167618D01*
X156089914Y-94167618D02*
X156166104Y-94129523D01*
X156166104Y-94129523D02*
X156204200Y-94091428D01*
X156204200Y-94091428D02*
X156242295Y-94015237D01*
X156242295Y-94015237D02*
X156242295Y-93786666D01*
X156242295Y-93786666D02*
X156204200Y-93710475D01*
X156204200Y-93710475D02*
X156166104Y-93672380D01*
X156242295Y-94548571D02*
X156242295Y-94700952D01*
X156242295Y-94700952D02*
X156204200Y-94777142D01*
X156204200Y-94777142D02*
X156166104Y-94815238D01*
X156166104Y-94815238D02*
X156051819Y-94891428D01*
X156051819Y-94891428D02*
X155899438Y-94929523D01*
X155899438Y-94929523D02*
X155594676Y-94929523D01*
X155594676Y-94929523D02*
X155518485Y-94891428D01*
X155518485Y-94891428D02*
X155480390Y-94853333D01*
X155480390Y-94853333D02*
X155442295Y-94777142D01*
X155442295Y-94777142D02*
X155442295Y-94624761D01*
X155442295Y-94624761D02*
X155480390Y-94548571D01*
X155480390Y-94548571D02*
X155518485Y-94510476D01*
X155518485Y-94510476D02*
X155594676Y-94472380D01*
X155594676Y-94472380D02*
X155785152Y-94472380D01*
X155785152Y-94472380D02*
X155861342Y-94510476D01*
X155861342Y-94510476D02*
X155899438Y-94548571D01*
X155899438Y-94548571D02*
X155937533Y-94624761D01*
X155937533Y-94624761D02*
X155937533Y-94777142D01*
X155937533Y-94777142D02*
X155899438Y-94853333D01*
X155899438Y-94853333D02*
X155861342Y-94891428D01*
X155861342Y-94891428D02*
X155785152Y-94929523D01*
X162144285Y-83572295D02*
X162410952Y-83191342D01*
X162601428Y-83572295D02*
X162601428Y-82772295D01*
X162601428Y-82772295D02*
X162296666Y-82772295D01*
X162296666Y-82772295D02*
X162220476Y-82810390D01*
X162220476Y-82810390D02*
X162182381Y-82848485D01*
X162182381Y-82848485D02*
X162144285Y-82924676D01*
X162144285Y-82924676D02*
X162144285Y-83038961D01*
X162144285Y-83038961D02*
X162182381Y-83115152D01*
X162182381Y-83115152D02*
X162220476Y-83153247D01*
X162220476Y-83153247D02*
X162296666Y-83191342D01*
X162296666Y-83191342D02*
X162601428Y-83191342D01*
X161420476Y-82772295D02*
X161801428Y-82772295D01*
X161801428Y-82772295D02*
X161839524Y-83153247D01*
X161839524Y-83153247D02*
X161801428Y-83115152D01*
X161801428Y-83115152D02*
X161725238Y-83077057D01*
X161725238Y-83077057D02*
X161534762Y-83077057D01*
X161534762Y-83077057D02*
X161458571Y-83115152D01*
X161458571Y-83115152D02*
X161420476Y-83153247D01*
X161420476Y-83153247D02*
X161382381Y-83229438D01*
X161382381Y-83229438D02*
X161382381Y-83419914D01*
X161382381Y-83419914D02*
X161420476Y-83496104D01*
X161420476Y-83496104D02*
X161458571Y-83534200D01*
X161458571Y-83534200D02*
X161534762Y-83572295D01*
X161534762Y-83572295D02*
X161725238Y-83572295D01*
X161725238Y-83572295D02*
X161801428Y-83534200D01*
X161801428Y-83534200D02*
X161839524Y-83496104D01*
X160887142Y-82772295D02*
X160810952Y-82772295D01*
X160810952Y-82772295D02*
X160734761Y-82810390D01*
X160734761Y-82810390D02*
X160696666Y-82848485D01*
X160696666Y-82848485D02*
X160658571Y-82924676D01*
X160658571Y-82924676D02*
X160620476Y-83077057D01*
X160620476Y-83077057D02*
X160620476Y-83267533D01*
X160620476Y-83267533D02*
X160658571Y-83419914D01*
X160658571Y-83419914D02*
X160696666Y-83496104D01*
X160696666Y-83496104D02*
X160734761Y-83534200D01*
X160734761Y-83534200D02*
X160810952Y-83572295D01*
X160810952Y-83572295D02*
X160887142Y-83572295D01*
X160887142Y-83572295D02*
X160963333Y-83534200D01*
X160963333Y-83534200D02*
X161001428Y-83496104D01*
X161001428Y-83496104D02*
X161039523Y-83419914D01*
X161039523Y-83419914D02*
X161077619Y-83267533D01*
X161077619Y-83267533D02*
X161077619Y-83077057D01*
X161077619Y-83077057D02*
X161039523Y-82924676D01*
X161039523Y-82924676D02*
X161001428Y-82848485D01*
X161001428Y-82848485D02*
X160963333Y-82810390D01*
X160963333Y-82810390D02*
X160887142Y-82772295D01*
X157612295Y-93405714D02*
X157231342Y-93139047D01*
X157612295Y-92948571D02*
X156812295Y-92948571D01*
X156812295Y-92948571D02*
X156812295Y-93253333D01*
X156812295Y-93253333D02*
X156850390Y-93329523D01*
X156850390Y-93329523D02*
X156888485Y-93367618D01*
X156888485Y-93367618D02*
X156964676Y-93405714D01*
X156964676Y-93405714D02*
X157078961Y-93405714D01*
X157078961Y-93405714D02*
X157155152Y-93367618D01*
X157155152Y-93367618D02*
X157193247Y-93329523D01*
X157193247Y-93329523D02*
X157231342Y-93253333D01*
X157231342Y-93253333D02*
X157231342Y-92948571D01*
X157078961Y-94091428D02*
X157612295Y-94091428D01*
X156774200Y-93900952D02*
X157345628Y-93710475D01*
X157345628Y-93710475D02*
X157345628Y-94205714D01*
X156812295Y-94662857D02*
X156812295Y-94739047D01*
X156812295Y-94739047D02*
X156850390Y-94815238D01*
X156850390Y-94815238D02*
X156888485Y-94853333D01*
X156888485Y-94853333D02*
X156964676Y-94891428D01*
X156964676Y-94891428D02*
X157117057Y-94929523D01*
X157117057Y-94929523D02*
X157307533Y-94929523D01*
X157307533Y-94929523D02*
X157459914Y-94891428D01*
X157459914Y-94891428D02*
X157536104Y-94853333D01*
X157536104Y-94853333D02*
X157574200Y-94815238D01*
X157574200Y-94815238D02*
X157612295Y-94739047D01*
X157612295Y-94739047D02*
X157612295Y-94662857D01*
X157612295Y-94662857D02*
X157574200Y-94586666D01*
X157574200Y-94586666D02*
X157536104Y-94548571D01*
X157536104Y-94548571D02*
X157459914Y-94510476D01*
X157459914Y-94510476D02*
X157307533Y-94472380D01*
X157307533Y-94472380D02*
X157117057Y-94472380D01*
X157117057Y-94472380D02*
X156964676Y-94510476D01*
X156964676Y-94510476D02*
X156888485Y-94548571D01*
X156888485Y-94548571D02*
X156850390Y-94586666D01*
X156850390Y-94586666D02*
X156812295Y-94662857D01*
X156172295Y-97956714D02*
X155791342Y-97690047D01*
X156172295Y-97499571D02*
X155372295Y-97499571D01*
X155372295Y-97499571D02*
X155372295Y-97804333D01*
X155372295Y-97804333D02*
X155410390Y-97880523D01*
X155410390Y-97880523D02*
X155448485Y-97918618D01*
X155448485Y-97918618D02*
X155524676Y-97956714D01*
X155524676Y-97956714D02*
X155638961Y-97956714D01*
X155638961Y-97956714D02*
X155715152Y-97918618D01*
X155715152Y-97918618D02*
X155753247Y-97880523D01*
X155753247Y-97880523D02*
X155791342Y-97804333D01*
X155791342Y-97804333D02*
X155791342Y-97499571D01*
X155638961Y-98642428D02*
X156172295Y-98642428D01*
X155334200Y-98451952D02*
X155905628Y-98261475D01*
X155905628Y-98261475D02*
X155905628Y-98756714D01*
X155372295Y-98985285D02*
X155372295Y-99518619D01*
X155372295Y-99518619D02*
X156172295Y-99175761D01*
X152754285Y-89572295D02*
X153020952Y-89191342D01*
X153211428Y-89572295D02*
X153211428Y-88772295D01*
X153211428Y-88772295D02*
X152906666Y-88772295D01*
X152906666Y-88772295D02*
X152830476Y-88810390D01*
X152830476Y-88810390D02*
X152792381Y-88848485D01*
X152792381Y-88848485D02*
X152754285Y-88924676D01*
X152754285Y-88924676D02*
X152754285Y-89038961D01*
X152754285Y-89038961D02*
X152792381Y-89115152D01*
X152792381Y-89115152D02*
X152830476Y-89153247D01*
X152830476Y-89153247D02*
X152906666Y-89191342D01*
X152906666Y-89191342D02*
X153211428Y-89191342D01*
X152068571Y-88772295D02*
X152220952Y-88772295D01*
X152220952Y-88772295D02*
X152297143Y-88810390D01*
X152297143Y-88810390D02*
X152335238Y-88848485D01*
X152335238Y-88848485D02*
X152411428Y-88962771D01*
X152411428Y-88962771D02*
X152449524Y-89115152D01*
X152449524Y-89115152D02*
X152449524Y-89419914D01*
X152449524Y-89419914D02*
X152411428Y-89496104D01*
X152411428Y-89496104D02*
X152373333Y-89534200D01*
X152373333Y-89534200D02*
X152297143Y-89572295D01*
X152297143Y-89572295D02*
X152144762Y-89572295D01*
X152144762Y-89572295D02*
X152068571Y-89534200D01*
X152068571Y-89534200D02*
X152030476Y-89496104D01*
X152030476Y-89496104D02*
X151992381Y-89419914D01*
X151992381Y-89419914D02*
X151992381Y-89229438D01*
X151992381Y-89229438D02*
X152030476Y-89153247D01*
X152030476Y-89153247D02*
X152068571Y-89115152D01*
X152068571Y-89115152D02*
X152144762Y-89077057D01*
X152144762Y-89077057D02*
X152297143Y-89077057D01*
X152297143Y-89077057D02*
X152373333Y-89115152D01*
X152373333Y-89115152D02*
X152411428Y-89153247D01*
X152411428Y-89153247D02*
X152449524Y-89229438D01*
X151268571Y-88772295D02*
X151649523Y-88772295D01*
X151649523Y-88772295D02*
X151687619Y-89153247D01*
X151687619Y-89153247D02*
X151649523Y-89115152D01*
X151649523Y-89115152D02*
X151573333Y-89077057D01*
X151573333Y-89077057D02*
X151382857Y-89077057D01*
X151382857Y-89077057D02*
X151306666Y-89115152D01*
X151306666Y-89115152D02*
X151268571Y-89153247D01*
X151268571Y-89153247D02*
X151230476Y-89229438D01*
X151230476Y-89229438D02*
X151230476Y-89419914D01*
X151230476Y-89419914D02*
X151268571Y-89496104D01*
X151268571Y-89496104D02*
X151306666Y-89534200D01*
X151306666Y-89534200D02*
X151382857Y-89572295D01*
X151382857Y-89572295D02*
X151573333Y-89572295D01*
X151573333Y-89572295D02*
X151649523Y-89534200D01*
X151649523Y-89534200D02*
X151687619Y-89496104D01*
X162144285Y-84932295D02*
X162410952Y-84551342D01*
X162601428Y-84932295D02*
X162601428Y-84132295D01*
X162601428Y-84132295D02*
X162296666Y-84132295D01*
X162296666Y-84132295D02*
X162220476Y-84170390D01*
X162220476Y-84170390D02*
X162182381Y-84208485D01*
X162182381Y-84208485D02*
X162144285Y-84284676D01*
X162144285Y-84284676D02*
X162144285Y-84398961D01*
X162144285Y-84398961D02*
X162182381Y-84475152D01*
X162182381Y-84475152D02*
X162220476Y-84513247D01*
X162220476Y-84513247D02*
X162296666Y-84551342D01*
X162296666Y-84551342D02*
X162601428Y-84551342D01*
X161420476Y-84132295D02*
X161801428Y-84132295D01*
X161801428Y-84132295D02*
X161839524Y-84513247D01*
X161839524Y-84513247D02*
X161801428Y-84475152D01*
X161801428Y-84475152D02*
X161725238Y-84437057D01*
X161725238Y-84437057D02*
X161534762Y-84437057D01*
X161534762Y-84437057D02*
X161458571Y-84475152D01*
X161458571Y-84475152D02*
X161420476Y-84513247D01*
X161420476Y-84513247D02*
X161382381Y-84589438D01*
X161382381Y-84589438D02*
X161382381Y-84779914D01*
X161382381Y-84779914D02*
X161420476Y-84856104D01*
X161420476Y-84856104D02*
X161458571Y-84894200D01*
X161458571Y-84894200D02*
X161534762Y-84932295D01*
X161534762Y-84932295D02*
X161725238Y-84932295D01*
X161725238Y-84932295D02*
X161801428Y-84894200D01*
X161801428Y-84894200D02*
X161839524Y-84856104D01*
X160620476Y-84932295D02*
X161077619Y-84932295D01*
X160849047Y-84932295D02*
X160849047Y-84132295D01*
X160849047Y-84132295D02*
X160925238Y-84246580D01*
X160925238Y-84246580D02*
X161001428Y-84322771D01*
X161001428Y-84322771D02*
X161077619Y-84360866D01*
X167194285Y-90932295D02*
X167460952Y-90551342D01*
X167651428Y-90932295D02*
X167651428Y-90132295D01*
X167651428Y-90132295D02*
X167346666Y-90132295D01*
X167346666Y-90132295D02*
X167270476Y-90170390D01*
X167270476Y-90170390D02*
X167232381Y-90208485D01*
X167232381Y-90208485D02*
X167194285Y-90284676D01*
X167194285Y-90284676D02*
X167194285Y-90398961D01*
X167194285Y-90398961D02*
X167232381Y-90475152D01*
X167232381Y-90475152D02*
X167270476Y-90513247D01*
X167270476Y-90513247D02*
X167346666Y-90551342D01*
X167346666Y-90551342D02*
X167651428Y-90551342D01*
X166470476Y-90132295D02*
X166851428Y-90132295D01*
X166851428Y-90132295D02*
X166889524Y-90513247D01*
X166889524Y-90513247D02*
X166851428Y-90475152D01*
X166851428Y-90475152D02*
X166775238Y-90437057D01*
X166775238Y-90437057D02*
X166584762Y-90437057D01*
X166584762Y-90437057D02*
X166508571Y-90475152D01*
X166508571Y-90475152D02*
X166470476Y-90513247D01*
X166470476Y-90513247D02*
X166432381Y-90589438D01*
X166432381Y-90589438D02*
X166432381Y-90779914D01*
X166432381Y-90779914D02*
X166470476Y-90856104D01*
X166470476Y-90856104D02*
X166508571Y-90894200D01*
X166508571Y-90894200D02*
X166584762Y-90932295D01*
X166584762Y-90932295D02*
X166775238Y-90932295D01*
X166775238Y-90932295D02*
X166851428Y-90894200D01*
X166851428Y-90894200D02*
X166889524Y-90856104D01*
X165746666Y-90132295D02*
X165899047Y-90132295D01*
X165899047Y-90132295D02*
X165975238Y-90170390D01*
X165975238Y-90170390D02*
X166013333Y-90208485D01*
X166013333Y-90208485D02*
X166089523Y-90322771D01*
X166089523Y-90322771D02*
X166127619Y-90475152D01*
X166127619Y-90475152D02*
X166127619Y-90779914D01*
X166127619Y-90779914D02*
X166089523Y-90856104D01*
X166089523Y-90856104D02*
X166051428Y-90894200D01*
X166051428Y-90894200D02*
X165975238Y-90932295D01*
X165975238Y-90932295D02*
X165822857Y-90932295D01*
X165822857Y-90932295D02*
X165746666Y-90894200D01*
X165746666Y-90894200D02*
X165708571Y-90856104D01*
X165708571Y-90856104D02*
X165670476Y-90779914D01*
X165670476Y-90779914D02*
X165670476Y-90589438D01*
X165670476Y-90589438D02*
X165708571Y-90513247D01*
X165708571Y-90513247D02*
X165746666Y-90475152D01*
X165746666Y-90475152D02*
X165822857Y-90437057D01*
X165822857Y-90437057D02*
X165975238Y-90437057D01*
X165975238Y-90437057D02*
X166051428Y-90475152D01*
X166051428Y-90475152D02*
X166089523Y-90513247D01*
X166089523Y-90513247D02*
X166127619Y-90589438D01*
X152754285Y-90932295D02*
X153020952Y-90551342D01*
X153211428Y-90932295D02*
X153211428Y-90132295D01*
X153211428Y-90132295D02*
X152906666Y-90132295D01*
X152906666Y-90132295D02*
X152830476Y-90170390D01*
X152830476Y-90170390D02*
X152792381Y-90208485D01*
X152792381Y-90208485D02*
X152754285Y-90284676D01*
X152754285Y-90284676D02*
X152754285Y-90398961D01*
X152754285Y-90398961D02*
X152792381Y-90475152D01*
X152792381Y-90475152D02*
X152830476Y-90513247D01*
X152830476Y-90513247D02*
X152906666Y-90551342D01*
X152906666Y-90551342D02*
X153211428Y-90551342D01*
X152068571Y-90132295D02*
X152220952Y-90132295D01*
X152220952Y-90132295D02*
X152297143Y-90170390D01*
X152297143Y-90170390D02*
X152335238Y-90208485D01*
X152335238Y-90208485D02*
X152411428Y-90322771D01*
X152411428Y-90322771D02*
X152449524Y-90475152D01*
X152449524Y-90475152D02*
X152449524Y-90779914D01*
X152449524Y-90779914D02*
X152411428Y-90856104D01*
X152411428Y-90856104D02*
X152373333Y-90894200D01*
X152373333Y-90894200D02*
X152297143Y-90932295D01*
X152297143Y-90932295D02*
X152144762Y-90932295D01*
X152144762Y-90932295D02*
X152068571Y-90894200D01*
X152068571Y-90894200D02*
X152030476Y-90856104D01*
X152030476Y-90856104D02*
X151992381Y-90779914D01*
X151992381Y-90779914D02*
X151992381Y-90589438D01*
X151992381Y-90589438D02*
X152030476Y-90513247D01*
X152030476Y-90513247D02*
X152068571Y-90475152D01*
X152068571Y-90475152D02*
X152144762Y-90437057D01*
X152144762Y-90437057D02*
X152297143Y-90437057D01*
X152297143Y-90437057D02*
X152373333Y-90475152D01*
X152373333Y-90475152D02*
X152411428Y-90513247D01*
X152411428Y-90513247D02*
X152449524Y-90589438D01*
X151725714Y-90132295D02*
X151192380Y-90132295D01*
X151192380Y-90132295D02*
X151535238Y-90932295D01*
X152754285Y-86362295D02*
X153020952Y-85981342D01*
X153211428Y-86362295D02*
X153211428Y-85562295D01*
X153211428Y-85562295D02*
X152906666Y-85562295D01*
X152906666Y-85562295D02*
X152830476Y-85600390D01*
X152830476Y-85600390D02*
X152792381Y-85638485D01*
X152792381Y-85638485D02*
X152754285Y-85714676D01*
X152754285Y-85714676D02*
X152754285Y-85828961D01*
X152754285Y-85828961D02*
X152792381Y-85905152D01*
X152792381Y-85905152D02*
X152830476Y-85943247D01*
X152830476Y-85943247D02*
X152906666Y-85981342D01*
X152906666Y-85981342D02*
X153211428Y-85981342D01*
X152030476Y-85562295D02*
X152411428Y-85562295D01*
X152411428Y-85562295D02*
X152449524Y-85943247D01*
X152449524Y-85943247D02*
X152411428Y-85905152D01*
X152411428Y-85905152D02*
X152335238Y-85867057D01*
X152335238Y-85867057D02*
X152144762Y-85867057D01*
X152144762Y-85867057D02*
X152068571Y-85905152D01*
X152068571Y-85905152D02*
X152030476Y-85943247D01*
X152030476Y-85943247D02*
X151992381Y-86019438D01*
X151992381Y-86019438D02*
X151992381Y-86209914D01*
X151992381Y-86209914D02*
X152030476Y-86286104D01*
X152030476Y-86286104D02*
X152068571Y-86324200D01*
X152068571Y-86324200D02*
X152144762Y-86362295D01*
X152144762Y-86362295D02*
X152335238Y-86362295D01*
X152335238Y-86362295D02*
X152411428Y-86324200D01*
X152411428Y-86324200D02*
X152449524Y-86286104D01*
X151725714Y-85562295D02*
X151192380Y-85562295D01*
X151192380Y-85562295D02*
X151535238Y-86362295D01*
X150792295Y-87755714D02*
X150411342Y-87489047D01*
X150792295Y-87298571D02*
X149992295Y-87298571D01*
X149992295Y-87298571D02*
X149992295Y-87603333D01*
X149992295Y-87603333D02*
X150030390Y-87679523D01*
X150030390Y-87679523D02*
X150068485Y-87717618D01*
X150068485Y-87717618D02*
X150144676Y-87755714D01*
X150144676Y-87755714D02*
X150258961Y-87755714D01*
X150258961Y-87755714D02*
X150335152Y-87717618D01*
X150335152Y-87717618D02*
X150373247Y-87679523D01*
X150373247Y-87679523D02*
X150411342Y-87603333D01*
X150411342Y-87603333D02*
X150411342Y-87298571D01*
X149992295Y-88441428D02*
X149992295Y-88289047D01*
X149992295Y-88289047D02*
X150030390Y-88212856D01*
X150030390Y-88212856D02*
X150068485Y-88174761D01*
X150068485Y-88174761D02*
X150182771Y-88098571D01*
X150182771Y-88098571D02*
X150335152Y-88060475D01*
X150335152Y-88060475D02*
X150639914Y-88060475D01*
X150639914Y-88060475D02*
X150716104Y-88098571D01*
X150716104Y-88098571D02*
X150754200Y-88136666D01*
X150754200Y-88136666D02*
X150792295Y-88212856D01*
X150792295Y-88212856D02*
X150792295Y-88365237D01*
X150792295Y-88365237D02*
X150754200Y-88441428D01*
X150754200Y-88441428D02*
X150716104Y-88479523D01*
X150716104Y-88479523D02*
X150639914Y-88517618D01*
X150639914Y-88517618D02*
X150449438Y-88517618D01*
X150449438Y-88517618D02*
X150373247Y-88479523D01*
X150373247Y-88479523D02*
X150335152Y-88441428D01*
X150335152Y-88441428D02*
X150297057Y-88365237D01*
X150297057Y-88365237D02*
X150297057Y-88212856D01*
X150297057Y-88212856D02*
X150335152Y-88136666D01*
X150335152Y-88136666D02*
X150373247Y-88098571D01*
X150373247Y-88098571D02*
X150449438Y-88060475D01*
X150792295Y-89279523D02*
X150792295Y-88822380D01*
X150792295Y-89050952D02*
X149992295Y-89050952D01*
X149992295Y-89050952D02*
X150106580Y-88974761D01*
X150106580Y-88974761D02*
X150182771Y-88898571D01*
X150182771Y-88898571D02*
X150220866Y-88822380D01*
D12*
%TO.C,R58*%
X153839000Y-88031000D02*
X153839000Y-86671000D01*
X153849000Y-86671000D02*
X157059000Y-86671000D01*
X157059000Y-88031000D02*
X153849000Y-88031000D01*
X157069000Y-88021000D02*
X157069000Y-86671000D01*
D13*
%TO.C,G\u002A\u002A\u002A*%
G36*
X164402996Y-112093570D02*
G01*
X164360663Y-112135903D01*
X164318329Y-112093570D01*
X164360663Y-112051236D01*
X164402996Y-112093570D01*
G37*
G36*
X165926996Y-127672236D02*
G01*
X165884663Y-127714570D01*
X165842329Y-127672236D01*
X165884663Y-127629903D01*
X165926996Y-127672236D01*
G37*
G36*
X172784996Y-107775570D02*
G01*
X172742663Y-107817903D01*
X172700329Y-107775570D01*
X172742663Y-107733236D01*
X172784996Y-107775570D01*
G37*
G36*
X172954329Y-107690903D02*
G01*
X172911996Y-107733236D01*
X172869663Y-107690903D01*
X172911996Y-107648570D01*
X172954329Y-107690903D01*
G37*
G36*
X175324996Y-108622236D02*
G01*
X175282663Y-108664570D01*
X175240329Y-108622236D01*
X175282663Y-108579903D01*
X175324996Y-108622236D01*
G37*
G36*
X175324996Y-108960903D02*
G01*
X175282663Y-109003236D01*
X175240329Y-108960903D01*
X175282663Y-108918570D01*
X175324996Y-108960903D01*
G37*
G36*
X177526329Y-119882903D02*
G01*
X177483996Y-119925236D01*
X177441663Y-119882903D01*
X177483996Y-119840570D01*
X177526329Y-119882903D01*
G37*
G36*
X177610996Y-119713570D02*
G01*
X177568663Y-119755903D01*
X177526329Y-119713570D01*
X177568663Y-119671236D01*
X177610996Y-119713570D01*
G37*
G36*
X178118996Y-110908236D02*
G01*
X178076663Y-110950570D01*
X178034329Y-110908236D01*
X178076663Y-110865903D01*
X178118996Y-110908236D01*
G37*
G36*
X178457663Y-108960903D02*
G01*
X178415329Y-109003236D01*
X178372996Y-108960903D01*
X178415329Y-108918570D01*
X178457663Y-108960903D01*
G37*
G36*
X179134996Y-118020236D02*
G01*
X179092663Y-118062570D01*
X179050329Y-118020236D01*
X179092663Y-117977903D01*
X179134996Y-118020236D01*
G37*
G36*
X181336329Y-112008903D02*
G01*
X181293996Y-112051236D01*
X181251663Y-112008903D01*
X181293996Y-111966570D01*
X181336329Y-112008903D01*
G37*
G36*
X181759663Y-112601570D02*
G01*
X181717329Y-112643903D01*
X181674996Y-112601570D01*
X181717329Y-112559236D01*
X181759663Y-112601570D01*
G37*
G36*
X182013663Y-112686236D02*
G01*
X181971329Y-112728570D01*
X181928996Y-112686236D01*
X181971329Y-112643903D01*
X182013663Y-112686236D01*
G37*
G36*
X184130329Y-115226236D02*
G01*
X184087996Y-115268570D01*
X184045663Y-115226236D01*
X184087996Y-115183903D01*
X184130329Y-115226236D01*
G37*
G36*
X186331663Y-117512236D02*
G01*
X186289329Y-117554570D01*
X186246996Y-117512236D01*
X186289329Y-117469903D01*
X186331663Y-117512236D01*
G37*
G36*
X187601663Y-119882903D02*
G01*
X187559329Y-119925236D01*
X187516996Y-119882903D01*
X187559329Y-119840570D01*
X187601663Y-119882903D01*
G37*
G36*
X187940329Y-121576236D02*
G01*
X187897996Y-121618570D01*
X187855663Y-121576236D01*
X187897996Y-121533903D01*
X187940329Y-121576236D01*
G37*
G36*
X188448329Y-121406903D02*
G01*
X188405996Y-121449236D01*
X188363663Y-121406903D01*
X188405996Y-121364570D01*
X188448329Y-121406903D01*
G37*
G36*
X188786996Y-123184903D02*
G01*
X188744663Y-123227236D01*
X188702329Y-123184903D01*
X188744663Y-123142570D01*
X188786996Y-123184903D01*
G37*
G36*
X188956329Y-123269570D02*
G01*
X188913996Y-123311903D01*
X188871663Y-123269570D01*
X188913996Y-123227236D01*
X188956329Y-123269570D01*
G37*
G36*
X189294996Y-123184903D02*
G01*
X189252663Y-123227236D01*
X189210329Y-123184903D01*
X189252663Y-123142570D01*
X189294996Y-123184903D01*
G37*
G36*
X177610996Y-101721903D02*
G01*
X177604886Y-101766725D01*
X177554552Y-101778347D01*
X177544419Y-101765938D01*
X177554552Y-101665458D01*
X177580018Y-101652213D01*
X177610996Y-101721903D01*
G37*
G36*
X180166871Y-112416733D02*
G01*
X180206061Y-112447208D01*
X180115718Y-112467885D01*
X180029844Y-112461899D01*
X180004593Y-112423417D01*
X180034547Y-112406639D01*
X180166871Y-112416733D01*
G37*
G36*
X180292107Y-112756792D02*
G01*
X180305353Y-112782258D01*
X180235663Y-112813236D01*
X180190841Y-112807126D01*
X180179218Y-112756792D01*
X180191628Y-112746659D01*
X180292107Y-112756792D01*
G37*
G36*
X181477441Y-110894125D02*
G01*
X181490686Y-110919591D01*
X181420996Y-110950570D01*
X181376174Y-110944459D01*
X181364552Y-110894125D01*
X181376961Y-110883992D01*
X181477441Y-110894125D01*
G37*
G36*
X182690996Y-103499903D02*
G01*
X182684886Y-103544725D01*
X182634552Y-103556347D01*
X182624419Y-103543938D01*
X182634552Y-103443458D01*
X182660018Y-103430213D01*
X182690996Y-103499903D01*
G37*
G36*
X186670329Y-107902570D02*
G01*
X186664219Y-107947392D01*
X186613885Y-107959014D01*
X186603752Y-107946605D01*
X186613885Y-107846125D01*
X186639351Y-107832879D01*
X186670329Y-107902570D01*
G37*
G36*
X186924329Y-105616570D02*
G01*
X186918219Y-105661392D01*
X186867885Y-105673014D01*
X186857752Y-105660605D01*
X186867885Y-105560125D01*
X186893351Y-105546879D01*
X186924329Y-105616570D01*
G37*
G36*
X170611763Y-100772347D02*
G01*
X170622380Y-100881086D01*
X170600211Y-100913564D01*
X170526899Y-100950235D01*
X170498996Y-100827906D01*
X170511414Y-100767485D01*
X170585044Y-100749090D01*
X170611763Y-100772347D01*
G37*
G36*
X170972748Y-118811488D02*
G01*
X170961499Y-118828723D01*
X170877844Y-118906699D01*
X170837663Y-118871900D01*
X170845231Y-118852856D01*
X170935411Y-118774151D01*
X170982727Y-118753551D01*
X170972748Y-118811488D01*
G37*
G36*
X173061574Y-107892063D02*
G01*
X173072513Y-107903214D01*
X173113093Y-107965237D01*
X173014178Y-107939459D01*
X172935164Y-107897236D01*
X172909756Y-107834254D01*
X172950566Y-107825187D01*
X173061574Y-107892063D01*
G37*
G36*
X187240744Y-116890867D02*
G01*
X187241554Y-116902370D01*
X187229087Y-117012342D01*
X187157085Y-116974525D01*
X187114241Y-116914819D01*
X187143455Y-116793578D01*
X187203598Y-116772142D01*
X187240744Y-116890867D01*
G37*
G36*
X171102463Y-118930403D02*
G01*
X171076068Y-118963183D01*
X170963514Y-119071946D01*
X170922329Y-119046603D01*
X170953236Y-119002881D01*
X171070496Y-118898436D01*
X171131842Y-118851140D01*
X171175686Y-118830116D01*
X171102463Y-118930403D01*
G37*
G36*
X172677551Y-107928563D02*
G01*
X172692109Y-107932753D01*
X172704644Y-107958522D01*
X172573329Y-107970731D01*
X172553279Y-107970847D01*
X172420737Y-107959495D01*
X172423551Y-107931700D01*
X172493121Y-107916168D01*
X172677551Y-107928563D01*
G37*
G36*
X172799981Y-108169592D02*
G01*
X172954329Y-108241236D01*
X173011808Y-108288372D01*
X172996663Y-108323310D01*
X172939345Y-108312880D01*
X172784996Y-108241236D01*
X172727518Y-108194100D01*
X172742663Y-108159162D01*
X172799981Y-108169592D01*
G37*
G36*
X173038996Y-108071903D02*
G01*
X173143427Y-108136861D01*
X173208329Y-108204861D01*
X173169901Y-108211072D01*
X173038996Y-108156570D01*
X172934566Y-108091611D01*
X172869663Y-108023612D01*
X172908091Y-108017401D01*
X173038996Y-108071903D01*
G37*
G36*
X178335555Y-111293046D02*
G01*
X178415329Y-111373903D01*
X178431100Y-111403879D01*
X178425323Y-111458570D01*
X178410437Y-111454760D01*
X178330663Y-111373903D01*
X178314893Y-111343926D01*
X178320669Y-111289236D01*
X178335555Y-111293046D01*
G37*
G36*
X178843647Y-118184899D02*
G01*
X178755242Y-118253524D01*
X178653597Y-118312552D01*
X178626996Y-118277215D01*
X178673175Y-118229220D01*
X178817496Y-118145544D01*
X178922158Y-118095980D01*
X178952729Y-118093755D01*
X178843647Y-118184899D01*
G37*
G36*
X188402711Y-108140577D02*
G01*
X188388275Y-108299219D01*
X188334579Y-108368507D01*
X188225731Y-108316830D01*
X188154794Y-108224811D01*
X188206978Y-108098995D01*
X188231912Y-108073412D01*
X188336936Y-108050230D01*
X188402711Y-108140577D01*
G37*
G36*
X175892339Y-107830657D02*
G01*
X176086996Y-107906438D01*
X176121295Y-107932048D01*
X176115702Y-107961315D01*
X175959996Y-107935564D01*
X175905042Y-107922894D01*
X175714888Y-107867753D01*
X175676639Y-107831413D01*
X175797718Y-107819199D01*
X175892339Y-107830657D01*
G37*
G36*
X178619478Y-104464511D02*
G01*
X178669831Y-104551803D01*
X178671622Y-104681527D01*
X178571489Y-104766878D01*
X178464114Y-104741660D01*
X178404752Y-104628702D01*
X178438273Y-104468890D01*
X178456172Y-104438039D01*
X178525368Y-104379725D01*
X178619478Y-104464511D01*
G37*
G36*
X181915876Y-114529201D02*
G01*
X182098329Y-114591236D01*
X182119915Y-114605319D01*
X182182600Y-114660439D01*
X182098329Y-114666167D01*
X181970815Y-114646443D01*
X181759663Y-114591236D01*
X181547996Y-114523449D01*
X181759663Y-114516306D01*
X181915876Y-114529201D01*
G37*
G36*
X175145954Y-109422098D02*
G01*
X175282217Y-109514886D01*
X175373039Y-109605140D01*
X175377945Y-109614324D01*
X175342211Y-109625964D01*
X175208421Y-109552614D01*
X175201076Y-109547783D01*
X175049158Y-109437419D01*
X174986329Y-109371520D01*
X175026991Y-109364678D01*
X175145954Y-109422098D01*
G37*
G36*
X190965625Y-113916233D02*
G01*
X191034812Y-114075697D01*
X190973985Y-114244075D01*
X190916519Y-114331083D01*
X190849009Y-114361753D01*
X190757034Y-114250239D01*
X190687847Y-114090776D01*
X190748674Y-113922397D01*
X190806140Y-113835389D01*
X190873650Y-113804720D01*
X190965625Y-113916233D01*
G37*
G36*
X179213891Y-109088981D02*
G01*
X179332873Y-109155063D01*
X179418679Y-109272791D01*
X179416484Y-109370860D01*
X179409034Y-109377674D01*
X179276107Y-109426570D01*
X179252337Y-109423735D01*
X179247150Y-109370860D01*
X179262271Y-109324984D01*
X179208561Y-109201526D01*
X179166905Y-109135934D01*
X179198929Y-109087903D01*
X179213891Y-109088981D01*
G37*
G36*
X163377012Y-112464585D02*
G01*
X163456273Y-112549788D01*
X163487035Y-112646362D01*
X163398179Y-112753766D01*
X163389369Y-112762060D01*
X163269903Y-112866709D01*
X163188842Y-112865680D01*
X163059434Y-112760766D01*
X162965220Y-112672771D01*
X162950622Y-112587900D01*
X163058466Y-112464433D01*
X163159921Y-112370861D01*
X163252245Y-112356564D01*
X163377012Y-112464585D01*
G37*
G36*
X181712437Y-111291003D02*
G01*
X181962646Y-111411268D01*
X182151592Y-111559727D01*
X182206592Y-111624897D01*
X182224894Y-111670443D01*
X182136084Y-111634773D01*
X181921558Y-111514206D01*
X181774580Y-111434671D01*
X181535060Y-111327443D01*
X181371224Y-111282552D01*
X181294275Y-111269525D01*
X181314425Y-111233409D01*
X181468764Y-111225357D01*
X181712437Y-111291003D01*
G37*
G36*
X181532561Y-111432660D02*
G01*
X181770060Y-111575460D01*
X182001276Y-111766982D01*
X182169153Y-111966570D01*
X182187435Y-111997035D01*
X182214463Y-112067406D01*
X182143951Y-112025096D01*
X181966162Y-111865243D01*
X181839055Y-111752935D01*
X181605130Y-111574869D01*
X181420996Y-111468443D01*
X181415954Y-111466434D01*
X181305916Y-111405930D01*
X181344975Y-111379270D01*
X181345833Y-111379238D01*
X181532561Y-111432660D01*
G37*
G36*
X170966778Y-101982566D02*
G01*
X171012784Y-102075348D01*
X171110491Y-102145236D01*
X171135768Y-102185746D01*
X171062452Y-102300070D01*
X170974575Y-102421875D01*
X170916963Y-102575236D01*
X170894101Y-102608279D01*
X170837699Y-102512300D01*
X170772257Y-102390383D01*
X170651404Y-102258300D01*
X170617730Y-102231894D01*
X170608437Y-102145234D01*
X170727076Y-102003732D01*
X170856619Y-101885974D01*
X170922264Y-101878137D01*
X170966778Y-101982566D01*
G37*
G36*
X170619202Y-109468901D02*
G01*
X170752996Y-109638236D01*
X170780524Y-109838333D01*
X170707420Y-110150992D01*
X170531103Y-110482752D01*
X170274372Y-110793250D01*
X169960023Y-111042128D01*
X169941612Y-111053237D01*
X169655918Y-111182546D01*
X169450960Y-111174048D01*
X169309442Y-111027350D01*
X169254168Y-110787288D01*
X169336514Y-110462030D01*
X169571863Y-110071553D01*
X169600070Y-110033870D01*
X169881952Y-109722971D01*
X170160933Y-109519614D01*
X170414265Y-109432142D01*
X170619202Y-109468901D01*
G37*
G36*
X184478228Y-105188064D02*
G01*
X184498510Y-105220363D01*
X184623547Y-105381593D01*
X184717903Y-105447236D01*
X184728139Y-105449764D01*
X184707692Y-105519534D01*
X184592148Y-105655054D01*
X184575724Y-105671815D01*
X184439616Y-105842340D01*
X184383081Y-105972554D01*
X184383034Y-105974755D01*
X184350258Y-105987642D01*
X184275579Y-105872238D01*
X184163326Y-105716405D01*
X183974917Y-105565317D01*
X183780507Y-105468393D01*
X183996462Y-105414192D01*
X184136499Y-105347200D01*
X184266517Y-105144441D01*
X184320616Y-104928891D01*
X184478228Y-105188064D01*
G37*
G36*
X188575017Y-122090222D02*
G01*
X188405996Y-122133952D01*
X188198962Y-122164226D01*
X188039238Y-122158630D01*
X187998716Y-122148419D01*
X187838371Y-122126570D01*
X187803038Y-122104052D01*
X187807300Y-122095591D01*
X188039973Y-122095591D01*
X188109663Y-122126570D01*
X188154485Y-122120459D01*
X188166107Y-122070125D01*
X188153698Y-122059992D01*
X188053218Y-122070125D01*
X188039973Y-122095591D01*
X187807300Y-122095591D01*
X187855663Y-121999570D01*
X187953355Y-121920196D01*
X188191227Y-121880130D01*
X188475062Y-121974891D01*
X188592902Y-122048180D01*
X188583566Y-122070125D01*
X188575017Y-122090222D01*
G37*
G36*
X177361675Y-130596814D02*
G01*
X178447502Y-130603025D01*
X179435337Y-130613936D01*
X180307358Y-130629392D01*
X181045741Y-130649236D01*
X181632663Y-130673314D01*
X181645717Y-130673995D01*
X181863270Y-130688563D01*
X181923296Y-130701160D01*
X181824110Y-130711827D01*
X181564025Y-130720601D01*
X181141356Y-130727523D01*
X180554419Y-130732632D01*
X179801527Y-130735967D01*
X178880996Y-130737568D01*
X178399344Y-130737501D01*
X177519027Y-130735361D01*
X176645991Y-130730852D01*
X175807245Y-130724245D01*
X175029798Y-130715809D01*
X174340657Y-130705812D01*
X173766832Y-130694526D01*
X173335329Y-130682219D01*
X171726663Y-130623945D01*
X173927996Y-130605949D01*
X174967342Y-130599116D01*
X176195681Y-130595459D01*
X177361675Y-130596814D01*
G37*
G36*
X183870832Y-115163814D02*
G01*
X183993726Y-115341860D01*
X184043780Y-115465566D01*
X184042319Y-115475867D01*
X183983723Y-115468745D01*
X183866566Y-115353236D01*
X183772779Y-115245128D01*
X183722525Y-115215688D01*
X183739686Y-115310903D01*
X183758432Y-115386664D01*
X183739206Y-115401155D01*
X183645031Y-115278377D01*
X183641049Y-115272732D01*
X183542227Y-115099236D01*
X183579996Y-115099236D01*
X183597374Y-115124574D01*
X183669660Y-115183903D01*
X183678109Y-115181702D01*
X183706996Y-115099236D01*
X183703551Y-115076030D01*
X183617333Y-115014570D01*
X183586709Y-115021217D01*
X183579996Y-115099236D01*
X183542227Y-115099236D01*
X183520983Y-115061939D01*
X183483199Y-114906088D01*
X183537628Y-114845236D01*
X183587864Y-114866952D01*
X183720433Y-114986990D01*
X183815905Y-115099236D01*
X183870832Y-115163814D01*
G37*
G36*
X184088801Y-114769890D02*
G01*
X184239138Y-114940535D01*
X184299663Y-115073809D01*
X184297463Y-115102328D01*
X184248127Y-115121533D01*
X184123243Y-115002783D01*
X184051734Y-114924951D01*
X183984806Y-114877379D01*
X183995970Y-114957283D01*
X184011427Y-115039817D01*
X183957496Y-115031562D01*
X183804393Y-114914950D01*
X183761363Y-114878296D01*
X183651924Y-114760570D01*
X183749329Y-114760570D01*
X183766632Y-114783450D01*
X183886323Y-114845236D01*
X183914793Y-114838713D01*
X183918663Y-114760570D01*
X183901361Y-114737689D01*
X183781669Y-114675903D01*
X183753200Y-114682426D01*
X183749329Y-114760570D01*
X183651924Y-114760570D01*
X183645981Y-114754177D01*
X183635860Y-114689838D01*
X183655328Y-114677715D01*
X183660194Y-114584005D01*
X183638380Y-114519242D01*
X183703513Y-114511490D01*
X183847875Y-114584357D01*
X184039167Y-114725762D01*
X184078318Y-114760570D01*
X184088801Y-114769890D01*
G37*
G36*
X175531130Y-109202717D02*
G01*
X175585713Y-109320736D01*
X175620701Y-109367523D01*
X175654149Y-109423895D01*
X175579146Y-109363070D01*
X175546137Y-109335323D01*
X175417299Y-109263391D01*
X175359876Y-109282930D01*
X175412851Y-109388078D01*
X175455065Y-109447394D01*
X175419571Y-109453351D01*
X175259375Y-109368515D01*
X175160807Y-109300072D01*
X175114219Y-109226258D01*
X175170639Y-109226258D01*
X175240329Y-109257236D01*
X175285152Y-109251126D01*
X175296774Y-109200792D01*
X175284365Y-109190659D01*
X175183885Y-109200792D01*
X175170639Y-109226258D01*
X175114219Y-109226258D01*
X175086514Y-109182361D01*
X175157050Y-109117242D01*
X175356766Y-109141240D01*
X175457793Y-109156324D01*
X175452382Y-109088526D01*
X175443384Y-109073305D01*
X175443842Y-109028026D01*
X175564063Y-109079911D01*
X175679575Y-109156198D01*
X175798368Y-109278858D01*
X175799551Y-109280959D01*
X175822320Y-109341249D01*
X175743817Y-109278403D01*
X175718990Y-109256341D01*
X175587613Y-109178024D01*
X175535533Y-109200792D01*
X175531130Y-109202717D01*
G37*
G36*
X184766274Y-114210236D02*
G01*
X184775029Y-114251937D01*
X184775335Y-114255978D01*
X184782582Y-114433100D01*
X184773486Y-114506570D01*
X184769357Y-114504924D01*
X184689511Y-114433842D01*
X184549247Y-114290202D01*
X184478117Y-114210236D01*
X184638329Y-114210236D01*
X184680663Y-114252570D01*
X184722996Y-114210236D01*
X184680663Y-114167903D01*
X184638329Y-114210236D01*
X184478117Y-114210236D01*
X184427871Y-114153748D01*
X184415776Y-114105809D01*
X184513321Y-114127659D01*
X184576690Y-114140461D01*
X184567630Y-114093057D01*
X184426663Y-113956046D01*
X184385594Y-113919415D01*
X184574421Y-113919415D01*
X184595996Y-113998570D01*
X184613391Y-114023633D01*
X184690656Y-114083236D01*
X184702238Y-114077724D01*
X184680663Y-113998570D01*
X184663268Y-113973506D01*
X184586003Y-113913903D01*
X184574421Y-113919415D01*
X184385594Y-113919415D01*
X184349084Y-113886850D01*
X184243612Y-113783510D01*
X184257338Y-113758822D01*
X184384329Y-113789438D01*
X184586578Y-113865531D01*
X184723659Y-114007248D01*
X184738455Y-114077724D01*
X184766274Y-114210236D01*
G37*
G36*
X170685382Y-130012013D02*
G01*
X171528210Y-130015420D01*
X172447786Y-130021985D01*
X173431223Y-130031572D01*
X174465635Y-130044041D01*
X175538135Y-130059255D01*
X176635838Y-130077076D01*
X177745857Y-130097364D01*
X178855304Y-130119983D01*
X179951295Y-130144794D01*
X181020943Y-130171658D01*
X182051361Y-130200438D01*
X183029663Y-130230996D01*
X185019329Y-130296903D01*
X183706996Y-130348819D01*
X183529276Y-130354987D01*
X183021865Y-130366472D01*
X182401734Y-130373865D01*
X181682987Y-130377414D01*
X180879727Y-130377371D01*
X180006055Y-130373986D01*
X179076075Y-130367508D01*
X178103888Y-130358188D01*
X177103597Y-130346277D01*
X176089305Y-130332024D01*
X175075114Y-130315680D01*
X174075127Y-130297495D01*
X173103445Y-130277718D01*
X172174173Y-130256601D01*
X171301411Y-130234394D01*
X170499263Y-130211346D01*
X169781831Y-130187707D01*
X169163217Y-130163729D01*
X168657524Y-130139662D01*
X168278855Y-130115754D01*
X168041311Y-130092258D01*
X167958996Y-130069422D01*
X167961751Y-130065649D01*
X168073479Y-130047200D01*
X168339274Y-130032740D01*
X168746247Y-130022129D01*
X169281514Y-130015229D01*
X169932188Y-130011903D01*
X170685382Y-130012013D01*
G37*
G36*
X179170299Y-110031169D02*
G01*
X179059612Y-110027808D01*
X178979517Y-109976903D01*
X179050329Y-109976903D01*
X179092663Y-110019236D01*
X179134996Y-109976903D01*
X179092663Y-109934570D01*
X179050329Y-109976903D01*
X178979517Y-109976903D01*
X178845632Y-109891811D01*
X178829762Y-109879864D01*
X178559406Y-109703622D01*
X178284581Y-109560120D01*
X178220741Y-109531078D01*
X178097826Y-109459946D01*
X178102034Y-109429884D01*
X178223217Y-109454528D01*
X178453021Y-109550856D01*
X178704992Y-109689837D01*
X178914533Y-109838946D01*
X178971273Y-109886264D01*
X179045347Y-109926111D01*
X179037785Y-109849903D01*
X178974769Y-109770298D01*
X178794239Y-109634423D01*
X178544567Y-109490070D01*
X178339570Y-109378998D01*
X178204250Y-109290972D01*
X178191200Y-109257236D01*
X178297346Y-109273257D01*
X178540415Y-109361195D01*
X178786806Y-109491388D01*
X178954089Y-109624189D01*
X179037298Y-109699080D01*
X179138796Y-109720554D01*
X179205951Y-109737715D01*
X179321498Y-109846111D01*
X179427326Y-109994379D01*
X179473663Y-110122742D01*
X179457978Y-110183361D01*
X179384830Y-110142092D01*
X179259311Y-109955736D01*
X179240709Y-109924349D01*
X179172083Y-109828584D01*
X179166107Y-109862792D01*
X179176674Y-109901985D01*
X179172977Y-109976903D01*
X179170299Y-110031169D01*
G37*
G36*
X175879598Y-108516505D02*
G01*
X175935481Y-108656779D01*
X175958051Y-108687174D01*
X175994195Y-108747330D01*
X175917813Y-108685736D01*
X175836554Y-108620636D01*
X175729221Y-108578010D01*
X175725487Y-108649630D01*
X175839404Y-108812736D01*
X176044663Y-109045570D01*
X175827539Y-108855070D01*
X175636475Y-108706439D01*
X175541837Y-108672233D01*
X175563215Y-108752489D01*
X175711322Y-108939429D01*
X175959996Y-109214288D01*
X175720342Y-109002929D01*
X175677183Y-108965701D01*
X175524692Y-108849070D01*
X175464386Y-108821513D01*
X175494329Y-108791570D01*
X175451996Y-108749236D01*
X175409663Y-108791570D01*
X175434878Y-108816784D01*
X175428469Y-108819303D01*
X175303829Y-108831328D01*
X175271597Y-108809442D01*
X175350858Y-108739827D01*
X175448930Y-108650276D01*
X175410246Y-108538273D01*
X175382186Y-108496531D01*
X175382185Y-108495236D01*
X175451996Y-108495236D01*
X175469298Y-108518117D01*
X175588990Y-108579903D01*
X175617459Y-108573380D01*
X175621329Y-108495236D01*
X175604027Y-108472355D01*
X175484336Y-108410570D01*
X175455866Y-108417093D01*
X175451996Y-108495236D01*
X175382185Y-108495236D01*
X175382067Y-108389427D01*
X175479557Y-108350019D01*
X175621329Y-108410570D01*
X175700434Y-108453168D01*
X175850454Y-108446618D01*
X175898183Y-108423933D01*
X175897231Y-108452705D01*
X175885476Y-108495236D01*
X175879598Y-108516505D01*
G37*
G36*
X182120569Y-112264812D02*
G01*
X182180422Y-112399929D01*
X182160623Y-112452300D01*
X182090551Y-112366955D01*
X182025339Y-112286722D01*
X181933386Y-112260190D01*
X181875850Y-112262499D01*
X181758889Y-112177304D01*
X181688793Y-112109826D01*
X181564122Y-112051236D01*
X181548645Y-112063144D01*
X181591947Y-112158585D01*
X181722656Y-112318331D01*
X181748793Y-112347570D01*
X181795941Y-112400315D01*
X181871223Y-112503157D01*
X181844329Y-112510127D01*
X181774305Y-112474436D01*
X181632663Y-112433533D01*
X181601484Y-112425940D01*
X181551038Y-112347570D01*
X181590329Y-112347570D01*
X181632663Y-112389903D01*
X181674996Y-112347570D01*
X181632663Y-112305236D01*
X181590329Y-112347570D01*
X181551038Y-112347570D01*
X181537413Y-112326403D01*
X181533143Y-112291900D01*
X181505663Y-112178236D01*
X181503335Y-112173237D01*
X181473913Y-112054881D01*
X181436814Y-111988360D01*
X181709650Y-111988360D01*
X181711194Y-112030674D01*
X181799950Y-112134205D01*
X181880621Y-112185396D01*
X181928996Y-112151267D01*
X181901400Y-112071983D01*
X181803656Y-111986548D01*
X181709650Y-111988360D01*
X181436814Y-111988360D01*
X181427018Y-111970795D01*
X181293996Y-111839116D01*
X181278820Y-111827012D01*
X181194289Y-111754150D01*
X181229339Y-111757767D01*
X181399829Y-111837645D01*
X181444689Y-111858760D01*
X181608669Y-111922750D01*
X181674996Y-111925166D01*
X181670586Y-111914320D01*
X181576946Y-111830439D01*
X181399829Y-111711642D01*
X181288146Y-111639317D01*
X181215717Y-111565623D01*
X181283970Y-111543553D01*
X181358758Y-111564896D01*
X181541700Y-111681761D01*
X181758273Y-111864712D01*
X181965540Y-112072735D01*
X182028925Y-112151267D01*
X182120569Y-112264812D01*
G37*
G36*
X186611780Y-119084802D02*
G01*
X186745647Y-119270486D01*
X186748490Y-119283729D01*
X186712663Y-119247903D01*
X186670329Y-119290236D01*
X186712663Y-119332570D01*
X186750789Y-119294443D01*
X186774354Y-119404247D01*
X186761240Y-119463538D01*
X186807132Y-119479675D01*
X186851694Y-119475301D01*
X186893481Y-119571619D01*
X186912187Y-119736520D01*
X186954722Y-119967570D01*
X186959485Y-119989346D01*
X186984211Y-120118322D01*
X186965753Y-120098987D01*
X186896624Y-119925980D01*
X186871869Y-119865410D01*
X186793025Y-119732961D01*
X186742064Y-119752366D01*
X186741118Y-119755186D01*
X186697689Y-119819582D01*
X186644504Y-119726058D01*
X186624848Y-119644016D01*
X186671299Y-119629502D01*
X186691504Y-119640729D01*
X186751343Y-119631636D01*
X186725345Y-119528316D01*
X186621084Y-119369918D01*
X186558893Y-119295581D01*
X186512354Y-119261672D01*
X186535448Y-119358134D01*
X186538376Y-119376574D01*
X186550030Y-119449979D01*
X186485638Y-119450078D01*
X186427307Y-119439420D01*
X186444482Y-119551514D01*
X186474490Y-119640627D01*
X186465977Y-119662617D01*
X186375079Y-119550417D01*
X186318149Y-119483993D01*
X186223793Y-119427168D01*
X186203025Y-119504598D01*
X186269050Y-119697910D01*
X186277072Y-119714845D01*
X186382956Y-119880220D01*
X186467017Y-119919508D01*
X186503571Y-119819403D01*
X186525045Y-119786774D01*
X186594230Y-119864926D01*
X186636355Y-119967368D01*
X186640673Y-120118926D01*
X186611873Y-120145697D01*
X186586396Y-120052236D01*
X186582411Y-120004735D01*
X186562237Y-119936997D01*
X186515853Y-120028934D01*
X186483180Y-120069386D01*
X186409641Y-120034080D01*
X186289583Y-119879141D01*
X186108316Y-119588700D01*
X186058779Y-119504313D01*
X185914550Y-119239779D01*
X185832598Y-119061355D01*
X185878268Y-119061355D01*
X185951618Y-119195145D01*
X185956450Y-119202489D01*
X186066813Y-119354408D01*
X186132713Y-119417236D01*
X186139554Y-119376574D01*
X186082134Y-119257611D01*
X185989346Y-119121349D01*
X185899092Y-119030527D01*
X185889909Y-119025621D01*
X185878268Y-119061355D01*
X185832598Y-119061355D01*
X185824624Y-119043993D01*
X185806774Y-118954347D01*
X185832214Y-118951637D01*
X185952846Y-119020324D01*
X186124348Y-119167454D01*
X186295649Y-119319621D01*
X186392189Y-119358430D01*
X186445125Y-119294984D01*
X186451536Y-119264138D01*
X186386552Y-119093673D01*
X186181207Y-118860201D01*
X186149928Y-118830082D01*
X186267755Y-118830082D01*
X186289329Y-118909236D01*
X186306724Y-118934299D01*
X186383990Y-118993903D01*
X186395571Y-118988390D01*
X186373996Y-118909236D01*
X186356601Y-118884173D01*
X186279336Y-118824570D01*
X186267755Y-118830082D01*
X186149928Y-118830082D01*
X186125289Y-118806356D01*
X185991856Y-118667779D01*
X185978194Y-118623779D01*
X186077663Y-118661617D01*
X186177543Y-118716458D01*
X186409998Y-118886893D01*
X186513481Y-118988390D01*
X186611780Y-119084802D01*
G37*
G36*
X177123863Y-103637488D02*
G01*
X177251882Y-104226355D01*
X177273870Y-104432983D01*
X177343138Y-104733053D01*
X177453027Y-104907187D01*
X177489021Y-104945124D01*
X177590080Y-105160502D01*
X177601386Y-105403409D01*
X177586112Y-105437243D01*
X177515604Y-105593428D01*
X177500945Y-105619716D01*
X177579777Y-105622681D01*
X177782267Y-105564082D01*
X178132813Y-105487255D01*
X178486010Y-105526084D01*
X178755654Y-105703068D01*
X178790583Y-105741103D01*
X178879623Y-105808925D01*
X178959764Y-105767315D01*
X179081933Y-105600221D01*
X179363990Y-105271294D01*
X179720787Y-105054736D01*
X180168652Y-104962126D01*
X180590574Y-104979958D01*
X181035392Y-105135404D01*
X181390945Y-105429057D01*
X181642087Y-105851772D01*
X181642125Y-105851860D01*
X181718259Y-105841998D01*
X181887116Y-105785730D01*
X182094696Y-105739833D01*
X182407508Y-105790142D01*
X182609232Y-105883997D01*
X182622280Y-105898792D01*
X182799757Y-106100029D01*
X182860329Y-106420333D01*
X182879676Y-106560576D01*
X182931198Y-106598764D01*
X183020590Y-106594097D01*
X183173290Y-106676998D01*
X183309448Y-106815355D01*
X183368329Y-106959104D01*
X183369472Y-106998209D01*
X183429643Y-107178062D01*
X183563517Y-107212735D01*
X183746412Y-107093456D01*
X183750505Y-107089400D01*
X184047168Y-106905532D01*
X184436766Y-106819095D01*
X184866980Y-106841836D01*
X185157315Y-106955661D01*
X185475210Y-107200958D01*
X185742617Y-107527766D01*
X185915015Y-107891497D01*
X185964722Y-108200504D01*
X185937218Y-108445560D01*
X185924158Y-108561920D01*
X185787655Y-108865903D01*
X185569663Y-109063422D01*
X185563693Y-109066453D01*
X185452742Y-109140118D01*
X185471926Y-109171321D01*
X185533733Y-109178489D01*
X185775220Y-109292985D01*
X186037366Y-109519365D01*
X186289084Y-109821853D01*
X186499287Y-110164672D01*
X186636887Y-110512043D01*
X186743567Y-110908236D01*
X186749282Y-110545683D01*
X186749414Y-110533541D01*
X186698292Y-110125452D01*
X186558550Y-109723865D01*
X186357645Y-109408501D01*
X186289571Y-109307819D01*
X186311014Y-109257236D01*
X186332671Y-109262148D01*
X186459017Y-109350659D01*
X186618252Y-109515097D01*
X186699473Y-109609117D01*
X186824705Y-109713235D01*
X186966339Y-109728488D01*
X187197279Y-109675011D01*
X187544594Y-109613442D01*
X188130349Y-109635170D01*
X188710868Y-109796388D01*
X189247860Y-110084678D01*
X189703037Y-110487625D01*
X189751839Y-110544507D01*
X190089340Y-111065927D01*
X190267003Y-111636896D01*
X190273838Y-111830953D01*
X190289343Y-112271141D01*
X190288179Y-112285015D01*
X190208053Y-112713376D01*
X190056893Y-113121718D01*
X189857859Y-113460274D01*
X189634109Y-113679273D01*
X189549107Y-113736371D01*
X189527470Y-113802188D01*
X189548149Y-113818980D01*
X189643909Y-113896742D01*
X189724152Y-113976211D01*
X189789503Y-114182378D01*
X189769820Y-114258660D01*
X189733991Y-114397519D01*
X189565288Y-114557179D01*
X189528786Y-114575925D01*
X189436458Y-114649234D01*
X189493266Y-114701380D01*
X189503896Y-114705948D01*
X189632699Y-114844049D01*
X189725801Y-115081313D01*
X189728434Y-115099236D01*
X189765760Y-115353265D01*
X189735133Y-115595428D01*
X189727323Y-115617988D01*
X189696215Y-115744010D01*
X189732015Y-115827439D01*
X189866113Y-115899882D01*
X190129898Y-115992947D01*
X190594201Y-116215052D01*
X191045533Y-116574706D01*
X191402226Y-117019808D01*
X191627078Y-117512599D01*
X191667127Y-117723865D01*
X191691209Y-117850903D01*
X191733433Y-118073639D01*
X191710926Y-118621796D01*
X191707469Y-118705991D01*
X191661367Y-118851163D01*
X191519655Y-119297403D01*
X191171976Y-119837739D01*
X191117647Y-119901944D01*
X190980517Y-120037456D01*
X190870327Y-120065397D01*
X190730072Y-120007692D01*
X190660005Y-119971690D01*
X190600119Y-119956740D01*
X190642754Y-120028514D01*
X190794010Y-120205927D01*
X191029155Y-120560236D01*
X191064637Y-120613699D01*
X191206990Y-121085853D01*
X191205379Y-121189724D01*
X191199521Y-121567551D01*
X191046845Y-122033167D01*
X190952940Y-122168903D01*
X190753579Y-122457073D01*
X190743752Y-122465236D01*
X190709778Y-122493458D01*
X190387022Y-122761570D01*
X190324337Y-122813642D01*
X189940212Y-123057247D01*
X189760314Y-122888242D01*
X189610749Y-122772713D01*
X189584041Y-122761570D01*
X190056996Y-122761570D01*
X190099329Y-122803903D01*
X190141663Y-122761570D01*
X190099329Y-122719236D01*
X190056996Y-122761570D01*
X189584041Y-122761570D01*
X189482574Y-122719236D01*
X189467409Y-122716871D01*
X189345894Y-122633715D01*
X189199400Y-122468561D01*
X189167882Y-122428177D01*
X189160529Y-122421201D01*
X189482419Y-122421201D01*
X189492552Y-122521681D01*
X189518018Y-122534926D01*
X189525131Y-122518925D01*
X189648639Y-122518925D01*
X189718329Y-122549903D01*
X189763152Y-122543793D01*
X189774774Y-122493458D01*
X189762365Y-122483325D01*
X189661885Y-122493458D01*
X189648639Y-122518925D01*
X189525131Y-122518925D01*
X189548996Y-122465236D01*
X189542886Y-122420414D01*
X189492552Y-122408792D01*
X189482419Y-122421201D01*
X189160529Y-122421201D01*
X189029107Y-122296522D01*
X188929783Y-122269976D01*
X188898853Y-122284024D01*
X188898073Y-122237001D01*
X188893525Y-122185102D01*
X188869544Y-122150602D01*
X190238711Y-122150602D01*
X190255460Y-122318681D01*
X190258834Y-122326229D01*
X190285339Y-122313499D01*
X190294491Y-122168903D01*
X190293932Y-122142610D01*
X190279274Y-122030154D01*
X190252323Y-122064681D01*
X190238711Y-122150602D01*
X188869544Y-122150602D01*
X188796257Y-122045171D01*
X188616881Y-121871914D01*
X188535822Y-121802813D01*
X188388936Y-121658692D01*
X188354362Y-121567917D01*
X188413667Y-121496430D01*
X188467001Y-121452945D01*
X188489513Y-121372578D01*
X188383385Y-121255417D01*
X188333984Y-121212219D01*
X188244746Y-121162485D01*
X188236534Y-121188758D01*
X188222552Y-121233493D01*
X188233274Y-121287241D01*
X188306189Y-121305430D01*
X188338514Y-121292246D01*
X188331700Y-121347790D01*
X188277571Y-121389718D01*
X188128118Y-121387353D01*
X188090620Y-121373907D01*
X188027912Y-121371700D01*
X188092607Y-121468180D01*
X188157492Y-121583250D01*
X188100692Y-121666447D01*
X188053484Y-121688277D01*
X188052251Y-121642967D01*
X188057334Y-121633251D01*
X188025811Y-121507955D01*
X187856141Y-121349065D01*
X187568409Y-121175967D01*
X187550615Y-121166662D01*
X187546191Y-121163402D01*
X187817981Y-121163402D01*
X187861305Y-121244368D01*
X187919119Y-121308913D01*
X187988033Y-121364570D01*
X188027020Y-121335683D01*
X188084966Y-121246306D01*
X188093493Y-121188758D01*
X187893550Y-121147847D01*
X187817981Y-121163402D01*
X187546191Y-121163402D01*
X187413321Y-121065500D01*
X187414843Y-121031415D01*
X188553755Y-121031415D01*
X188575329Y-121110570D01*
X188592724Y-121135633D01*
X188669990Y-121195236D01*
X188681571Y-121189724D01*
X188659996Y-121110570D01*
X188642601Y-121085506D01*
X188565336Y-121025903D01*
X188553755Y-121031415D01*
X187414843Y-121031415D01*
X187416544Y-120993325D01*
X187458518Y-120941077D01*
X187462978Y-120790358D01*
X187457200Y-120772105D01*
X187442821Y-120695541D01*
X187504406Y-120769451D01*
X187518378Y-120788516D01*
X187608388Y-120859560D01*
X187645486Y-120780411D01*
X187623056Y-120562603D01*
X187622531Y-120560236D01*
X187940329Y-120560236D01*
X187982663Y-120602570D01*
X188024996Y-120560236D01*
X187982663Y-120517903D01*
X187940329Y-120560236D01*
X187622531Y-120560236D01*
X187592511Y-120424864D01*
X187556527Y-120381616D01*
X187504251Y-120477936D01*
X187469959Y-120558105D01*
X187444504Y-120595599D01*
X187460431Y-120475570D01*
X187445708Y-120290847D01*
X187368589Y-120065123D01*
X187278608Y-119853685D01*
X187237863Y-119720485D01*
X187296214Y-119720485D01*
X187356275Y-119867993D01*
X187400686Y-119957078D01*
X187482804Y-120037309D01*
X187584831Y-119988738D01*
X187629132Y-119953936D01*
X187680007Y-119946054D01*
X187650503Y-120074067D01*
X187620393Y-120230103D01*
X187651814Y-120253666D01*
X187721065Y-120126171D01*
X187731192Y-120047380D01*
X187691759Y-119903880D01*
X187613949Y-119798628D01*
X187533888Y-119795456D01*
X187491619Y-119803399D01*
X187371943Y-119740920D01*
X187317264Y-119700104D01*
X187296214Y-119720485D01*
X187237863Y-119720485D01*
X187217034Y-119652392D01*
X187201127Y-119544655D01*
X187237334Y-119534174D01*
X187364846Y-119639506D01*
X187481962Y-119738525D01*
X187520068Y-119742356D01*
X187485333Y-119628903D01*
X187474481Y-119576718D01*
X187517535Y-119573896D01*
X187614783Y-119657903D01*
X187736779Y-119797098D01*
X187854076Y-119959838D01*
X187901147Y-120047380D01*
X187937228Y-120114484D01*
X188014263Y-120306236D01*
X188019629Y-120107270D01*
X187997601Y-119999314D01*
X187872989Y-119783749D01*
X187680313Y-119566932D01*
X187467795Y-119399620D01*
X187283652Y-119332570D01*
X187174608Y-119281274D01*
X186996895Y-119122351D01*
X186794199Y-118895671D01*
X186740382Y-118825406D01*
X188569777Y-118825406D01*
X188595274Y-118943292D01*
X188603426Y-118950711D01*
X188753339Y-118991790D01*
X188899885Y-118937458D01*
X188952077Y-118851163D01*
X188929077Y-118716701D01*
X188796055Y-118655236D01*
X188653522Y-118707231D01*
X188569777Y-118825406D01*
X186740382Y-118825406D01*
X186600040Y-118642170D01*
X186447936Y-118402784D01*
X186390874Y-118265343D01*
X186442514Y-118265343D01*
X186493004Y-118386303D01*
X186567327Y-118502100D01*
X186679232Y-118618405D01*
X186679883Y-118618806D01*
X186728811Y-118621796D01*
X186678321Y-118500836D01*
X186603999Y-118385039D01*
X186492094Y-118268734D01*
X186491443Y-118268333D01*
X186442514Y-118265343D01*
X186390874Y-118265343D01*
X186371405Y-118218449D01*
X186361267Y-118142629D01*
X186390661Y-118073338D01*
X186500810Y-118123042D01*
X186707722Y-118295403D01*
X186778307Y-118358864D01*
X186887941Y-118453868D01*
X186884280Y-118437295D01*
X186775855Y-118311113D01*
X186668198Y-118175303D01*
X186594665Y-118045764D01*
X186604338Y-117996603D01*
X186705125Y-118056314D01*
X186804219Y-118111223D01*
X186888033Y-118045514D01*
X186910876Y-117997477D01*
X186882194Y-117998335D01*
X186829604Y-118017124D01*
X186699286Y-117966801D01*
X186637238Y-117924402D01*
X186585663Y-117928181D01*
X186543236Y-117941580D01*
X186409078Y-117889355D01*
X186306274Y-117816929D01*
X186280032Y-117747311D01*
X186330787Y-117739543D01*
X186456617Y-117806871D01*
X186559407Y-117870734D01*
X186585663Y-117808570D01*
X186585663Y-117808327D01*
X186611222Y-117745502D01*
X186712663Y-117808570D01*
X186797026Y-117871730D01*
X186838336Y-117878217D01*
X186819839Y-117850903D01*
X186924329Y-117850903D01*
X186966663Y-117893236D01*
X187008996Y-117850903D01*
X187093663Y-117850903D01*
X187135996Y-117893236D01*
X187178329Y-117850903D01*
X187135996Y-117808570D01*
X187093663Y-117850903D01*
X187008996Y-117850903D01*
X186966663Y-117808570D01*
X186924329Y-117850903D01*
X186819839Y-117850903D01*
X186787398Y-117802998D01*
X186655776Y-117673525D01*
X186636404Y-117656764D01*
X186535107Y-117586643D01*
X186542350Y-117639236D01*
X186571272Y-117703606D01*
X186535737Y-117695681D01*
X186513294Y-117671918D01*
X186458663Y-117551159D01*
X186418444Y-117472355D01*
X186289329Y-117346340D01*
X186119996Y-117215487D01*
X186289329Y-117271806D01*
X186474921Y-117357674D01*
X186691496Y-117489446D01*
X186717435Y-117507138D01*
X186864371Y-117594272D01*
X186924329Y-117605720D01*
X186909463Y-117581600D01*
X186795792Y-117478573D01*
X186606829Y-117335877D01*
X186561863Y-117302941D01*
X186888669Y-117302941D01*
X186900879Y-117373723D01*
X187008996Y-117512236D01*
X187029694Y-117534100D01*
X187165836Y-117668843D01*
X187237373Y-117723903D01*
X187237906Y-117723865D01*
X187216802Y-117660402D01*
X187128210Y-117512236D01*
X187005988Y-117364677D01*
X186899833Y-117300570D01*
X186888669Y-117302941D01*
X186561863Y-117302941D01*
X186457259Y-117226322D01*
X186397920Y-117164971D01*
X186480879Y-117179622D01*
X186712663Y-117265966D01*
X186795545Y-117296100D01*
X186835280Y-117283951D01*
X186754996Y-117168255D01*
X186699991Y-117095823D01*
X186673855Y-117044469D01*
X186754996Y-117096926D01*
X186845611Y-117153515D01*
X187051329Y-117247848D01*
X187108399Y-117261920D01*
X187106020Y-117221461D01*
X186966663Y-117091754D01*
X186865474Y-117002188D01*
X186807318Y-116925888D01*
X186881996Y-116932535D01*
X186992846Y-116979959D01*
X187191951Y-117108066D01*
X187213514Y-117126192D01*
X187290358Y-117168979D01*
X187315968Y-117101469D01*
X187305766Y-116894759D01*
X187239977Y-116554854D01*
X187038910Y-116139493D01*
X186734560Y-115811788D01*
X186353920Y-115598475D01*
X185923984Y-115526286D01*
X185886437Y-115527093D01*
X185788715Y-115538391D01*
X185828892Y-115572789D01*
X186018566Y-115644823D01*
X186070780Y-115664300D01*
X186222800Y-115734236D01*
X186341903Y-115789029D01*
X186595971Y-115938274D01*
X186799043Y-116087670D01*
X186917179Y-116212849D01*
X186916442Y-116289444D01*
X186882806Y-116354332D01*
X186997558Y-116447781D01*
X187111758Y-116529730D01*
X187178329Y-116636582D01*
X187148729Y-116673747D01*
X187030163Y-116612436D01*
X186968817Y-116565140D01*
X186924973Y-116544116D01*
X186998196Y-116644403D01*
X187051185Y-116720269D01*
X187059584Y-116785734D01*
X186959951Y-116749152D01*
X186768351Y-116612737D01*
X186543329Y-116432905D01*
X186754996Y-116487428D01*
X186859561Y-116512638D01*
X186905876Y-116507487D01*
X186811162Y-116434427D01*
X186707588Y-116360814D01*
X186514829Y-116216399D01*
X186458759Y-116171317D01*
X186438892Y-116141710D01*
X186558930Y-116195232D01*
X186709074Y-116260667D01*
X186812844Y-116273582D01*
X186791400Y-116190309D01*
X186715786Y-116117278D01*
X186515228Y-116001799D01*
X186265038Y-115897916D01*
X186029898Y-115831234D01*
X185874495Y-115827357D01*
X185809245Y-115862614D01*
X185774308Y-115934542D01*
X185772904Y-115998093D01*
X185699613Y-116139217D01*
X185667197Y-116179716D01*
X185548110Y-116244788D01*
X185362942Y-116201783D01*
X185119867Y-116125153D01*
X184974728Y-116118810D01*
X184966372Y-116189543D01*
X185103996Y-116332703D01*
X185188489Y-116405962D01*
X185193193Y-116411570D01*
X185258363Y-116489260D01*
X185188663Y-116483139D01*
X185107162Y-116456163D01*
X185065905Y-116470084D01*
X185144870Y-116586217D01*
X185217778Y-116683761D01*
X185214947Y-116700079D01*
X185095870Y-116602070D01*
X185027123Y-116548846D01*
X184860860Y-116465319D01*
X184757105Y-116475226D01*
X184753614Y-116580903D01*
X184773454Y-116643936D01*
X184769597Y-116707903D01*
X184729049Y-116716745D01*
X184589032Y-116764624D01*
X184491459Y-116784455D01*
X184510522Y-116709209D01*
X184539373Y-116644396D01*
X184475711Y-116661420D01*
X184451022Y-116681455D01*
X184446190Y-116779879D01*
X184568462Y-116949062D01*
X184589348Y-116972771D01*
X184696421Y-117097599D01*
X184692215Y-117108119D01*
X184578297Y-117014813D01*
X184372615Y-116890505D01*
X184114513Y-116800666D01*
X184012024Y-116777794D01*
X183894689Y-116721233D01*
X183855944Y-116603131D01*
X183863197Y-116411570D01*
X184976996Y-116411570D01*
X185019329Y-116453903D01*
X185061663Y-116411570D01*
X185019329Y-116369236D01*
X184976996Y-116411570D01*
X183863197Y-116411570D01*
X183864771Y-116369999D01*
X183870239Y-116308297D01*
X183922618Y-116072137D01*
X184043939Y-115849901D01*
X184138965Y-115734236D01*
X185738996Y-115734236D01*
X185781329Y-115776570D01*
X185823663Y-115734236D01*
X185781329Y-115691903D01*
X185738996Y-115734236D01*
X184138965Y-115734236D01*
X184265054Y-115580761D01*
X184270165Y-115575069D01*
X184508790Y-115277906D01*
X184593238Y-115099236D01*
X188024996Y-115099236D01*
X188027456Y-115119474D01*
X188109663Y-115183903D01*
X188129900Y-115181443D01*
X188194329Y-115099236D01*
X188191869Y-115078999D01*
X188109663Y-115014570D01*
X188089425Y-115017030D01*
X188024996Y-115099236D01*
X184593238Y-115099236D01*
X184616940Y-115049089D01*
X184601410Y-114858471D01*
X184468996Y-114675903D01*
X184466571Y-114673468D01*
X184377795Y-114555510D01*
X184380449Y-114548903D01*
X184468996Y-114548903D01*
X184511329Y-114591236D01*
X184553663Y-114548903D01*
X184511329Y-114506570D01*
X184468996Y-114548903D01*
X184380449Y-114548903D01*
X184397452Y-114506570D01*
X184400307Y-114506491D01*
X184419682Y-114450120D01*
X184333952Y-114317704D01*
X184298396Y-114275640D01*
X184243758Y-114200414D01*
X184294334Y-114222883D01*
X184464368Y-114346152D01*
X184531938Y-114398874D01*
X184694084Y-114548903D01*
X184706580Y-114560465D01*
X184795636Y-114683184D01*
X184805317Y-114715719D01*
X184790564Y-114753897D01*
X184680829Y-114675903D01*
X184596461Y-114608858D01*
X184568694Y-114608685D01*
X184642689Y-114735552D01*
X184656828Y-114757876D01*
X184747255Y-114867602D01*
X184805397Y-114849031D01*
X184839289Y-114688551D01*
X184856965Y-114372548D01*
X184857006Y-114371216D01*
X184859132Y-114141004D01*
X186439407Y-114141004D01*
X186455243Y-114236608D01*
X186560296Y-114328224D01*
X186692394Y-114363043D01*
X186781033Y-114306841D01*
X186793107Y-114258660D01*
X186768329Y-114115059D01*
X186690307Y-114055377D01*
X186540913Y-114050373D01*
X186439407Y-114141004D01*
X184859132Y-114141004D01*
X184859490Y-114102188D01*
X184827183Y-113945334D01*
X184732166Y-113843847D01*
X184546517Y-113740924D01*
X184497324Y-113717178D01*
X184133587Y-113609290D01*
X183659569Y-113575236D01*
X183624440Y-113575267D01*
X183325803Y-113583585D01*
X183130574Y-113620739D01*
X182978551Y-113707115D01*
X182809530Y-113863103D01*
X182721964Y-113957618D01*
X182578366Y-114153537D01*
X182521663Y-114297020D01*
X182514930Y-114355680D01*
X182443280Y-114409964D01*
X182257079Y-114390153D01*
X182001422Y-114354266D01*
X181706746Y-114337236D01*
X181617266Y-114334617D01*
X181463482Y-114292959D01*
X181420996Y-114184085D01*
X181397598Y-114061267D01*
X181301684Y-113867765D01*
X181269105Y-113820173D01*
X181241991Y-113723577D01*
X181313737Y-113627632D01*
X181507893Y-113489093D01*
X181572562Y-113437769D01*
X184207813Y-113437769D01*
X184270131Y-113472578D01*
X184484176Y-113554939D01*
X184620179Y-113607831D01*
X184832075Y-113701142D01*
X184942787Y-113765736D01*
X184955462Y-113777094D01*
X185096941Y-113827810D01*
X185129484Y-113818980D01*
X185092610Y-113765637D01*
X184959450Y-113681968D01*
X184770212Y-113588853D01*
X184565103Y-113507168D01*
X184384329Y-113457790D01*
X184288990Y-113442504D01*
X184207813Y-113437769D01*
X181572562Y-113437769D01*
X181844738Y-113221758D01*
X182134437Y-112892768D01*
X182327266Y-112554015D01*
X182406159Y-112236141D01*
X182354051Y-111969786D01*
X182305698Y-111843800D01*
X182306686Y-111717925D01*
X182280627Y-111640732D01*
X182271158Y-111629342D01*
X183843619Y-111629342D01*
X183860006Y-111763918D01*
X183909167Y-111815168D01*
X184066829Y-111906588D01*
X184150079Y-111912473D01*
X184214459Y-111830953D01*
X184199277Y-111691670D01*
X184099230Y-111552559D01*
X184065198Y-111530689D01*
X183932938Y-111533115D01*
X183843619Y-111629342D01*
X182271158Y-111629342D01*
X182152881Y-111487064D01*
X181950768Y-111296888D01*
X181791404Y-111154057D01*
X181656781Y-111007405D01*
X181658875Y-110958662D01*
X181793760Y-111012383D01*
X182057509Y-111173122D01*
X182394663Y-111395674D01*
X182175949Y-111167999D01*
X182148275Y-111140728D01*
X181902572Y-110959174D01*
X181625616Y-110822163D01*
X181498567Y-110776560D01*
X181375879Y-110725233D01*
X181398334Y-110705337D01*
X181556529Y-110700286D01*
X181579690Y-110700221D01*
X181928708Y-110746434D01*
X182278112Y-110861610D01*
X182543349Y-111018484D01*
X182648456Y-111088487D01*
X182741617Y-111097504D01*
X182735620Y-111063728D01*
X182631067Y-110956732D01*
X182439669Y-110815288D01*
X182328155Y-110747382D01*
X181907266Y-110582088D01*
X181487243Y-110540694D01*
X181106897Y-110616900D01*
X181101462Y-110617989D01*
X180783294Y-110808762D01*
X180566113Y-111107805D01*
X180443163Y-111290508D01*
X180238149Y-111416900D01*
X180191870Y-111430440D01*
X179962652Y-111529477D01*
X179715853Y-111670399D01*
X179478197Y-111790266D01*
X179297392Y-111781379D01*
X179179190Y-111623042D01*
X179110213Y-111307233D01*
X178981867Y-110893584D01*
X178695777Y-110479765D01*
X178266902Y-110098114D01*
X178114703Y-109980512D01*
X178027776Y-109881327D01*
X178080334Y-109849903D01*
X178224882Y-109909049D01*
X178435117Y-110072958D01*
X178671816Y-110304673D01*
X178900197Y-110567116D01*
X179085481Y-110823212D01*
X179192887Y-111035883D01*
X179287043Y-111331570D01*
X179292686Y-111035236D01*
X179292738Y-111032156D01*
X179264000Y-110766001D01*
X179196383Y-110564573D01*
X179304329Y-110564573D01*
X179314692Y-110627654D01*
X179388996Y-110696570D01*
X179409084Y-110694289D01*
X179473663Y-110616900D01*
X179470433Y-110593146D01*
X179388996Y-110484903D01*
X179345375Y-110476938D01*
X179304329Y-110564573D01*
X179196383Y-110564573D01*
X179188325Y-110540570D01*
X179178567Y-110523986D01*
X179037803Y-110351816D01*
X178827111Y-110151989D01*
X178592852Y-109962371D01*
X178381387Y-109820831D01*
X178239078Y-109765236D01*
X178199866Y-109760649D01*
X178078760Y-109683963D01*
X178064246Y-109637959D01*
X178132779Y-109631420D01*
X178286962Y-109694660D01*
X178494045Y-109810563D01*
X178721279Y-109962015D01*
X178935916Y-110131903D01*
X179136082Y-110297297D01*
X179261374Y-110370636D01*
X179275097Y-110320316D01*
X179238810Y-110213406D01*
X179270015Y-110210808D01*
X179399906Y-110320316D01*
X179413542Y-110332147D01*
X179517485Y-110407349D01*
X179526635Y-110380819D01*
X179510078Y-110275459D01*
X179562861Y-110095435D01*
X179614384Y-109971922D01*
X179566777Y-109971682D01*
X179518080Y-109983140D01*
X179473663Y-109898295D01*
X179455053Y-109843012D01*
X179319429Y-109696434D01*
X179084236Y-109524117D01*
X178787440Y-109352149D01*
X178510255Y-109226258D01*
X178726639Y-109226258D01*
X178796329Y-109257236D01*
X178841152Y-109251126D01*
X178852774Y-109200792D01*
X178840365Y-109190659D01*
X178739885Y-109200792D01*
X178726639Y-109226258D01*
X178510255Y-109226258D01*
X178467008Y-109206616D01*
X178161329Y-109088380D01*
X178457663Y-109135612D01*
X178576379Y-109151939D01*
X178672440Y-109146952D01*
X178626996Y-109094336D01*
X178588937Y-109066370D01*
X178544377Y-109011513D01*
X178613263Y-109017242D01*
X178764167Y-109075700D01*
X178965663Y-109179027D01*
X179002206Y-109200792D01*
X179070513Y-109241475D01*
X179142655Y-109301907D01*
X179060893Y-109293408D01*
X178927156Y-109274667D01*
X178917724Y-109332832D01*
X178942324Y-109363835D01*
X179071860Y-109426570D01*
X179091792Y-109429916D01*
X179229073Y-109507008D01*
X179405530Y-109654077D01*
X179460527Y-109704311D01*
X179590881Y-109797700D01*
X179642996Y-109791444D01*
X179623284Y-109726836D01*
X179516928Y-109596677D01*
X179454720Y-109523804D01*
X179440667Y-109411461D01*
X179521536Y-109397320D01*
X179663721Y-109484554D01*
X179771289Y-109577132D01*
X179801580Y-109579476D01*
X179741054Y-109455303D01*
X179646321Y-109333497D01*
X179469683Y-109178688D01*
X179268553Y-109041401D01*
X179092084Y-108954598D01*
X178989432Y-108951245D01*
X178978173Y-108974483D01*
X179050330Y-109003236D01*
X179095417Y-109007778D01*
X179118892Y-109047562D01*
X179094719Y-109061205D01*
X178978957Y-109052613D01*
X178863828Y-108996491D01*
X178832933Y-108927841D01*
X178836481Y-108921205D01*
X178820237Y-108883962D01*
X178714688Y-108857199D01*
X178493161Y-108836776D01*
X178128984Y-108818551D01*
X178105896Y-108817723D01*
X177690829Y-108863985D01*
X177384625Y-109035353D01*
X177175773Y-109338103D01*
X177060479Y-109515496D01*
X176891828Y-109596424D01*
X176705362Y-109632503D01*
X176479485Y-109723424D01*
X176468250Y-109729262D01*
X176292062Y-109814663D01*
X176196608Y-109849903D01*
X176180564Y-109782259D01*
X176175488Y-109587876D01*
X176183948Y-109311170D01*
X176189802Y-109080858D01*
X176163162Y-108790468D01*
X176108304Y-108664352D01*
X178457663Y-108664352D01*
X178469217Y-108681759D01*
X178593696Y-108731875D01*
X178810770Y-108774302D01*
X178932046Y-108800018D01*
X179241102Y-108916267D01*
X179530437Y-109080038D01*
X179678445Y-109177365D01*
X179835882Y-109258656D01*
X179896996Y-109256693D01*
X179841577Y-109159971D01*
X179665558Y-109021149D01*
X179412651Y-108877460D01*
X179128054Y-108754125D01*
X178856968Y-108676363D01*
X178721169Y-108654742D01*
X178531931Y-108641983D01*
X178457663Y-108664352D01*
X176108304Y-108664352D01*
X176085824Y-108612670D01*
X176025859Y-108535097D01*
X176009188Y-108496359D01*
X176110101Y-108570712D01*
X176167870Y-108614656D01*
X176229865Y-108638192D01*
X176201546Y-108535656D01*
X176196511Y-108513789D01*
X178838663Y-108513789D01*
X179177329Y-108582134D01*
X179213779Y-108589739D01*
X179511487Y-108664834D01*
X179769841Y-108748084D01*
X179986543Y-108851859D01*
X180193175Y-108987963D01*
X180362663Y-109130236D01*
X180193329Y-108928051D01*
X179970849Y-108732695D01*
X179588153Y-108559367D01*
X179158882Y-108504513D01*
X178838663Y-108513789D01*
X176196511Y-108513789D01*
X176179455Y-108439708D01*
X176241941Y-108444010D01*
X176243107Y-108444730D01*
X176333266Y-108480929D01*
X176318829Y-108439517D01*
X182619708Y-108439517D01*
X182723848Y-108565998D01*
X182789405Y-108645215D01*
X182835118Y-108765958D01*
X182766181Y-108889330D01*
X182717094Y-108952521D01*
X182710625Y-109006020D01*
X182844324Y-108982162D01*
X183011805Y-108981163D01*
X183107509Y-109114256D01*
X183113420Y-109130236D01*
X183160200Y-109256693D01*
X183175032Y-109296788D01*
X183236176Y-109104141D01*
X183241434Y-109088134D01*
X183326604Y-108961142D01*
X183480327Y-108969577D01*
X183552905Y-108991136D01*
X183615307Y-108986357D01*
X183546481Y-108886861D01*
X183500573Y-108824339D01*
X183485372Y-108712018D01*
X183589478Y-108565023D01*
X183690132Y-108445560D01*
X183687456Y-108405601D01*
X183557721Y-108431974D01*
X183400338Y-108433323D01*
X183269927Y-108300236D01*
X183173740Y-108120510D01*
X183108306Y-108297395D01*
X183092625Y-108335288D01*
X182993115Y-108434331D01*
X182803434Y-108430108D01*
X182645819Y-108405971D01*
X182619708Y-108439517D01*
X176318829Y-108439517D01*
X176314668Y-108427581D01*
X176197744Y-108315103D01*
X176164541Y-108288543D01*
X176092689Y-108244057D01*
X176123294Y-108313183D01*
X176136801Y-108336704D01*
X176139586Y-108386899D01*
X176023679Y-108337329D01*
X175909925Y-108291887D01*
X175808145Y-108294309D01*
X175748346Y-108302726D01*
X175606513Y-108243172D01*
X175537296Y-108196979D01*
X175524950Y-108166103D01*
X175663663Y-108188866D01*
X175780655Y-108211036D01*
X175817768Y-108197015D01*
X175710981Y-108110025D01*
X175642978Y-108057375D01*
X175600725Y-107999379D01*
X175692471Y-107987236D01*
X175770827Y-108003886D01*
X175887045Y-108114236D01*
X175919332Y-108173735D01*
X176016385Y-108241236D01*
X176045209Y-108232307D01*
X176039442Y-108148122D01*
X176049360Y-108107981D01*
X176182612Y-108161984D01*
X176278591Y-108211194D01*
X176334971Y-108222715D01*
X176278231Y-108141474D01*
X176228171Y-108059515D01*
X176227072Y-107960049D01*
X176222325Y-107930330D01*
X176112971Y-107843212D01*
X175908838Y-107734870D01*
X175908027Y-107734496D01*
X175720382Y-107641254D01*
X175686079Y-107603740D01*
X175807493Y-107621405D01*
X176086996Y-107693701D01*
X176211428Y-107716389D01*
X176239567Y-107687644D01*
X176161257Y-107617688D01*
X176000199Y-107526557D01*
X175780097Y-107434286D01*
X175451996Y-107317335D01*
X175801185Y-107313619D01*
X175851751Y-107314252D01*
X176182131Y-107352809D01*
X176499685Y-107433147D01*
X176522830Y-107441259D01*
X176755735Y-107512589D01*
X176835375Y-107513364D01*
X176760909Y-107446688D01*
X176531496Y-107315667D01*
X176459816Y-107275556D01*
X176346078Y-107184049D01*
X176378609Y-107141446D01*
X176544296Y-107151957D01*
X176830022Y-107219794D01*
X176865382Y-107229476D01*
X177023293Y-107254782D01*
X177059237Y-107222929D01*
X177049290Y-107210374D01*
X176906965Y-107130325D01*
X176665678Y-107053175D01*
X176385071Y-106994958D01*
X176124787Y-106971708D01*
X175997271Y-106987118D01*
X175723596Y-107065109D01*
X175433377Y-107186943D01*
X175369577Y-107225236D01*
X175129023Y-107369617D01*
X174826047Y-107676168D01*
X174652805Y-108060498D01*
X174652674Y-108060989D01*
X174540991Y-108243025D01*
X174303998Y-108349883D01*
X174300561Y-108350770D01*
X174044008Y-108452142D01*
X173834232Y-108590223D01*
X173655802Y-108756076D01*
X173609370Y-108244021D01*
X173545469Y-107847906D01*
X173366162Y-107369577D01*
X173254995Y-107225236D01*
X174054996Y-107225236D01*
X174057456Y-107245474D01*
X174139663Y-107309903D01*
X174159900Y-107307443D01*
X174224329Y-107225236D01*
X174221869Y-107204999D01*
X174139663Y-107140570D01*
X174119425Y-107143030D01*
X174054996Y-107225236D01*
X173254995Y-107225236D01*
X173092637Y-107014428D01*
X172734235Y-106793350D01*
X172300296Y-106717236D01*
X172149258Y-106723116D01*
X171902020Y-106787497D01*
X171687470Y-106950069D01*
X171669359Y-106967506D01*
X171436549Y-107160836D01*
X171207150Y-107310802D01*
X170999116Y-107479002D01*
X170837663Y-107705720D01*
X170768818Y-107833279D01*
X170655150Y-107932440D01*
X170488173Y-107929140D01*
X170308927Y-107922816D01*
X170089600Y-107979777D01*
X170008751Y-108015704D01*
X169929758Y-108001180D01*
X169863613Y-107884318D01*
X169782923Y-107634258D01*
X169733982Y-107461277D01*
X169675245Y-107223004D01*
X169652329Y-107082869D01*
X169643548Y-107038044D01*
X169557515Y-106992403D01*
X169530069Y-106986744D01*
X169441334Y-106878712D01*
X169354726Y-106674903D01*
X169285862Y-106477753D01*
X169248120Y-106415100D01*
X169247835Y-106496388D01*
X169284878Y-106710663D01*
X169359120Y-107046975D01*
X169359287Y-107047683D01*
X169425911Y-107359929D01*
X169453675Y-107553394D01*
X169444337Y-107616194D01*
X169399652Y-107536446D01*
X169321378Y-107302267D01*
X169297141Y-107222857D01*
X169234796Y-107058915D01*
X169179695Y-107028374D01*
X169105630Y-107107585D01*
X169081895Y-107137888D01*
X169018304Y-107178722D01*
X168940844Y-107136738D01*
X168824889Y-106991267D01*
X168645814Y-106721640D01*
X168607005Y-106661899D01*
X168449740Y-106426785D01*
X168339330Y-106273098D01*
X168297663Y-106231644D01*
X168298581Y-106236659D01*
X168342998Y-106349009D01*
X168444319Y-106579130D01*
X168588958Y-106896689D01*
X168763329Y-107271353D01*
X168793762Y-107336188D01*
X168963893Y-107701316D01*
X169102158Y-108002486D01*
X169195033Y-108209999D01*
X169228996Y-108294152D01*
X169214964Y-108308616D01*
X169101996Y-108325903D01*
X168976777Y-108367256D01*
X168809995Y-108490904D01*
X168801613Y-108499259D01*
X168739789Y-108551910D01*
X168675769Y-108567285D01*
X168591424Y-108530282D01*
X168468621Y-108425797D01*
X168289231Y-108238727D01*
X168035121Y-107953970D01*
X167688162Y-107556421D01*
X167435402Y-107264339D01*
X167150714Y-106930937D01*
X166921507Y-106657426D01*
X166766543Y-106466245D01*
X166704580Y-106379837D01*
X166706394Y-106364280D01*
X166803455Y-106336089D01*
X167000913Y-106346033D01*
X167323996Y-106389329D01*
X166879496Y-106109544D01*
X166673130Y-105972613D01*
X166609347Y-105924258D01*
X170259973Y-105924258D01*
X170329663Y-105955236D01*
X170374485Y-105949126D01*
X170386107Y-105898792D01*
X170373698Y-105888659D01*
X170273218Y-105898792D01*
X170259973Y-105924258D01*
X166609347Y-105924258D01*
X166501082Y-105842181D01*
X166434996Y-105768595D01*
X166446635Y-105743268D01*
X166545284Y-105613069D01*
X166722773Y-105406201D01*
X166728903Y-105399477D01*
X172299118Y-105399477D01*
X172379826Y-105510736D01*
X172452071Y-105621438D01*
X172475263Y-105750625D01*
X172474655Y-105752393D01*
X172525871Y-105816991D01*
X172701621Y-105842347D01*
X172708416Y-105842330D01*
X172889737Y-105814955D01*
X172919337Y-105732170D01*
X172909169Y-105682699D01*
X172958027Y-105571951D01*
X172977411Y-105557503D01*
X173038996Y-105437243D01*
X173033862Y-105410551D01*
X172959533Y-105401687D01*
X172893020Y-105401068D01*
X172785286Y-105300850D01*
X172707056Y-105212217D01*
X172646027Y-105256736D01*
X172588514Y-105317482D01*
X172426152Y-105362570D01*
X172351633Y-105364750D01*
X172299118Y-105399477D01*
X166728903Y-105399477D01*
X166952704Y-105154000D01*
X167068645Y-105028555D01*
X167263654Y-104808935D01*
X167387207Y-104657198D01*
X167416491Y-104600569D01*
X167388436Y-104608790D01*
X167235580Y-104674761D01*
X166986520Y-104792457D01*
X166678356Y-104944586D01*
X166524535Y-105020585D01*
X166245185Y-105150836D01*
X166044777Y-105233546D01*
X165958952Y-105253414D01*
X165956595Y-105178378D01*
X165973840Y-104967232D01*
X166007796Y-104655933D01*
X166054074Y-104279967D01*
X166108286Y-103874817D01*
X166166042Y-103475968D01*
X166189217Y-103330570D01*
X168212996Y-103330570D01*
X168215456Y-103350807D01*
X168297663Y-103415236D01*
X168317900Y-103412776D01*
X168382329Y-103330570D01*
X168379869Y-103310332D01*
X168297663Y-103245903D01*
X168277425Y-103248363D01*
X168212996Y-103330570D01*
X166189217Y-103330570D01*
X166222954Y-103118903D01*
X166238516Y-103017940D01*
X166239393Y-102962212D01*
X166214981Y-102984102D01*
X166157500Y-103099427D01*
X166059171Y-103324003D01*
X165912215Y-103673644D01*
X165708855Y-104164168D01*
X165311618Y-105124766D01*
X164553316Y-104375834D01*
X163795014Y-103626903D01*
X164268338Y-104577993D01*
X164287279Y-104616085D01*
X164464437Y-104975742D01*
X164608836Y-105274792D01*
X164706052Y-105483002D01*
X164741663Y-105570139D01*
X164665094Y-105587728D01*
X164451736Y-105605991D01*
X164134627Y-105622484D01*
X163746829Y-105635049D01*
X162751996Y-105658903D01*
X163746829Y-105979787D01*
X163777694Y-105989763D01*
X164153186Y-106114611D01*
X164459564Y-106222687D01*
X164666000Y-106302721D01*
X164741663Y-106343444D01*
X164732063Y-106366720D01*
X164651324Y-106503654D01*
X164506232Y-106730637D01*
X164318330Y-107013569D01*
X164229490Y-107146410D01*
X164058076Y-107410564D01*
X163939370Y-107604725D01*
X163894996Y-107694127D01*
X163921812Y-107690163D01*
X164058191Y-107614375D01*
X164283922Y-107469767D01*
X164569610Y-107274617D01*
X164752064Y-107147692D01*
X165013314Y-106969656D01*
X165199858Y-106847358D01*
X165279984Y-106801903D01*
X165280883Y-106802056D01*
X165326550Y-106881499D01*
X165408642Y-107078554D01*
X165510027Y-107352236D01*
X165514091Y-107363708D01*
X165619318Y-107635610D01*
X165710636Y-107828963D01*
X165768681Y-107902570D01*
X165791417Y-107879854D01*
X165831649Y-107734924D01*
X165858857Y-107500403D01*
X165868343Y-107394881D01*
X165916235Y-107177506D01*
X165987899Y-107098236D01*
X166060476Y-107133439D01*
X166249141Y-107259403D01*
X166526308Y-107460499D01*
X166868441Y-107719577D01*
X167252005Y-108019484D01*
X168412874Y-108940732D01*
X168183127Y-109108092D01*
X168069766Y-109198499D01*
X168008692Y-109301341D01*
X168062021Y-109409196D01*
X168087370Y-109441071D01*
X168122431Y-109511762D01*
X168027669Y-109489397D01*
X167890881Y-109440512D01*
X167603785Y-109344824D01*
X167259439Y-109235317D01*
X166894245Y-109122957D01*
X166544604Y-109018712D01*
X166246917Y-108933548D01*
X166037585Y-108878434D01*
X165953009Y-108864334D01*
X166012798Y-108907886D01*
X166199035Y-109004471D01*
X166482751Y-109139727D01*
X166834923Y-109299341D01*
X167183605Y-109455546D01*
X167487111Y-109594727D01*
X167699854Y-109695948D01*
X167789663Y-109744218D01*
X167789467Y-109752762D01*
X167692943Y-109757344D01*
X167493329Y-109736105D01*
X167362743Y-109718483D01*
X167029121Y-109678239D01*
X166688996Y-109641881D01*
X166223329Y-109596133D01*
X166604329Y-109725838D01*
X166687439Y-109753078D01*
X167020717Y-109848656D01*
X167321995Y-109918224D01*
X167658660Y-109980906D01*
X167477217Y-110162349D01*
X167473621Y-110165963D01*
X167362123Y-110305913D01*
X167343170Y-110391188D01*
X167347816Y-110424169D01*
X167256794Y-110489917D01*
X167193833Y-110533035D01*
X167166565Y-110654722D01*
X167169863Y-110672329D01*
X167115265Y-110810671D01*
X166969261Y-111006546D01*
X166768396Y-111223079D01*
X166549213Y-111423399D01*
X166348258Y-111570631D01*
X166202073Y-111627903D01*
X166031424Y-111610899D01*
X165647502Y-111466019D01*
X165279181Y-111190863D01*
X165252342Y-111164791D01*
X165101292Y-110994149D01*
X165055078Y-110851284D01*
X165088681Y-110667448D01*
X165132502Y-110511405D01*
X165156004Y-110388501D01*
X165113858Y-110406075D01*
X164995354Y-110550732D01*
X164898746Y-110648322D01*
X164663259Y-110824434D01*
X164386063Y-110985484D01*
X164240758Y-111051411D01*
X163709903Y-111192896D01*
X163182336Y-111196295D01*
X162681173Y-111075952D01*
X162229527Y-110846213D01*
X161850512Y-110521422D01*
X161567244Y-110115924D01*
X161402837Y-109644064D01*
X161380404Y-109120186D01*
X161381794Y-109106596D01*
X161398740Y-108838903D01*
X161376361Y-108702622D01*
X161309492Y-108664570D01*
X161200173Y-108630050D01*
X160998930Y-108491672D01*
X160778122Y-108286313D01*
X160581643Y-108056087D01*
X160453385Y-107843112D01*
X160427710Y-107775646D01*
X160352323Y-107424104D01*
X160352369Y-107070534D01*
X160429567Y-106790870D01*
X160453101Y-106749079D01*
X160539680Y-106670811D01*
X160658770Y-106732936D01*
X160692624Y-106753020D01*
X160680288Y-106699215D01*
X160579891Y-106547903D01*
X160342648Y-106141477D01*
X160187419Y-105594744D01*
X160196298Y-105030297D01*
X160371235Y-104467570D01*
X160393172Y-104422063D01*
X160693911Y-103981239D01*
X161092961Y-103636069D01*
X161554361Y-103411023D01*
X162042152Y-103330570D01*
X162097943Y-103329096D01*
X162179810Y-103303261D01*
X162223823Y-103216729D01*
X162242039Y-103033291D01*
X162246511Y-102716736D01*
X162253345Y-102508032D01*
X162345885Y-101975054D01*
X162556149Y-101538526D01*
X162896450Y-101169129D01*
X163179418Y-100957373D01*
X163687385Y-100712425D01*
X164209109Y-100633706D01*
X164752775Y-100719235D01*
X164944847Y-100767690D01*
X165102738Y-100763224D01*
X165231363Y-100680131D01*
X165283291Y-100636070D01*
X165668165Y-100422213D01*
X166130229Y-100307503D01*
X166612191Y-100300432D01*
X167056760Y-100409496D01*
X167143741Y-100449518D01*
X167541029Y-100727100D01*
X167868959Y-101106131D01*
X168077644Y-101531770D01*
X168088914Y-101568130D01*
X168156842Y-101763583D01*
X168193653Y-101806264D01*
X168207099Y-101706646D01*
X168218284Y-101578918D01*
X168282172Y-101515645D01*
X168450776Y-101547918D01*
X168827955Y-101698260D01*
X169273637Y-102010038D01*
X169621816Y-102417312D01*
X169859428Y-102891682D01*
X169956928Y-103330570D01*
X169973408Y-103404751D01*
X169950692Y-103928119D01*
X169778216Y-104433390D01*
X169641045Y-104698648D01*
X169907154Y-104501905D01*
X170044350Y-104422820D01*
X170393253Y-104321597D01*
X170782048Y-104300047D01*
X171133996Y-104366633D01*
X171204006Y-104387090D01*
X171270402Y-104363497D01*
X171300155Y-104241490D01*
X171309595Y-103985633D01*
X171359532Y-103589312D01*
X171562387Y-103064991D01*
X171585359Y-103032534D01*
X173903752Y-103032534D01*
X173913885Y-103133014D01*
X173939351Y-103146260D01*
X173970329Y-103076570D01*
X173964219Y-103031747D01*
X173913885Y-103020125D01*
X173903752Y-103032534D01*
X171585359Y-103032534D01*
X171905354Y-102580409D01*
X172371570Y-102157912D01*
X172944169Y-101819847D01*
X173017379Y-101787749D01*
X173554015Y-101638552D01*
X174159857Y-101590100D01*
X174776585Y-101642932D01*
X175345880Y-101797589D01*
X175395675Y-101817634D01*
X175962564Y-102131632D01*
X176455416Y-102559814D01*
X176850445Y-103071870D01*
X176852717Y-103076570D01*
X177123863Y-103637488D01*
G37*
G36*
X171660365Y-109695908D02*
G01*
X171671087Y-109784471D01*
X171715114Y-109987199D01*
X171798262Y-110087522D01*
X171954864Y-110136843D01*
X172030179Y-110156399D01*
X172202969Y-110270549D01*
X172332179Y-110505251D01*
X172342254Y-110530728D01*
X172371952Y-110602430D01*
X172408572Y-110670556D01*
X172447085Y-110721941D01*
X172463958Y-110744453D01*
X172549953Y-110833470D01*
X172678401Y-110946954D01*
X172861144Y-111094254D01*
X173110026Y-111284716D01*
X173436890Y-111527689D01*
X173853579Y-111832520D01*
X174371936Y-112208558D01*
X175003805Y-112665150D01*
X175761029Y-113211644D01*
X175786814Y-113230232D01*
X176206013Y-113526610D01*
X176585221Y-113784395D01*
X176900418Y-113988041D01*
X177127583Y-114121997D01*
X177242695Y-114170716D01*
X177324242Y-114185678D01*
X177550509Y-114290368D01*
X177805318Y-114460630D01*
X178031482Y-114655609D01*
X178171814Y-114834454D01*
X178254955Y-114945453D01*
X178452067Y-115131296D01*
X178491573Y-115161153D01*
X178701455Y-115319771D01*
X178738033Y-115344369D01*
X178966446Y-115490860D01*
X179111210Y-115553360D01*
X179194894Y-115545884D01*
X179596939Y-115545884D01*
X179636824Y-115651438D01*
X179764865Y-115806075D01*
X179803953Y-115843991D01*
X179930590Y-115946290D01*
X179981663Y-115951434D01*
X179980329Y-115936758D01*
X179919712Y-115810105D01*
X179804071Y-115665123D01*
X179682182Y-115555458D01*
X179602820Y-115534756D01*
X179596939Y-115545884D01*
X179194894Y-115545884D01*
X179221333Y-115543522D01*
X179345822Y-115473001D01*
X179424687Y-115427374D01*
X179692679Y-115366560D01*
X179921109Y-115457518D01*
X180090519Y-115687005D01*
X180158298Y-115951434D01*
X180181455Y-116041777D01*
X180242515Y-116224981D01*
X180431047Y-116461306D01*
X180473223Y-116490149D01*
X180689803Y-116638263D01*
X180962561Y-116707903D01*
X181100500Y-116746823D01*
X181313645Y-116888156D01*
X181510592Y-117085389D01*
X181632908Y-117287958D01*
X181651172Y-117318117D01*
X181784423Y-117448428D01*
X182010919Y-117630504D01*
X182293140Y-117838169D01*
X182593562Y-118045249D01*
X182874665Y-118225570D01*
X183098926Y-118352957D01*
X183228824Y-118401236D01*
X183341292Y-118443236D01*
X183495329Y-118570570D01*
X183629408Y-118680979D01*
X183788945Y-118739903D01*
X183884214Y-118757174D01*
X184097057Y-118899352D01*
X184300880Y-119153670D01*
X184473692Y-119482093D01*
X184549781Y-119713570D01*
X184593505Y-119846586D01*
X184638329Y-120209113D01*
X184649157Y-120418293D01*
X184710379Y-120595336D01*
X184849996Y-120721784D01*
X184865453Y-120732319D01*
X184965315Y-120856570D01*
X185027609Y-120934078D01*
X185050872Y-121176006D01*
X184928615Y-121400855D01*
X184846336Y-121470081D01*
X184643083Y-121525345D01*
X184443250Y-121411394D01*
X184374415Y-121354378D01*
X184278135Y-121356467D01*
X184140869Y-121480351D01*
X184138653Y-121482713D01*
X184013105Y-121631357D01*
X184007994Y-121640268D01*
X183960996Y-121722207D01*
X183972361Y-121737904D01*
X184091160Y-121824042D01*
X184311688Y-121959620D01*
X184599696Y-122123136D01*
X184899000Y-122299942D01*
X185182705Y-122510806D01*
X185317267Y-122681122D01*
X185391436Y-122818566D01*
X185482901Y-122888570D01*
X185501708Y-122896547D01*
X185550219Y-123012797D01*
X185569663Y-123223468D01*
X185569788Y-123248403D01*
X185569889Y-123268605D01*
X185585417Y-123438944D01*
X185649432Y-123563029D01*
X185795328Y-123683301D01*
X186056496Y-123842200D01*
X186226238Y-123944654D01*
X186427998Y-124092714D01*
X186530674Y-124228523D01*
X186569355Y-124389529D01*
X186569824Y-124393328D01*
X186574632Y-124432305D01*
X186616658Y-124565282D01*
X186665895Y-124624236D01*
X186717926Y-124686536D01*
X186748737Y-124708903D01*
X186909116Y-124825330D01*
X186917617Y-124830390D01*
X187220913Y-125010925D01*
X187438211Y-125136978D01*
X187657791Y-125277332D01*
X187773202Y-125383503D01*
X187811423Y-125483143D01*
X187799429Y-125603904D01*
X187792465Y-125644277D01*
X187789250Y-125662915D01*
X187799586Y-125795256D01*
X187897247Y-125900625D01*
X188116804Y-126024879D01*
X188320116Y-126118622D01*
X188498933Y-126158482D01*
X188632947Y-126116007D01*
X188689323Y-126085167D01*
X188992088Y-126025753D01*
X189303352Y-126110375D01*
X189478700Y-126155660D01*
X189745415Y-126099888D01*
X189755643Y-126096211D01*
X189914159Y-126052837D01*
X190056010Y-126063737D01*
X190233080Y-126143063D01*
X190311497Y-126191123D01*
X190339759Y-126208444D01*
X190497253Y-126304968D01*
X190730124Y-126465959D01*
X190903990Y-126631554D01*
X190943880Y-126759954D01*
X190933226Y-126821282D01*
X190931460Y-126833615D01*
X190901456Y-127043139D01*
X190867463Y-127317830D01*
X190851398Y-127469614D01*
X190848497Y-127634661D01*
X190890184Y-127689751D01*
X190989205Y-127671958D01*
X191091626Y-127656802D01*
X191157663Y-127702137D01*
X191163884Y-127717079D01*
X191174706Y-127743075D01*
X191273894Y-127795794D01*
X191479921Y-127841731D01*
X191813585Y-127885051D01*
X192295686Y-127929916D01*
X192467968Y-127946021D01*
X192732864Y-127984945D01*
X192832582Y-128029359D01*
X192766189Y-128080864D01*
X192532750Y-128141060D01*
X192131329Y-128211550D01*
X191931632Y-128241411D01*
X191365365Y-128311964D01*
X190723879Y-128372007D01*
X189988365Y-128422716D01*
X189140011Y-128465269D01*
X188160009Y-128500841D01*
X187029546Y-128530609D01*
X186769962Y-128536562D01*
X186153352Y-128551669D01*
X185604201Y-128566479D01*
X185142878Y-128580355D01*
X184789749Y-128592659D01*
X184565183Y-128602755D01*
X184489546Y-128610007D01*
X184507148Y-128613104D01*
X184658447Y-128622512D01*
X184944002Y-128634160D01*
X185339180Y-128647204D01*
X185819346Y-128660800D01*
X186359866Y-128674104D01*
X186589600Y-128679735D01*
X187111107Y-128695443D01*
X187563806Y-128713120D01*
X187922574Y-128731553D01*
X188162284Y-128749527D01*
X188257810Y-128765828D01*
X188227381Y-128778362D01*
X188058142Y-128795017D01*
X187765601Y-128809834D01*
X187376424Y-128821557D01*
X186917274Y-128828932D01*
X186526648Y-128832996D01*
X186144857Y-128838299D01*
X185915600Y-128844577D01*
X185829264Y-128853064D01*
X185876238Y-128864994D01*
X186046908Y-128881602D01*
X186331663Y-128904122D01*
X186333753Y-128904281D01*
X186739715Y-128929787D01*
X187249617Y-128953838D01*
X187798481Y-128973733D01*
X188321329Y-128986773D01*
X189506663Y-129007931D01*
X188744663Y-129080862D01*
X188699924Y-129084891D01*
X188386642Y-129106647D01*
X187939479Y-129130748D01*
X187387849Y-129155925D01*
X186761170Y-129180908D01*
X186088858Y-129204427D01*
X185400329Y-129225213D01*
X182817996Y-129296633D01*
X184765329Y-129321266D01*
X185266803Y-129329262D01*
X185746259Y-129341859D01*
X186063198Y-129356997D01*
X186221396Y-129374336D01*
X186224628Y-129393534D01*
X186076669Y-129414248D01*
X185781294Y-129436137D01*
X185342279Y-129458859D01*
X184763400Y-129482073D01*
X184048432Y-129505435D01*
X183201150Y-129528606D01*
X182225329Y-129551242D01*
X179092663Y-129618354D01*
X180955329Y-129671734D01*
X181557354Y-129687211D01*
X182353487Y-129704003D01*
X183191035Y-129718485D01*
X184001390Y-129729488D01*
X184715941Y-129735841D01*
X185003113Y-129738024D01*
X185515478Y-129744948D01*
X185951062Y-129754815D01*
X186286727Y-129766888D01*
X186499335Y-129780430D01*
X186565748Y-129794707D01*
X186560871Y-129796793D01*
X186439168Y-129809851D01*
X186170258Y-129825304D01*
X185772804Y-129842473D01*
X185265468Y-129860678D01*
X184666914Y-129879239D01*
X183995805Y-129897477D01*
X183270804Y-129914712D01*
X182870625Y-129922926D01*
X181605885Y-129941822D01*
X180240980Y-129952932D01*
X178809585Y-129956482D01*
X177345374Y-129952693D01*
X175882021Y-129941788D01*
X174453200Y-129923992D01*
X173092583Y-129899527D01*
X171833847Y-129868615D01*
X170710663Y-129831482D01*
X170495233Y-129823097D01*
X169562670Y-129784541D01*
X168677748Y-129744388D01*
X167855666Y-129703549D01*
X167111625Y-129662933D01*
X166460823Y-129623451D01*
X165918461Y-129586014D01*
X165499737Y-129551531D01*
X165219853Y-129520914D01*
X165094006Y-129495072D01*
X165094514Y-129482738D01*
X165213943Y-129458654D01*
X165470130Y-129434147D01*
X165841812Y-129410083D01*
X166307727Y-129387328D01*
X166846612Y-129366748D01*
X167437205Y-129349208D01*
X168058244Y-129335576D01*
X168688465Y-129326716D01*
X169306607Y-129323495D01*
X169645099Y-129322153D01*
X170057444Y-129316512D01*
X170381031Y-129307242D01*
X170589005Y-129295188D01*
X170654507Y-129281191D01*
X170628652Y-129275017D01*
X170461769Y-129262578D01*
X170162234Y-129250987D01*
X169754697Y-129240919D01*
X169263812Y-129233049D01*
X168714229Y-129228052D01*
X168563888Y-129227004D01*
X167954824Y-129219591D01*
X167360707Y-129207798D01*
X166820131Y-129192661D01*
X166371696Y-129175220D01*
X166053996Y-129156511D01*
X165291996Y-129096064D01*
X165969329Y-129071158D01*
X166124581Y-129061487D01*
X166168513Y-129046323D01*
X166081879Y-129025124D01*
X165856995Y-128996937D01*
X165486176Y-128960808D01*
X164961738Y-128915782D01*
X164275996Y-128860905D01*
X164158708Y-128851648D01*
X163563291Y-128801757D01*
X163045615Y-128753557D01*
X162623912Y-128709093D01*
X162316418Y-128670413D01*
X162141368Y-128639562D01*
X162116996Y-128618588D01*
X162152255Y-128609529D01*
X162411600Y-128553881D01*
X162766665Y-128488362D01*
X163165073Y-128421470D01*
X163554447Y-128361698D01*
X163882411Y-128317543D01*
X164096587Y-128297500D01*
X164165742Y-128294693D01*
X164268221Y-128284165D01*
X164223479Y-128261899D01*
X164021996Y-128217712D01*
X163864743Y-128191954D01*
X163528191Y-128158102D01*
X163182385Y-128142782D01*
X162958174Y-128135461D01*
X162778488Y-128117038D01*
X162727022Y-128092322D01*
X162733403Y-128089472D01*
X162856674Y-128069067D01*
X163110921Y-128039026D01*
X163464972Y-128002148D01*
X163887655Y-127961231D01*
X164347796Y-127919076D01*
X164814222Y-127878481D01*
X165255761Y-127842246D01*
X165641240Y-127813170D01*
X165858614Y-127799236D01*
X175818605Y-127799236D01*
X176799467Y-127799236D01*
X180971887Y-127799236D01*
X181326099Y-127799236D01*
X181602792Y-127767990D01*
X181729045Y-127672236D01*
X181764407Y-127613414D01*
X181889513Y-127545236D01*
X181954385Y-127522836D01*
X182040814Y-127397070D01*
X182055615Y-127347718D01*
X182091786Y-127318061D01*
X182142448Y-127442788D01*
X182179374Y-127544726D01*
X182241807Y-127585755D01*
X182363089Y-127493165D01*
X182447846Y-127419628D01*
X182510417Y-127399106D01*
X182521663Y-127498839D01*
X182540731Y-127582311D01*
X182643193Y-127601384D01*
X182705681Y-127591404D01*
X182809951Y-127655826D01*
X182862567Y-127696307D01*
X182963588Y-127601577D01*
X183062071Y-127468419D01*
X183220163Y-127271122D01*
X183316943Y-127162671D01*
X183361866Y-127164585D01*
X183368329Y-127318519D01*
X183372880Y-127424890D01*
X183423453Y-127500591D01*
X183570910Y-127464024D01*
X183733456Y-127427634D01*
X183965149Y-127437123D01*
X183998460Y-127445388D01*
X184106127Y-127449064D01*
X184086682Y-127368073D01*
X184082546Y-127360736D01*
X184093180Y-127331822D01*
X184198850Y-127408750D01*
X184321940Y-127508680D01*
X184392766Y-127507921D01*
X184450145Y-127382070D01*
X184502211Y-127260304D01*
X184550974Y-127267138D01*
X184636963Y-127415682D01*
X184751311Y-127557969D01*
X184865887Y-127593187D01*
X184924393Y-127589891D01*
X184976996Y-127685260D01*
X185000426Y-127771861D01*
X185095763Y-127721403D01*
X185167197Y-127679228D01*
X185243929Y-127697959D01*
X185311432Y-127741681D01*
X185500168Y-127790283D01*
X185748741Y-127825438D01*
X185996675Y-127839085D01*
X186183496Y-127823166D01*
X186261895Y-127793300D01*
X186331663Y-127717079D01*
X186320357Y-127704010D01*
X186201796Y-127613878D01*
X185972414Y-127453446D01*
X185654933Y-127237608D01*
X185272073Y-126981258D01*
X184957102Y-126772543D01*
X188638578Y-126772543D01*
X188639443Y-126982624D01*
X188658323Y-127024895D01*
X188677976Y-126987049D01*
X189727970Y-126987049D01*
X189744112Y-127091240D01*
X189762629Y-127084605D01*
X189805847Y-126966736D01*
X189848591Y-126748663D01*
X189870547Y-126626673D01*
X189925158Y-126435335D01*
X189979070Y-126359903D01*
X189996056Y-126362043D01*
X190139389Y-126410119D01*
X190348383Y-126501595D01*
X190505704Y-126587029D01*
X190601726Y-126695640D01*
X190596077Y-126840262D01*
X190583723Y-126968390D01*
X190640484Y-127037236D01*
X190701082Y-126988785D01*
X190734329Y-126833615D01*
X190715854Y-126729157D01*
X190600042Y-126576164D01*
X190352144Y-126406017D01*
X190203821Y-126325967D01*
X190003003Y-126242589D01*
X189891369Y-126230612D01*
X189866368Y-126260758D01*
X189805766Y-126422099D01*
X189755355Y-126662121D01*
X189740498Y-126776966D01*
X189727970Y-126987049D01*
X188677976Y-126987049D01*
X188696131Y-126952086D01*
X188740585Y-126740903D01*
X188770250Y-126591655D01*
X188837243Y-126366482D01*
X188904581Y-126247624D01*
X188944362Y-126208444D01*
X188875553Y-126211049D01*
X188866480Y-126214181D01*
X188762761Y-126323940D01*
X188750134Y-126354390D01*
X188730292Y-126402236D01*
X188680329Y-126522717D01*
X188638578Y-126772543D01*
X184957102Y-126772543D01*
X184846554Y-126699289D01*
X184401099Y-126406595D01*
X184394411Y-126402236D01*
X186924329Y-126402236D01*
X186966663Y-126444570D01*
X187008996Y-126402236D01*
X186966663Y-126359903D01*
X186924329Y-126402236D01*
X184394411Y-126402236D01*
X184078118Y-126196082D01*
X186691088Y-126196082D01*
X186712663Y-126275236D01*
X186730058Y-126300299D01*
X186807323Y-126359903D01*
X186818904Y-126354390D01*
X186797329Y-126275236D01*
X186779935Y-126250173D01*
X186702669Y-126190570D01*
X186691088Y-126196082D01*
X184078118Y-126196082D01*
X184004710Y-126148236D01*
X186500996Y-126148236D01*
X186543329Y-126190570D01*
X186585663Y-126148236D01*
X186543329Y-126105903D01*
X186500996Y-126148236D01*
X184004710Y-126148236D01*
X183958428Y-126118070D01*
X183602680Y-125888278D01*
X186077663Y-125888278D01*
X186113938Y-125933800D01*
X186246996Y-126021236D01*
X186354105Y-126068952D01*
X186416329Y-126069527D01*
X186392703Y-126039879D01*
X187777089Y-126039879D01*
X187797802Y-126069527D01*
X187833762Y-126120998D01*
X187850230Y-126148236D01*
X187883507Y-126203274D01*
X187883150Y-126304193D01*
X187853695Y-126340038D01*
X187885641Y-126351282D01*
X188015268Y-126283040D01*
X188045460Y-126261253D01*
X188060796Y-126191123D01*
X187930601Y-126101142D01*
X187833214Y-126051222D01*
X187777089Y-126039879D01*
X186392703Y-126039879D01*
X186380054Y-126024006D01*
X186246996Y-125936570D01*
X186139888Y-125888854D01*
X186077663Y-125888278D01*
X183602680Y-125888278D01*
X183541262Y-125848606D01*
X183172323Y-125613097D01*
X182874330Y-125426436D01*
X182670005Y-125303518D01*
X182598696Y-125267609D01*
X185084181Y-125267609D01*
X185139106Y-125319015D01*
X185194553Y-125358567D01*
X185428054Y-125510160D01*
X185689439Y-125665124D01*
X185809729Y-125729611D01*
X185885811Y-125758863D01*
X185830886Y-125707458D01*
X185775440Y-125667905D01*
X185541938Y-125516313D01*
X185280553Y-125361348D01*
X185160264Y-125296862D01*
X185084181Y-125267609D01*
X182598696Y-125267609D01*
X182582069Y-125259236D01*
X182567951Y-125274316D01*
X182548551Y-125319116D01*
X182512412Y-125402570D01*
X182454608Y-125577478D01*
X182440862Y-125619070D01*
X182336521Y-125923283D01*
X181966662Y-126645555D01*
X181877992Y-126757186D01*
X181440604Y-127307835D01*
X181038568Y-127729328D01*
X180971887Y-127799236D01*
X176799467Y-127799236D01*
X177168260Y-127794078D01*
X177486101Y-127779132D01*
X177701223Y-127756757D01*
X177780329Y-127729328D01*
X177779219Y-127721188D01*
X177709552Y-127611153D01*
X177564811Y-127456951D01*
X177497408Y-127388037D01*
X177303897Y-127153945D01*
X177188188Y-126988855D01*
X179642996Y-126988855D01*
X179696127Y-127028876D01*
X179875829Y-126981163D01*
X179890548Y-126973705D01*
X179963278Y-126876944D01*
X179983224Y-126757186D01*
X179933282Y-126698570D01*
X179922943Y-126700151D01*
X179817396Y-126770713D01*
X179699091Y-126891937D01*
X179642996Y-126988855D01*
X177188188Y-126988855D01*
X177120311Y-126892010D01*
X177034415Y-126762473D01*
X176978625Y-126689453D01*
X179157443Y-126689453D01*
X179162418Y-126817242D01*
X179165036Y-126823883D01*
X179275340Y-126940496D01*
X179447742Y-126899970D01*
X179681619Y-126702442D01*
X179883541Y-126491682D01*
X180869924Y-126491682D01*
X180949017Y-126449975D01*
X181117202Y-126268662D01*
X181287550Y-126050297D01*
X181455609Y-125780920D01*
X181530669Y-125577478D01*
X181499719Y-125467230D01*
X181466090Y-125449312D01*
X181387904Y-125441258D01*
X181340205Y-125522497D01*
X181233581Y-125711433D01*
X181091650Y-125966294D01*
X180980581Y-126174834D01*
X180880314Y-126398422D01*
X180874310Y-126452315D01*
X180869924Y-126491682D01*
X179883541Y-126491682D01*
X179921257Y-126452315D01*
X179720737Y-125516455D01*
X179645623Y-125188200D01*
X179566993Y-124900286D01*
X179505632Y-124741007D01*
X179467667Y-124729416D01*
X179449146Y-124789151D01*
X179393048Y-125030156D01*
X179331730Y-125357622D01*
X179271350Y-125729417D01*
X179218069Y-126103409D01*
X179178046Y-126437465D01*
X179157443Y-126689453D01*
X176978625Y-126689453D01*
X176906450Y-126594989D01*
X176830004Y-126529388D01*
X176828911Y-126529420D01*
X176750192Y-126599027D01*
X176648012Y-126762070D01*
X176562537Y-126899956D01*
X176459597Y-127039645D01*
X176383938Y-127142313D01*
X176172975Y-127397070D01*
X175818605Y-127799236D01*
X165858614Y-127799236D01*
X165939486Y-127794052D01*
X166119326Y-127787692D01*
X166197398Y-127772748D01*
X166211270Y-127695057D01*
X166200091Y-127642952D01*
X166303534Y-127658808D01*
X166408005Y-127676495D01*
X166404639Y-127588248D01*
X166386995Y-127528665D01*
X166423938Y-127513930D01*
X166566715Y-127598447D01*
X166696281Y-127675149D01*
X166811749Y-127684908D01*
X166942199Y-127588291D01*
X167062351Y-127510843D01*
X167321029Y-127480725D01*
X167386512Y-127493321D01*
X167504928Y-127503409D01*
X167518908Y-127437848D01*
X167453092Y-127254415D01*
X167416755Y-127143529D01*
X167422539Y-127051006D01*
X167522397Y-127091343D01*
X167721530Y-127264743D01*
X167777336Y-127315367D01*
X167907134Y-127404298D01*
X167958996Y-127391026D01*
X167959031Y-127386943D01*
X167994095Y-127332196D01*
X168119571Y-127390082D01*
X168229113Y-127435754D01*
X168360344Y-127403683D01*
X168549429Y-127263774D01*
X168640957Y-127191530D01*
X168946903Y-127017644D01*
X169217466Y-126961220D01*
X169425346Y-127023818D01*
X169543242Y-127206997D01*
X169597070Y-127339810D01*
X169689022Y-127354946D01*
X169859012Y-127246210D01*
X169968832Y-127179334D01*
X170261955Y-127131462D01*
X170602751Y-127243325D01*
X170676633Y-127278982D01*
X170733102Y-127285504D01*
X170713556Y-127215811D01*
X170610027Y-127049739D01*
X170414544Y-126767123D01*
X170285497Y-126568076D01*
X172054954Y-126568076D01*
X172068205Y-126625056D01*
X172183068Y-126762549D01*
X172380046Y-126924839D01*
X172627385Y-127099566D01*
X172819320Y-127212979D01*
X172954904Y-127236657D01*
X173030040Y-127173304D01*
X173897117Y-127173304D01*
X173897596Y-127299110D01*
X173945100Y-127366123D01*
X174097329Y-127395712D01*
X174240631Y-127364435D01*
X174488342Y-127287912D01*
X174730099Y-127194293D01*
X174913546Y-127104548D01*
X174986329Y-127039645D01*
X174981885Y-127011231D01*
X174935396Y-126845946D01*
X174848981Y-126576865D01*
X174790360Y-126403149D01*
X175689711Y-126403149D01*
X175728173Y-126415508D01*
X175847775Y-126296922D01*
X175914384Y-126211406D01*
X176052062Y-126009473D01*
X176190819Y-125784654D01*
X176298011Y-125590879D01*
X176340996Y-125482076D01*
X176327535Y-125427173D01*
X176250788Y-125452557D01*
X176114712Y-125613542D01*
X175929192Y-125900096D01*
X175843191Y-126049035D01*
X175729135Y-126275705D01*
X175689711Y-126403149D01*
X174790360Y-126403149D01*
X174735909Y-126241791D01*
X174609452Y-125878530D01*
X174482880Y-125524887D01*
X174369462Y-125218666D01*
X174282469Y-124997673D01*
X174235171Y-124899711D01*
X174225642Y-124901740D01*
X174187697Y-125010738D01*
X174137261Y-125249785D01*
X174079773Y-125590833D01*
X174020671Y-126005834D01*
X174004088Y-126134301D01*
X173953642Y-126556444D01*
X173916892Y-126914263D01*
X173897117Y-127173304D01*
X173030040Y-127173304D01*
X173051477Y-127155229D01*
X173126380Y-126953323D01*
X173196952Y-126615569D01*
X173280534Y-126126594D01*
X173298167Y-126021914D01*
X173372891Y-125580730D01*
X173439911Y-125188627D01*
X173492482Y-124884914D01*
X173523855Y-124708903D01*
X173520746Y-124642876D01*
X173459792Y-124670303D01*
X173330483Y-124809732D01*
X173124100Y-125070663D01*
X172831920Y-125462594D01*
X172716806Y-125620033D01*
X172466010Y-125967229D01*
X172259539Y-126258843D01*
X172116239Y-126468063D01*
X172054954Y-126568076D01*
X170285497Y-126568076D01*
X170195635Y-126429469D01*
X169767304Y-125563713D01*
X169465666Y-124629316D01*
X170922329Y-124629316D01*
X170922676Y-124632131D01*
X170955919Y-124736389D01*
X171032772Y-124951844D01*
X171138133Y-125236040D01*
X171146718Y-125258760D01*
X171261909Y-125547495D01*
X171361213Y-125769882D01*
X171423967Y-125879407D01*
X171451838Y-125874542D01*
X171573427Y-125774085D01*
X171768726Y-125572208D01*
X172017956Y-125289905D01*
X172301338Y-124948170D01*
X172452115Y-124759996D01*
X172708104Y-124434369D01*
X172903518Y-124177845D01*
X174732329Y-124177845D01*
X174733342Y-124182870D01*
X174769467Y-124295872D01*
X174849683Y-124532007D01*
X174910941Y-124708903D01*
X174963487Y-124860640D01*
X175100371Y-125251136D01*
X175468413Y-126295439D01*
X175639327Y-126052504D01*
X175792772Y-125814894D01*
X175942757Y-125549941D01*
X176030982Y-125377090D01*
X177983027Y-125377090D01*
X178012802Y-125482076D01*
X178024725Y-125524117D01*
X178134985Y-125789405D01*
X178276997Y-126047818D01*
X178434286Y-126286067D01*
X178621416Y-125455152D01*
X178672620Y-125228816D01*
X178752324Y-124880616D01*
X178815964Y-124607639D01*
X178853111Y-124454903D01*
X178856244Y-124437547D01*
X178808501Y-124424057D01*
X178658771Y-124533799D01*
X178413709Y-124762117D01*
X178215255Y-124959782D01*
X178058412Y-125133866D01*
X177987630Y-125259987D01*
X177986438Y-125290312D01*
X177983027Y-125377090D01*
X176030982Y-125377090D01*
X176075275Y-125290312D01*
X175403802Y-124719584D01*
X175399857Y-124716259D01*
X177739751Y-124716259D01*
X177782972Y-124730387D01*
X177927189Y-124634118D01*
X178163138Y-124430126D01*
X178295726Y-124304328D01*
X178356096Y-124243236D01*
X180084603Y-124243236D01*
X180115841Y-124353426D01*
X180138411Y-124437547D01*
X180181411Y-124597816D01*
X180269686Y-124933656D01*
X180370545Y-125322736D01*
X180466681Y-125680703D01*
X180557636Y-125989433D01*
X180628588Y-126198394D01*
X180669388Y-126275236D01*
X180764372Y-126216940D01*
X180898717Y-126026951D01*
X181080127Y-125691343D01*
X181267750Y-125319116D01*
X180655856Y-124717676D01*
X180464110Y-124533711D01*
X180256472Y-124347677D01*
X180122417Y-124244580D01*
X180084603Y-124243236D01*
X178356096Y-124243236D01*
X178487244Y-124110518D01*
X178585027Y-124003534D01*
X180658436Y-124003534D01*
X180671098Y-124059081D01*
X180788592Y-124204479D01*
X180993815Y-124415578D01*
X181265466Y-124669024D01*
X181409968Y-124798298D01*
X181654028Y-125013833D01*
X181787117Y-125123750D01*
X181819120Y-125133895D01*
X181759924Y-125050109D01*
X181683760Y-124956945D01*
X184553663Y-124956945D01*
X184589938Y-125002467D01*
X184722996Y-125089903D01*
X184821746Y-125133895D01*
X184830105Y-125137619D01*
X184892329Y-125138194D01*
X184856054Y-125092672D01*
X184722996Y-125005236D01*
X184615888Y-124957520D01*
X184553663Y-124956945D01*
X181683760Y-124956945D01*
X181619414Y-124878236D01*
X182606329Y-124878236D01*
X182648663Y-124920570D01*
X182690996Y-124878236D01*
X184384329Y-124878236D01*
X184426663Y-124920570D01*
X184468996Y-124878236D01*
X184455311Y-124864551D01*
X186596006Y-124864551D01*
X186607484Y-124878236D01*
X186691681Y-124978621D01*
X186775509Y-125107249D01*
X186776569Y-125138194D01*
X186778928Y-125207082D01*
X186775494Y-125231673D01*
X186877299Y-125206990D01*
X186979309Y-125182920D01*
X186976155Y-125243878D01*
X186959884Y-125298787D01*
X187050394Y-125290213D01*
X187126302Y-125275974D01*
X187160625Y-125344099D01*
X187162046Y-125395656D01*
X187253615Y-125492470D01*
X187321402Y-125501276D01*
X187303541Y-125418387D01*
X187278411Y-125365358D01*
X187308317Y-125367520D01*
X187338569Y-125402224D01*
X187390816Y-125520882D01*
X187394116Y-125621755D01*
X187340230Y-125635643D01*
X187316673Y-125623206D01*
X187262996Y-125632261D01*
X187299223Y-125678985D01*
X187419700Y-125758863D01*
X187432329Y-125767236D01*
X187504935Y-125802176D01*
X187584496Y-125792000D01*
X187601663Y-125644277D01*
X187563625Y-125500074D01*
X187422651Y-125335178D01*
X187159430Y-125147748D01*
X186754996Y-124921595D01*
X186621899Y-124855127D01*
X186596006Y-124864551D01*
X184455311Y-124864551D01*
X184426663Y-124835903D01*
X184384329Y-124878236D01*
X182690996Y-124878236D01*
X182648663Y-124835903D01*
X182606329Y-124878236D01*
X181619414Y-124878236D01*
X181392635Y-124617024D01*
X181705405Y-124617024D01*
X181746717Y-124772157D01*
X181817473Y-124760083D01*
X181858237Y-124672082D01*
X184151088Y-124672082D01*
X184172663Y-124751236D01*
X184190058Y-124776299D01*
X184267323Y-124835903D01*
X184278904Y-124830390D01*
X184257329Y-124751236D01*
X184239935Y-124726173D01*
X184217547Y-124708903D01*
X185992996Y-124708903D01*
X186035329Y-124751236D01*
X186077663Y-124708903D01*
X186035329Y-124666570D01*
X185992996Y-124708903D01*
X184217547Y-124708903D01*
X184162669Y-124666570D01*
X184151088Y-124672082D01*
X181858237Y-124672082D01*
X181894862Y-124593016D01*
X181973278Y-124282382D01*
X182048544Y-123841070D01*
X182069456Y-123642957D01*
X182049879Y-123515215D01*
X181972330Y-123481236D01*
X181876057Y-123546306D01*
X181843857Y-123756403D01*
X181843713Y-123765405D01*
X181843433Y-123782968D01*
X181813952Y-124065404D01*
X181752408Y-124359220D01*
X181705405Y-124617024D01*
X181392635Y-124617024D01*
X181300645Y-124511066D01*
X181009725Y-124215231D01*
X180792406Y-124043096D01*
X180658436Y-124003534D01*
X178585027Y-124003534D01*
X178643271Y-123939810D01*
X178743016Y-123816630D01*
X178765688Y-123765405D01*
X178690496Y-123810562D01*
X178655204Y-123837241D01*
X178562949Y-123881988D01*
X178540052Y-123809103D01*
X178533858Y-123790768D01*
X178456800Y-123822972D01*
X178306155Y-123967640D01*
X178100204Y-124205780D01*
X178085167Y-124225127D01*
X177857228Y-124518403D01*
X177806794Y-124589061D01*
X177739751Y-124716259D01*
X175399857Y-124716259D01*
X175190577Y-124539857D01*
X174953716Y-124344550D01*
X174792106Y-124216731D01*
X174732329Y-124177845D01*
X172903518Y-124177845D01*
X172909680Y-124169756D01*
X173039236Y-123989501D01*
X173079162Y-123916949D01*
X173012711Y-123926241D01*
X172818363Y-123979257D01*
X172532498Y-124066144D01*
X172191311Y-124174948D01*
X171830995Y-124293714D01*
X171487745Y-124410488D01*
X171197755Y-124513316D01*
X170997218Y-124590243D01*
X170922329Y-124629316D01*
X169465666Y-124629316D01*
X169461971Y-124617869D01*
X169337516Y-123913918D01*
X175500677Y-123913918D01*
X175503212Y-123916949D01*
X175642287Y-124083263D01*
X175655725Y-124095378D01*
X175862119Y-124274420D01*
X176038179Y-124416804D01*
X176126208Y-124478934D01*
X176174271Y-124473045D01*
X176145168Y-124327903D01*
X176111532Y-124163253D01*
X176088152Y-123925736D01*
X176085996Y-123879517D01*
X176027649Y-123765196D01*
X175854163Y-123736533D01*
X175691725Y-123745209D01*
X175516659Y-123802047D01*
X175500677Y-123913918D01*
X169337516Y-123913918D01*
X169286227Y-123623814D01*
X169246664Y-122613422D01*
X169349874Y-121618570D01*
X169362684Y-121549801D01*
X169556875Y-120814236D01*
X169728206Y-120814236D01*
X169862305Y-120581403D01*
X169930458Y-120468442D01*
X170015501Y-120362638D01*
X170034333Y-120412575D01*
X169986534Y-120618129D01*
X169972480Y-120668422D01*
X169931275Y-120860806D01*
X169947419Y-120903419D01*
X170011658Y-120800672D01*
X170114740Y-120556980D01*
X170137330Y-120498607D01*
X170233234Y-120277330D01*
X170283730Y-120213394D01*
X170288224Y-120301747D01*
X170246124Y-120537336D01*
X170156834Y-120915109D01*
X170129306Y-121027967D01*
X170046342Y-121470582D01*
X170008667Y-121927490D01*
X170009073Y-122474792D01*
X170033329Y-123354236D01*
X170038213Y-123263864D01*
X170752996Y-123263864D01*
X170761918Y-123558451D01*
X170796097Y-123754596D01*
X170858829Y-123813015D01*
X170974864Y-123795239D01*
X171225670Y-123734100D01*
X171368025Y-123692903D01*
X177512813Y-123692903D01*
X177560748Y-123904570D01*
X177589411Y-124067523D01*
X177609840Y-124306736D01*
X177637990Y-124462485D01*
X177700858Y-124473045D01*
X177719778Y-124476223D01*
X177843337Y-124331121D01*
X177891839Y-124225127D01*
X177866909Y-124100760D01*
X177729945Y-123928955D01*
X177512813Y-123692903D01*
X171368025Y-123692903D01*
X171542741Y-123642341D01*
X171887866Y-123532711D01*
X172222836Y-123417960D01*
X172509437Y-123310835D01*
X172709460Y-123224087D01*
X172784692Y-123170463D01*
X172779941Y-123138626D01*
X172739554Y-123093838D01*
X172635932Y-123053006D01*
X172442943Y-123009398D01*
X172190240Y-122965885D01*
X180835101Y-122965885D01*
X180933161Y-122895564D01*
X180955518Y-122879067D01*
X181064793Y-122828127D01*
X181118704Y-122900201D01*
X181139865Y-122972967D01*
X181183016Y-123170463D01*
X181183206Y-123171332D01*
X181204272Y-123244211D01*
X181259520Y-123269787D01*
X181312598Y-123177777D01*
X181334265Y-123014365D01*
X181471224Y-123014365D01*
X181602183Y-123043723D01*
X181890896Y-123048434D01*
X182394663Y-123038964D01*
X181979674Y-122959655D01*
X181930293Y-122950597D01*
X181630598Y-122922397D01*
X181475908Y-122969125D01*
X181472835Y-122998801D01*
X181471224Y-123014365D01*
X181334265Y-123014365D01*
X181336329Y-122998801D01*
X181333457Y-122949419D01*
X181253742Y-122783803D01*
X181101765Y-122745032D01*
X180927598Y-122851188D01*
X180854974Y-122931840D01*
X180835101Y-122965885D01*
X172190240Y-122965885D01*
X172134453Y-122956279D01*
X171684329Y-122886914D01*
X171645913Y-122881096D01*
X171320802Y-122829142D01*
X171054400Y-122782118D01*
X170901163Y-122749574D01*
X170828170Y-122743829D01*
X170779987Y-122803699D01*
X170758139Y-122965902D01*
X170752996Y-123263864D01*
X170038213Y-123263864D01*
X170071468Y-122648583D01*
X177610996Y-122648583D01*
X177657402Y-122693723D01*
X177810846Y-122719236D01*
X177884570Y-122721012D01*
X178134565Y-122736363D01*
X178424679Y-122762337D01*
X178525341Y-122772072D01*
X178714340Y-122782225D01*
X178756002Y-122769362D01*
X178664646Y-122739163D01*
X178454593Y-122697307D01*
X178431775Y-122693836D01*
X180404996Y-122693836D01*
X180409860Y-122769362D01*
X180411967Y-122802071D01*
X180460474Y-122868363D01*
X180580736Y-122828480D01*
X180802088Y-122681510D01*
X180902294Y-122605063D01*
X181003764Y-122484605D01*
X180975654Y-122392428D01*
X180809550Y-122299857D01*
X180616887Y-122325334D01*
X180465991Y-122465135D01*
X180404996Y-122693836D01*
X178431775Y-122693836D01*
X178140163Y-122649477D01*
X177992284Y-122634570D01*
X180005982Y-122634570D01*
X180046901Y-122610018D01*
X180167444Y-122496531D01*
X180313936Y-122338561D01*
X180437602Y-122189672D01*
X180489663Y-122103427D01*
X180450178Y-122059334D01*
X180344336Y-122109438D01*
X180214499Y-122230523D01*
X180103357Y-122390830D01*
X180093353Y-122410353D01*
X180020243Y-122569344D01*
X180017486Y-122581953D01*
X180005982Y-122634570D01*
X177992284Y-122634570D01*
X177885901Y-122623846D01*
X177687129Y-122622478D01*
X177610996Y-122648583D01*
X170071468Y-122648583D01*
X170084697Y-122403815D01*
X170754884Y-122403815D01*
X170759349Y-122498068D01*
X170788148Y-122510011D01*
X170948375Y-122535712D01*
X171210756Y-122559881D01*
X171536576Y-122580898D01*
X171887123Y-122597142D01*
X172223681Y-122606991D01*
X172507538Y-122608823D01*
X172699980Y-122601018D01*
X172762292Y-122581953D01*
X172738778Y-122555457D01*
X172600979Y-122442474D01*
X172569899Y-122419765D01*
X179587802Y-122419765D01*
X179595500Y-122530629D01*
X179632010Y-122526919D01*
X179698142Y-122420045D01*
X179713968Y-122380043D01*
X179760401Y-122314879D01*
X179806069Y-122405055D01*
X179836335Y-122461257D01*
X179899761Y-122441693D01*
X180005574Y-122281564D01*
X180040061Y-122219690D01*
X180114870Y-122037699D01*
X180075107Y-121967176D01*
X179916225Y-121993466D01*
X179914249Y-121994110D01*
X179784346Y-122089253D01*
X179783734Y-122090074D01*
X179663140Y-122251889D01*
X179587802Y-122419765D01*
X172569899Y-122419765D01*
X172374202Y-122276774D01*
X172279870Y-122211236D01*
X173454593Y-122211236D01*
X174199294Y-122195983D01*
X174249876Y-122194843D01*
X174694960Y-122178305D01*
X175154524Y-122152051D01*
X175536663Y-122121221D01*
X175669276Y-122105395D01*
X175707291Y-122090074D01*
X175579965Y-122082324D01*
X175289516Y-122082245D01*
X174838163Y-122089935D01*
X173546996Y-122118159D01*
X173546996Y-121921281D01*
X173547400Y-121916017D01*
X180574329Y-121916017D01*
X180584671Y-121929657D01*
X180686239Y-121982063D01*
X180701094Y-121982448D01*
X180827309Y-121923519D01*
X180927165Y-121859463D01*
X181707841Y-121859463D01*
X181715867Y-121902733D01*
X181739006Y-122037699D01*
X181750274Y-122103427D01*
X181759549Y-122157531D01*
X181804906Y-122444070D01*
X181812382Y-122484605D01*
X181822524Y-122539596D01*
X181882551Y-122728725D01*
X181948130Y-122803903D01*
X181952802Y-122802872D01*
X181981985Y-122711962D01*
X181990436Y-122509806D01*
X181981158Y-122247114D01*
X181957156Y-121974596D01*
X181921433Y-121742962D01*
X181876993Y-121602924D01*
X181842941Y-121563838D01*
X181763020Y-121571147D01*
X181708291Y-121684394D01*
X181707841Y-121859463D01*
X180927165Y-121859463D01*
X181035627Y-121789886D01*
X181289046Y-121609499D01*
X181550561Y-121410307D01*
X181783171Y-121220260D01*
X181949873Y-121067308D01*
X182013663Y-120979402D01*
X181964057Y-120973432D01*
X181807399Y-121043555D01*
X181575729Y-121176956D01*
X181302039Y-121354472D01*
X181019327Y-121556938D01*
X180798718Y-121726558D01*
X180667736Y-121832159D01*
X180636351Y-121857462D01*
X180574329Y-121916017D01*
X173547400Y-121916017D01*
X173559609Y-121756925D01*
X177710639Y-121756925D01*
X177780329Y-121787903D01*
X177825152Y-121781793D01*
X177836774Y-121731458D01*
X177824365Y-121721325D01*
X177723885Y-121731458D01*
X177710639Y-121756925D01*
X173559609Y-121756925D01*
X173564031Y-121699305D01*
X173570979Y-121655531D01*
X174522078Y-121655531D01*
X174571582Y-121690316D01*
X174774663Y-121700643D01*
X174832124Y-121699524D01*
X175076465Y-121671817D01*
X175240329Y-121618570D01*
X175281248Y-121581608D01*
X175231743Y-121546823D01*
X175028663Y-121536496D01*
X174971202Y-121537615D01*
X174726861Y-121565322D01*
X174562996Y-121618570D01*
X174522078Y-121655531D01*
X173570979Y-121655531D01*
X173605403Y-121438653D01*
X173612639Y-121403394D01*
X173651226Y-121243092D01*
X173681470Y-121234440D01*
X173723963Y-121364570D01*
X173764294Y-121489516D01*
X173783534Y-121470985D01*
X173792557Y-121294861D01*
X173791923Y-121179350D01*
X173764644Y-121088601D01*
X174097329Y-121088601D01*
X174351329Y-121147033D01*
X174561671Y-121207497D01*
X174752347Y-121285017D01*
X174902141Y-121333834D01*
X175133347Y-121354552D01*
X175367329Y-121344535D01*
X175257863Y-121320534D01*
X177036419Y-121320534D01*
X177046552Y-121421014D01*
X177072018Y-121434260D01*
X177102996Y-121364570D01*
X177096886Y-121319747D01*
X177046552Y-121308125D01*
X177036419Y-121320534D01*
X175257863Y-121320534D01*
X175113329Y-121288844D01*
X175090057Y-121283591D01*
X174997362Y-121252244D01*
X175018546Y-121219526D01*
X175171373Y-121176909D01*
X175473609Y-121115863D01*
X175529327Y-121105013D01*
X175805705Y-121043881D01*
X175990040Y-120990581D01*
X175994922Y-120987470D01*
X176608043Y-120987470D01*
X176629318Y-121000905D01*
X176723068Y-120876320D01*
X176838245Y-120756807D01*
X176934609Y-120730154D01*
X176975401Y-120718107D01*
X177072165Y-120594986D01*
X177183843Y-120379820D01*
X177283140Y-120172387D01*
X177368423Y-120041084D01*
X177398728Y-120058071D01*
X177368035Y-120214791D01*
X177270320Y-120502691D01*
X177206684Y-120682242D01*
X177133798Y-120931448D01*
X177107135Y-121090311D01*
X177107245Y-121092950D01*
X177137369Y-121092977D01*
X177209282Y-120961932D01*
X177269659Y-120818158D01*
X177953187Y-120818158D01*
X177970453Y-120859717D01*
X178079546Y-121010367D01*
X178267051Y-121232752D01*
X178387583Y-121364570D01*
X178507295Y-121495491D01*
X178590725Y-121581608D01*
X178677043Y-121670705D01*
X178741008Y-121731458D01*
X178817393Y-121804007D01*
X178866124Y-121832159D01*
X178811568Y-121745570D01*
X178778670Y-121701859D01*
X178543934Y-121403729D01*
X178321282Y-121141730D01*
X178133450Y-120940426D01*
X178003174Y-120824381D01*
X177953187Y-120818158D01*
X177269659Y-120818158D01*
X177307889Y-120727122D01*
X177435491Y-120412349D01*
X177715449Y-119841801D01*
X179347806Y-119841801D01*
X179363488Y-120179236D01*
X179367331Y-120240158D01*
X179399295Y-120643221D01*
X179439337Y-121029274D01*
X179479720Y-121322236D01*
X179492368Y-121392169D01*
X179517113Y-121485715D01*
X179528226Y-121432564D01*
X179526212Y-121225316D01*
X179523958Y-121168531D01*
X180258941Y-121168531D01*
X180313487Y-121110570D01*
X180358249Y-121057747D01*
X180399967Y-121067455D01*
X180386674Y-121195125D01*
X180317961Y-121413133D01*
X180312185Y-121432564D01*
X180267677Y-121582299D01*
X180266950Y-121678079D01*
X180287170Y-121661124D01*
X180356559Y-121526377D01*
X180458364Y-121290506D01*
X180578417Y-120990329D01*
X180702552Y-120662664D01*
X180816599Y-120344326D01*
X180833421Y-120293333D01*
X181241395Y-120293333D01*
X181317064Y-120562263D01*
X181366324Y-120686044D01*
X181456315Y-120869192D01*
X181518929Y-120941236D01*
X181605520Y-120892391D01*
X181598931Y-120732923D01*
X181495975Y-120448745D01*
X181422872Y-120297885D01*
X181312540Y-120149570D01*
X181245967Y-120151910D01*
X181241395Y-120293333D01*
X180833421Y-120293333D01*
X180906391Y-120072133D01*
X180957761Y-119882903D01*
X180987077Y-119716071D01*
X180963503Y-119691815D01*
X180866954Y-119798236D01*
X180819657Y-119862185D01*
X180678037Y-120104295D01*
X180522118Y-120419846D01*
X180381034Y-120747496D01*
X180283917Y-121025903D01*
X180268591Y-121083128D01*
X180258941Y-121168531D01*
X179523958Y-121168531D01*
X179511577Y-120856570D01*
X179497084Y-120597080D01*
X179466673Y-120215973D01*
X179431078Y-119904938D01*
X179395344Y-119713570D01*
X179375725Y-119658762D01*
X179351812Y-119669376D01*
X179347806Y-119841801D01*
X177715449Y-119841801D01*
X177813053Y-119642885D01*
X178058664Y-119269070D01*
X179991484Y-119269070D01*
X179993318Y-119300400D01*
X180009435Y-119386773D01*
X180040026Y-119311403D01*
X180067505Y-119232451D01*
X180122968Y-119163236D01*
X180130327Y-119164580D01*
X180238682Y-119222128D01*
X180413093Y-119338335D01*
X180453822Y-119366340D01*
X180599926Y-119445993D01*
X180658996Y-119441256D01*
X180657000Y-119430554D01*
X180570635Y-119335542D01*
X180402501Y-119218993D01*
X180215975Y-119120229D01*
X180074433Y-119078570D01*
X180018536Y-119120789D01*
X179991484Y-119269070D01*
X178058664Y-119269070D01*
X178226702Y-119013320D01*
X178670174Y-118528559D01*
X179137207Y-118193508D01*
X179621539Y-118013070D01*
X180116906Y-117992149D01*
X180617046Y-118135651D01*
X180828404Y-118259284D01*
X181175390Y-118550697D01*
X181530082Y-118936512D01*
X181859190Y-119379188D01*
X181895495Y-119441256D01*
X182056241Y-119716071D01*
X182129422Y-119841183D01*
X182318729Y-120253054D01*
X182484770Y-120718474D01*
X182526468Y-120892391D01*
X182547329Y-120979402D01*
X182602956Y-121211417D01*
X182679582Y-121766952D01*
X182720942Y-122420153D01*
X182722355Y-122509806D01*
X182730695Y-123038964D01*
X182733329Y-123206090D01*
X182734129Y-123603063D01*
X182734401Y-123642957D01*
X182737018Y-124027425D01*
X182741640Y-124364327D01*
X182747598Y-124586479D01*
X182754496Y-124666590D01*
X182762215Y-124659453D01*
X182767549Y-124624236D01*
X183960996Y-124624236D01*
X184003329Y-124666570D01*
X184045663Y-124624236D01*
X184003329Y-124581903D01*
X183960996Y-124624236D01*
X182767549Y-124624236D01*
X182777167Y-124560736D01*
X182778705Y-124529619D01*
X182792043Y-124368534D01*
X184910419Y-124368534D01*
X184920552Y-124469014D01*
X184946018Y-124482260D01*
X184976996Y-124412570D01*
X184970886Y-124367747D01*
X184920552Y-124356125D01*
X184910419Y-124368534D01*
X182792043Y-124368534D01*
X182793601Y-124349723D01*
X182820801Y-124064594D01*
X182853269Y-123746859D01*
X184827712Y-123746859D01*
X184858468Y-123792290D01*
X184901403Y-123832216D01*
X185005141Y-123989236D01*
X185040838Y-124048264D01*
X185039003Y-123953919D01*
X185007780Y-123860106D01*
X184929293Y-123789993D01*
X185599645Y-123789993D01*
X185645833Y-123888693D01*
X185730993Y-124000088D01*
X185802859Y-124048264D01*
X185900594Y-124113781D01*
X186003604Y-124162296D01*
X186175850Y-124304701D01*
X186209873Y-124347641D01*
X186240079Y-124413839D01*
X186141163Y-124388746D01*
X186058206Y-124363990D01*
X185992996Y-124369915D01*
X186030030Y-124412500D01*
X186030139Y-124412570D01*
X186163586Y-124497908D01*
X186173938Y-124503379D01*
X186312237Y-124543093D01*
X186384724Y-124457476D01*
X186400825Y-124393328D01*
X186362381Y-124252098D01*
X186203584Y-124099346D01*
X185904743Y-123912727D01*
X185752765Y-123828411D01*
X185625996Y-123769036D01*
X185599645Y-123789993D01*
X184929293Y-123789993D01*
X184892329Y-123756973D01*
X184827712Y-123746859D01*
X182853269Y-123746859D01*
X182856009Y-123720049D01*
X182865372Y-123625093D01*
X182879280Y-123184903D01*
X183749329Y-123184903D01*
X183910618Y-123375403D01*
X183938714Y-123408365D01*
X184071968Y-123536811D01*
X184189264Y-123542168D01*
X184365491Y-123434102D01*
X184381589Y-123422202D01*
X184516836Y-123238518D01*
X184559683Y-123008873D01*
X184518671Y-122784509D01*
X184402339Y-122616667D01*
X184219229Y-122556587D01*
X184157893Y-122567141D01*
X184189073Y-122604390D01*
X184224864Y-122626840D01*
X184251796Y-122703928D01*
X184266450Y-122745873D01*
X184259803Y-122782202D01*
X184278437Y-122782209D01*
X184298720Y-122754386D01*
X184375148Y-122753187D01*
X184404165Y-122803903D01*
X184440992Y-122868271D01*
X184468996Y-123059921D01*
X184447732Y-123212694D01*
X184330015Y-123388335D01*
X184144772Y-123437806D01*
X183932786Y-123339818D01*
X183749329Y-123184903D01*
X182879280Y-123184903D01*
X182892709Y-122759868D01*
X183809752Y-122759868D01*
X183819885Y-122860347D01*
X183845351Y-122873593D01*
X183876329Y-122803903D01*
X183870219Y-122759081D01*
X183819885Y-122747458D01*
X183809752Y-122759868D01*
X182892709Y-122759868D01*
X182894476Y-122703928D01*
X182818946Y-121785497D01*
X182811094Y-121745226D01*
X183368329Y-121745226D01*
X183402457Y-121774442D01*
X183558974Y-121867961D01*
X183813428Y-122005962D01*
X184133742Y-122170617D01*
X184360358Y-122289384D01*
X184626815Y-122445309D01*
X184799346Y-122567718D01*
X184848329Y-122637267D01*
X184845420Y-122671299D01*
X184918444Y-122803868D01*
X185075452Y-122973370D01*
X185108464Y-123008873D01*
X185217226Y-123125841D01*
X185263371Y-123221765D01*
X185209929Y-123228969D01*
X185059676Y-123121403D01*
X185048779Y-123112070D01*
X185022719Y-123105557D01*
X185098198Y-123206070D01*
X185255461Y-123359568D01*
X185362949Y-123378994D01*
X185401093Y-123248403D01*
X185393963Y-123208392D01*
X185298101Y-123045212D01*
X185125926Y-122866643D01*
X185045731Y-122794911D01*
X184964143Y-122699498D01*
X184998163Y-122685201D01*
X185081857Y-122701561D01*
X185146329Y-122662930D01*
X185079797Y-122601668D01*
X184889525Y-122483017D01*
X184605380Y-122325450D01*
X184257329Y-122146378D01*
X183915260Y-121979428D01*
X183631047Y-121846872D01*
X183438918Y-121764374D01*
X183368329Y-121745226D01*
X182811094Y-121745226D01*
X182646376Y-120900384D01*
X182591973Y-120729874D01*
X182784683Y-120729874D01*
X182824222Y-120779633D01*
X183015552Y-120891606D01*
X183132293Y-120972596D01*
X183237769Y-121109904D01*
X183254302Y-121229224D01*
X183163718Y-121282596D01*
X183146909Y-121319663D01*
X183241329Y-121415799D01*
X183444263Y-121556952D01*
X183625886Y-121645033D01*
X183713926Y-121640268D01*
X183690484Y-121545748D01*
X183537663Y-121364570D01*
X183423857Y-121221694D01*
X183368329Y-121083917D01*
X183363421Y-121061405D01*
X183262413Y-120948283D01*
X183071996Y-120831287D01*
X183028279Y-120812534D01*
X184571752Y-120812534D01*
X184581885Y-120913014D01*
X184607351Y-120926260D01*
X184638329Y-120856570D01*
X184632219Y-120811747D01*
X184581885Y-120800125D01*
X184571752Y-120812534D01*
X183028279Y-120812534D01*
X182887678Y-120752221D01*
X182784683Y-120729874D01*
X182591973Y-120729874D01*
X182441185Y-120257280D01*
X183671907Y-120257280D01*
X183672961Y-120340216D01*
X183733582Y-120278409D01*
X183840627Y-120073403D01*
X183966084Y-119798236D01*
X183940136Y-120158070D01*
X183934175Y-120253426D01*
X183929555Y-120442672D01*
X183939688Y-120517903D01*
X183944905Y-120517075D01*
X184003767Y-120428985D01*
X184064140Y-120236545D01*
X184111172Y-119997992D01*
X184130013Y-119771558D01*
X184121952Y-119695268D01*
X184312045Y-119695268D01*
X184319647Y-119771558D01*
X184328794Y-119863348D01*
X184332168Y-119870896D01*
X184358672Y-119858165D01*
X184367824Y-119713570D01*
X184367265Y-119687277D01*
X184352607Y-119574820D01*
X184325656Y-119609348D01*
X184312045Y-119695268D01*
X184121952Y-119695268D01*
X184116654Y-119645130D01*
X184051001Y-119405116D01*
X183951925Y-119166045D01*
X183843508Y-118982543D01*
X183749834Y-118909236D01*
X183736470Y-118949354D01*
X183737135Y-119115863D01*
X183754810Y-119315784D01*
X183759396Y-119367663D01*
X183771286Y-119508808D01*
X183767210Y-119836124D01*
X183722207Y-120087330D01*
X183671907Y-120257280D01*
X182441185Y-120257280D01*
X182384358Y-120079174D01*
X182074669Y-119424695D01*
X183410343Y-119424695D01*
X183410358Y-119441725D01*
X183412282Y-119728524D01*
X183416725Y-119932258D01*
X183422771Y-120009794D01*
X183460149Y-119973456D01*
X183502104Y-119814097D01*
X183526828Y-119576875D01*
X183531815Y-119315784D01*
X183514557Y-119084818D01*
X183472547Y-118937971D01*
X183468891Y-118933220D01*
X183439144Y-118976789D01*
X183418182Y-119151929D01*
X183415506Y-119245053D01*
X183410343Y-119424695D01*
X182074669Y-119424695D01*
X182040484Y-119352451D01*
X181622349Y-118750801D01*
X181553494Y-118668887D01*
X181421707Y-118483557D01*
X181384018Y-118342778D01*
X181420418Y-118191090D01*
X181471616Y-117987211D01*
X181681119Y-117987211D01*
X181726201Y-118182159D01*
X181764365Y-118245105D01*
X181853201Y-118268753D01*
X181878648Y-118258256D01*
X181928996Y-118311573D01*
X181932429Y-118336258D01*
X182017511Y-118401236D01*
X182027726Y-118402354D01*
X182152594Y-118470843D01*
X182317693Y-118612903D01*
X182340540Y-118635297D01*
X182501135Y-118769681D01*
X182610178Y-118824570D01*
X182632800Y-118828209D01*
X182690996Y-118915284D01*
X182690998Y-118915753D01*
X182730931Y-119017949D01*
X182818202Y-119131652D01*
X182905694Y-119206080D01*
X182946293Y-119190450D01*
X182961602Y-119173559D01*
X183029663Y-119247903D01*
X183077351Y-119295030D01*
X183109338Y-119245053D01*
X183106547Y-119104297D01*
X183070989Y-118915248D01*
X183004677Y-118720393D01*
X182979952Y-118678769D01*
X182837071Y-118519782D01*
X182615098Y-118318243D01*
X182354374Y-118106019D01*
X182095243Y-117914977D01*
X181878047Y-117776982D01*
X181743129Y-117723903D01*
X181733408Y-117725291D01*
X181684351Y-117812468D01*
X181681119Y-117987211D01*
X181471616Y-117987211D01*
X181486110Y-117929494D01*
X181484528Y-117545115D01*
X181374974Y-117215903D01*
X181250286Y-117004236D01*
X181314474Y-117258236D01*
X181335879Y-117360812D01*
X181336655Y-117367641D01*
X181366925Y-117634176D01*
X181374151Y-117918040D01*
X181357433Y-118153040D01*
X181316644Y-118279810D01*
X181297092Y-118287187D01*
X181174423Y-118242998D01*
X180998609Y-118118692D01*
X180882614Y-118032301D01*
X180451795Y-117832625D01*
X179940241Y-117733157D01*
X179393831Y-117739501D01*
X178858442Y-117857261D01*
X178425757Y-118072186D01*
X177965465Y-118443396D01*
X177536534Y-118930800D01*
X177159623Y-119506804D01*
X176855392Y-120143814D01*
X176656846Y-120774994D01*
X176644502Y-120814236D01*
X176642515Y-120822796D01*
X176614713Y-120955607D01*
X176608043Y-120987470D01*
X175994922Y-120987470D01*
X176044922Y-120955607D01*
X175978918Y-120937448D01*
X175776404Y-120925236D01*
X175485217Y-120925419D01*
X175151167Y-120936340D01*
X174820065Y-120956340D01*
X174537724Y-120983762D01*
X174349954Y-121016948D01*
X174097329Y-121088601D01*
X173764644Y-121088601D01*
X173754926Y-121056270D01*
X173652829Y-121041737D01*
X173603868Y-121059199D01*
X173539459Y-121143479D01*
X173501500Y-121325341D01*
X173479628Y-121640611D01*
X173463710Y-122003438D01*
X173454593Y-122211236D01*
X172279870Y-122211236D01*
X172090861Y-122079920D01*
X171783372Y-121873477D01*
X171484149Y-121679010D01*
X171225609Y-121518084D01*
X171040165Y-121412262D01*
X170960233Y-121383110D01*
X170923041Y-121476318D01*
X170872895Y-121680892D01*
X170821555Y-121940290D01*
X170778918Y-122199577D01*
X170754884Y-122403815D01*
X170084697Y-122403815D01*
X170088241Y-122338236D01*
X170098409Y-122175296D01*
X170224468Y-121212326D01*
X170396690Y-120593583D01*
X171260996Y-120593583D01*
X171261794Y-120597701D01*
X171340221Y-120684834D01*
X171528401Y-120845153D01*
X171800036Y-121057259D01*
X172128829Y-121299755D01*
X172265424Y-121397885D01*
X172635577Y-121662753D01*
X172894276Y-121844930D01*
X173061210Y-121957252D01*
X173156070Y-122012554D01*
X173198546Y-122023670D01*
X173208329Y-122003438D01*
X173194254Y-121965117D01*
X173118733Y-121799940D01*
X172991609Y-121534562D01*
X172828457Y-121200316D01*
X172644856Y-120828533D01*
X172456381Y-120450545D01*
X172278609Y-120097682D01*
X172127118Y-119801278D01*
X172017485Y-119592662D01*
X171965286Y-119503168D01*
X171939251Y-119500211D01*
X171839329Y-119585733D01*
X171699815Y-119763110D01*
X171546468Y-119992462D01*
X171405044Y-120233911D01*
X171301301Y-120447578D01*
X171260996Y-120593583D01*
X170396690Y-120593583D01*
X170463996Y-120351770D01*
X170826954Y-119565295D01*
X171140419Y-119097493D01*
X172596193Y-119097493D01*
X172637268Y-119282328D01*
X172751149Y-119586758D01*
X172931505Y-119992483D01*
X173087473Y-120308922D01*
X173265467Y-120623154D01*
X173403597Y-120810161D01*
X173494630Y-120863066D01*
X173531334Y-120774994D01*
X173506474Y-120539070D01*
X173503736Y-120523540D01*
X173477355Y-120269523D01*
X173462109Y-119922805D01*
X173461689Y-119747256D01*
X173592782Y-119747256D01*
X173595952Y-120027458D01*
X173615550Y-120180470D01*
X173645775Y-120169436D01*
X173687827Y-119997680D01*
X173702750Y-119903475D01*
X174652101Y-119903475D01*
X174678078Y-119942144D01*
X174840841Y-119948460D01*
X175155663Y-119925632D01*
X175269803Y-119914489D01*
X175458368Y-119887460D01*
X175499693Y-119858340D01*
X175409663Y-119820559D01*
X175364828Y-119807989D01*
X175003432Y-119762383D01*
X174734781Y-119837262D01*
X174652101Y-119903475D01*
X173702750Y-119903475D01*
X173729903Y-119732067D01*
X176779751Y-119732067D01*
X176791847Y-119858340D01*
X176794643Y-119887532D01*
X176828147Y-119888595D01*
X176880072Y-119728281D01*
X176890190Y-119680641D01*
X176926470Y-119454719D01*
X176973902Y-119109547D01*
X177028370Y-118680683D01*
X177085756Y-118203682D01*
X177141942Y-117714102D01*
X177144944Y-117686566D01*
X180404996Y-117686566D01*
X180405820Y-117698402D01*
X180454831Y-117717048D01*
X180540081Y-117626154D01*
X180560682Y-117578839D01*
X180502745Y-117588818D01*
X180465133Y-117614954D01*
X180404996Y-117686566D01*
X177144944Y-117686566D01*
X177191640Y-117258236D01*
X177366414Y-117258236D01*
X177437798Y-116808198D01*
X177468763Y-116630711D01*
X177515747Y-116416644D01*
X177551845Y-116315499D01*
X177630836Y-116307101D01*
X177764806Y-116380102D01*
X177879978Y-116495211D01*
X177911385Y-116600864D01*
X177894760Y-116660085D01*
X177855167Y-116863365D01*
X177814808Y-117130205D01*
X177797297Y-117286265D01*
X177788117Y-117479206D01*
X177803810Y-117554570D01*
X177824860Y-117523741D01*
X177857428Y-117402745D01*
X179691298Y-117402745D01*
X179735589Y-117469903D01*
X179759503Y-117465107D01*
X179812329Y-117374001D01*
X179844293Y-117298397D01*
X179962589Y-117153819D01*
X180109546Y-117020473D01*
X180221994Y-116961903D01*
X180225753Y-116962390D01*
X180320848Y-117022470D01*
X180474530Y-117152403D01*
X180681978Y-117342903D01*
X180583376Y-117153403D01*
X180481819Y-117018999D01*
X180269702Y-116912832D01*
X180037050Y-116930814D01*
X179831751Y-117064651D01*
X179757000Y-117203402D01*
X179701697Y-117306053D01*
X179691298Y-117402745D01*
X177857428Y-117402745D01*
X177866755Y-117368095D01*
X177908158Y-117125212D01*
X177926843Y-117012175D01*
X178000824Y-116763412D01*
X178094917Y-116646849D01*
X178108435Y-116643723D01*
X178260592Y-116671331D01*
X178504725Y-116764752D01*
X178794771Y-116906873D01*
X178849108Y-116936037D01*
X179124399Y-117077881D01*
X179335870Y-117177366D01*
X179441457Y-117214484D01*
X179445954Y-117203402D01*
X179358975Y-117132977D01*
X179177887Y-117015531D01*
X178939011Y-116872055D01*
X178678670Y-116723543D01*
X178433185Y-116590986D01*
X178238876Y-116495376D01*
X178132066Y-116457707D01*
X178118549Y-116456295D01*
X177964889Y-116395948D01*
X177767358Y-116275333D01*
X177728637Y-116248821D01*
X177559422Y-116158926D01*
X177463228Y-116150115D01*
X177436108Y-116234796D01*
X177421740Y-116341127D01*
X177407504Y-116446474D01*
X177388146Y-116730851D01*
X177366414Y-117258236D01*
X177191640Y-117258236D01*
X177192810Y-117247500D01*
X177234242Y-116839432D01*
X177262121Y-116525455D01*
X177272329Y-116341127D01*
X177248078Y-116178895D01*
X177166496Y-116136186D01*
X177150651Y-116143866D01*
X177107726Y-116198742D01*
X177068679Y-116315613D01*
X177031036Y-116512309D01*
X176992325Y-116806660D01*
X176990783Y-116821618D01*
X176950074Y-117216499D01*
X176901808Y-117759654D01*
X176893502Y-117861270D01*
X176845057Y-118453957D01*
X176807073Y-118978862D01*
X176806569Y-118985824D01*
X176783662Y-119429174D01*
X176782298Y-119534839D01*
X176779751Y-119732067D01*
X173729903Y-119732067D01*
X173739705Y-119670193D01*
X174435996Y-119670193D01*
X174816996Y-119658700D01*
X174879034Y-119656292D01*
X175222312Y-119630534D01*
X175536663Y-119591023D01*
X175875329Y-119534839D01*
X175409663Y-119469438D01*
X175172537Y-119444387D01*
X174908663Y-119457652D01*
X174689996Y-119537115D01*
X174435996Y-119670193D01*
X173739705Y-119670193D01*
X173739920Y-119668838D01*
X173797867Y-119214315D01*
X174224329Y-119214315D01*
X174273491Y-119232556D01*
X174464941Y-119236755D01*
X174775235Y-119220920D01*
X175176908Y-119186584D01*
X175642496Y-119135276D01*
X175758979Y-119120134D01*
X176056202Y-119071050D01*
X176263268Y-119021035D01*
X176340996Y-118978862D01*
X176335196Y-118965991D01*
X176226442Y-118938733D01*
X176023496Y-118948387D01*
X175971909Y-118955069D01*
X175702738Y-118989882D01*
X175346213Y-119035942D01*
X174965163Y-119085133D01*
X174810362Y-119105850D01*
X174510067Y-119150988D01*
X174302084Y-119189347D01*
X174224329Y-119214315D01*
X173797867Y-119214315D01*
X173801104Y-119188925D01*
X173870432Y-118563953D01*
X173890522Y-118370409D01*
X173941345Y-117856240D01*
X173960510Y-117644782D01*
X175664306Y-117644782D01*
X175737530Y-117745070D01*
X175763925Y-117777850D01*
X175876478Y-117886613D01*
X175917663Y-117861270D01*
X175886756Y-117817548D01*
X175769496Y-117713103D01*
X175708150Y-117665807D01*
X175664306Y-117644782D01*
X173960510Y-117644782D01*
X173981791Y-117409986D01*
X174009808Y-117056746D01*
X174023345Y-116821618D01*
X174020351Y-116729702D01*
X174007604Y-116721293D01*
X173903702Y-116739087D01*
X173894030Y-116746926D01*
X173864402Y-116801743D01*
X173835764Y-116915571D01*
X173805912Y-117106722D01*
X173772641Y-117393511D01*
X173733749Y-117794251D01*
X173687029Y-118327254D01*
X173662084Y-118627731D01*
X173630279Y-119010835D01*
X173605520Y-119381155D01*
X173592782Y-119747256D01*
X173461689Y-119747256D01*
X173461225Y-119553676D01*
X173475024Y-118885783D01*
X173080314Y-118930273D01*
X172960980Y-118946821D01*
X172732955Y-118997549D01*
X172606642Y-119053724D01*
X172596193Y-119097493D01*
X171140419Y-119097493D01*
X171323300Y-118824570D01*
X171407409Y-118711817D01*
X171452460Y-118627731D01*
X171386362Y-118665355D01*
X171299441Y-118721983D01*
X171149547Y-118763142D01*
X171054305Y-118729376D01*
X171065054Y-118626838D01*
X171079299Y-118595664D01*
X171038456Y-118601700D01*
X170920624Y-118693223D01*
X170754942Y-118846110D01*
X170570548Y-119036236D01*
X170437416Y-119205142D01*
X170230502Y-119532396D01*
X170030391Y-119908095D01*
X169868890Y-120271090D01*
X169777807Y-120560236D01*
X169728206Y-120814236D01*
X169556875Y-120814236D01*
X169599435Y-120653025D01*
X169945167Y-119838766D01*
X170388449Y-119125665D01*
X170917844Y-118532361D01*
X171521921Y-118077496D01*
X171608751Y-118029392D01*
X172005431Y-117864861D01*
X172459113Y-117739756D01*
X172902297Y-117669809D01*
X173267478Y-117670746D01*
X173631663Y-117720663D01*
X173631663Y-117293384D01*
X173655398Y-116950987D01*
X173751718Y-116676827D01*
X173930022Y-116548730D01*
X174198757Y-116561421D01*
X174566369Y-116709624D01*
X174668241Y-116757884D01*
X174835580Y-116815250D01*
X174901663Y-116802501D01*
X174898881Y-116793570D01*
X174815449Y-116686529D01*
X174628648Y-116484378D01*
X174355647Y-116203609D01*
X174225268Y-116072903D01*
X178796329Y-116072903D01*
X178838663Y-116115236D01*
X178880996Y-116072903D01*
X178838663Y-116030570D01*
X178796329Y-116072903D01*
X174225268Y-116072903D01*
X174013613Y-115860718D01*
X173619714Y-115472200D01*
X173191118Y-115054549D01*
X172930210Y-114802903D01*
X176425663Y-114802903D01*
X176467996Y-114845236D01*
X176510329Y-114802903D01*
X176467996Y-114760570D01*
X176425663Y-114802903D01*
X172930210Y-114802903D01*
X172744992Y-114624260D01*
X172487012Y-114377868D01*
X176020419Y-114377868D01*
X176030552Y-114478347D01*
X176056018Y-114491593D01*
X176086996Y-114421903D01*
X176080886Y-114377081D01*
X176030552Y-114365458D01*
X176020419Y-114377868D01*
X172487012Y-114377868D01*
X172298503Y-114197826D01*
X171868821Y-113791744D01*
X171473111Y-113422507D01*
X171128543Y-113106609D01*
X170852283Y-112860547D01*
X170661500Y-112700813D01*
X170573361Y-112643903D01*
X170534900Y-112636795D01*
X170374563Y-112540894D01*
X170197816Y-112368736D01*
X170177276Y-112344906D01*
X169975986Y-112169098D01*
X169806799Y-112120480D01*
X169717419Y-112126764D01*
X169419519Y-112070201D01*
X169192095Y-111964001D01*
X171528143Y-111964001D01*
X171605029Y-111913225D01*
X171744334Y-111776070D01*
X171913472Y-111559955D01*
X172117762Y-111141751D01*
X172121411Y-111118288D01*
X172373951Y-111118288D01*
X172380081Y-111303097D01*
X172381733Y-111317692D01*
X172408694Y-111432626D01*
X172473215Y-111548059D01*
X172595323Y-111683602D01*
X172795046Y-111858865D01*
X173092413Y-112093460D01*
X173507451Y-112406996D01*
X173728162Y-112572896D01*
X174105449Y-112860020D01*
X174434680Y-113114907D01*
X174686501Y-113314729D01*
X174831556Y-113436659D01*
X174867424Y-113468525D01*
X175019772Y-113577197D01*
X175106722Y-113595954D01*
X175128455Y-113586037D01*
X175155663Y-113659903D01*
X175161079Y-113704861D01*
X175206882Y-113721573D01*
X175212198Y-113717822D01*
X175306124Y-113750358D01*
X175448148Y-113875418D01*
X175465207Y-113893438D01*
X175603204Y-114010848D01*
X175685532Y-114033145D01*
X175726265Y-114040559D01*
X175787266Y-114157202D01*
X175842171Y-114255352D01*
X175969381Y-114279586D01*
X176061871Y-114280506D01*
X176146127Y-114418064D01*
X176147161Y-114421903D01*
X176150689Y-114435007D01*
X176202431Y-114541418D01*
X176266779Y-114492560D01*
X176322436Y-114434695D01*
X176339700Y-114527736D01*
X176350221Y-114605129D01*
X176404496Y-114665877D01*
X176475858Y-114658364D01*
X176629632Y-114689693D01*
X176652722Y-114793320D01*
X176652623Y-114802903D01*
X176651944Y-114868963D01*
X176769821Y-114868332D01*
X176888255Y-114869513D01*
X176996911Y-115001462D01*
X177057183Y-115101551D01*
X177165071Y-115113198D01*
X177184312Y-115098849D01*
X177227071Y-114980491D01*
X177186453Y-114752985D01*
X177166663Y-114695504D01*
X177129271Y-114628378D01*
X177500674Y-114628378D01*
X177528554Y-114812765D01*
X177529223Y-114815754D01*
X177548143Y-114980491D01*
X177563523Y-115114404D01*
X177550758Y-115404835D01*
X177531530Y-115593758D01*
X177551219Y-115685044D01*
X177599948Y-115621022D01*
X177657674Y-115402188D01*
X177666066Y-115315182D01*
X177902626Y-115315182D01*
X177902679Y-115370796D01*
X177904898Y-115662613D01*
X177909727Y-115868159D01*
X177916270Y-115945903D01*
X177963302Y-115875782D01*
X177999445Y-115686896D01*
X178007169Y-115591745D01*
X178207642Y-115591745D01*
X178218018Y-115720152D01*
X178279458Y-115739719D01*
X178324103Y-115733412D01*
X178403800Y-115819389D01*
X178491204Y-115902749D01*
X178674599Y-115945903D01*
X178832212Y-115975713D01*
X178908084Y-116072903D01*
X178941131Y-116115236D01*
X178989307Y-116213610D01*
X179105266Y-116284570D01*
X179196137Y-116326775D01*
X179295076Y-116473679D01*
X179336192Y-116579489D01*
X179375070Y-116608942D01*
X179421267Y-116485607D01*
X179438206Y-116423402D01*
X179440606Y-116274989D01*
X179786151Y-116274989D01*
X179792097Y-116414132D01*
X179826361Y-116551394D01*
X179864533Y-116623236D01*
X179886546Y-116605000D01*
X179887079Y-116599834D01*
X180165217Y-116599834D01*
X180226777Y-116697884D01*
X180424317Y-116880332D01*
X180491170Y-116939986D01*
X180682755Y-117168737D01*
X180765653Y-117342903D01*
X180786162Y-117385992D01*
X180832822Y-117535322D01*
X180868680Y-117578839D01*
X180912041Y-117631461D01*
X180972656Y-117574542D01*
X180981861Y-117367641D01*
X180950768Y-117224296D01*
X180828376Y-117028788D01*
X180584643Y-116814050D01*
X180394039Y-116680084D01*
X180225638Y-116591972D01*
X180165217Y-116599834D01*
X179887079Y-116599834D01*
X179898404Y-116490149D01*
X179874655Y-116342903D01*
X179824560Y-116249795D01*
X179820218Y-116252643D01*
X179786151Y-116274989D01*
X179440606Y-116274989D01*
X179440967Y-116252643D01*
X179354918Y-116086972D01*
X179159962Y-115897938D01*
X178836001Y-115657090D01*
X178629952Y-115516984D01*
X178423990Y-115396090D01*
X178306558Y-115363921D01*
X178252281Y-115409723D01*
X178207642Y-115591745D01*
X178007169Y-115591745D01*
X178020195Y-115431292D01*
X178023262Y-115161153D01*
X178006354Y-114928666D01*
X177967181Y-114786016D01*
X177959766Y-114778517D01*
X177930709Y-114839698D01*
X177910318Y-115029600D01*
X177905870Y-115194734D01*
X177902626Y-115315182D01*
X177666066Y-115315182D01*
X177677684Y-115194734D01*
X177662155Y-114916241D01*
X177609385Y-114680565D01*
X177528867Y-114550471D01*
X177516632Y-114548031D01*
X177500674Y-114628378D01*
X177129271Y-114628378D01*
X177113200Y-114599528D01*
X177020202Y-114486943D01*
X176873617Y-114346085D01*
X176659391Y-114165287D01*
X176363472Y-113932885D01*
X175971807Y-113637214D01*
X175470343Y-113266608D01*
X174845026Y-112809403D01*
X174490802Y-112551366D01*
X173968059Y-112171262D01*
X173496835Y-111829445D01*
X173094175Y-111538236D01*
X172777122Y-111309951D01*
X172562721Y-111156910D01*
X172468016Y-111091430D01*
X172418207Y-111070095D01*
X172373951Y-111118288D01*
X172121411Y-111118288D01*
X172183053Y-110721941D01*
X172173776Y-110400236D01*
X172112494Y-110710170D01*
X172103906Y-110753601D01*
X172020644Y-111059505D01*
X172017270Y-111071900D01*
X171837273Y-111489680D01*
X171618664Y-111818403D01*
X171537999Y-111920204D01*
X171528143Y-111964001D01*
X169192095Y-111964001D01*
X169118037Y-111929418D01*
X168891653Y-111737356D01*
X168757501Y-111466538D01*
X168720866Y-111087192D01*
X168796631Y-110660914D01*
X168802175Y-110646944D01*
X168983200Y-110646944D01*
X168997740Y-110678892D01*
X169089251Y-110572682D01*
X169157317Y-110488472D01*
X169184121Y-110507399D01*
X169165735Y-110673776D01*
X169165559Y-110895052D01*
X169223792Y-111110180D01*
X169309284Y-111209859D01*
X169531404Y-111281360D01*
X169821663Y-111227616D01*
X169941321Y-111167973D01*
X169942294Y-111167233D01*
X171091663Y-111167233D01*
X171092487Y-111179069D01*
X171141497Y-111197715D01*
X171226748Y-111106821D01*
X171247348Y-111059505D01*
X171189411Y-111069485D01*
X171151800Y-111095620D01*
X171091663Y-111167233D01*
X169942294Y-111167233D01*
X170200547Y-110970785D01*
X170463488Y-110702684D01*
X170694916Y-110406213D01*
X170859605Y-110123916D01*
X170922329Y-109898334D01*
X170864801Y-109657950D01*
X170686374Y-109433168D01*
X170434572Y-109317790D01*
X170291203Y-109293397D01*
X170301064Y-109280306D01*
X170473029Y-109269922D01*
X170696134Y-109297826D01*
X170875195Y-109445408D01*
X170970507Y-109549284D01*
X171006996Y-109515575D01*
X170974768Y-109405643D01*
X170863576Y-109239093D01*
X170788997Y-109154276D01*
X170769967Y-109106917D01*
X170870062Y-109138140D01*
X170889462Y-109146361D01*
X171046149Y-109304170D01*
X171112694Y-109566268D01*
X171090946Y-109898133D01*
X170982755Y-110265242D01*
X170789970Y-110633070D01*
X170728655Y-110731372D01*
X170649345Y-110888558D01*
X170648210Y-110950570D01*
X170660234Y-110948188D01*
X170761932Y-110855757D01*
X170791771Y-110814225D01*
X171373556Y-110814225D01*
X171376641Y-110852390D01*
X171459579Y-110792036D01*
X171543466Y-110737991D01*
X171612155Y-110772594D01*
X171614393Y-110957625D01*
X171626186Y-110980315D01*
X171735636Y-111007014D01*
X171767153Y-111003298D01*
X171833414Y-110921791D01*
X171836766Y-110710170D01*
X171805855Y-110528805D01*
X171722070Y-110397365D01*
X171604046Y-110429377D01*
X171464546Y-110627670D01*
X171451040Y-110653852D01*
X171373556Y-110814225D01*
X170791771Y-110814225D01*
X170901518Y-110661470D01*
X171051963Y-110409895D01*
X171186242Y-110145600D01*
X171277326Y-109913153D01*
X171280675Y-109901789D01*
X171317540Y-109547902D01*
X171210464Y-109265658D01*
X170966160Y-109073179D01*
X170794037Y-109027464D01*
X170465551Y-109061375D01*
X170109279Y-109215091D01*
X169755856Y-109469261D01*
X169435914Y-109804531D01*
X169180086Y-110201549D01*
X169174038Y-110213503D01*
X169042883Y-110488069D01*
X168983200Y-110646944D01*
X168802175Y-110646944D01*
X168972736Y-110217134D01*
X169237122Y-109785282D01*
X169577730Y-109394791D01*
X169982500Y-109075091D01*
X170230658Y-108943728D01*
X170639282Y-108836960D01*
X171011420Y-108867991D01*
X171322215Y-109027623D01*
X171546815Y-109306661D01*
X171617189Y-109547902D01*
X171660365Y-109695908D01*
G37*
D12*
%TO.C,R48*%
X162058000Y-96836000D02*
X163418000Y-96836000D01*
X162058000Y-100056000D02*
X162058000Y-96846000D01*
X162068000Y-100066000D02*
X163418000Y-100066000D01*
X163418000Y-96846000D02*
X163418000Y-100056000D01*
%TO.C,R38*%
X159338000Y-92276000D02*
X160698000Y-92276000D01*
X159338000Y-95496000D02*
X159338000Y-92286000D01*
X159348000Y-95506000D02*
X160698000Y-95506000D01*
X160698000Y-92286000D02*
X160698000Y-95496000D01*
%TO.C,R46*%
X159348000Y-96836000D02*
X160708000Y-96836000D01*
X159348000Y-100056000D02*
X159348000Y-96846000D01*
X159358000Y-100066000D02*
X160708000Y-100066000D01*
X160708000Y-96846000D02*
X160708000Y-100056000D01*
%TO.C,R53*%
X160016000Y-89912000D02*
X160016000Y-88552000D01*
X160026000Y-88552000D02*
X163236000Y-88552000D01*
X163236000Y-89912000D02*
X160026000Y-89912000D01*
X163246000Y-89902000D02*
X163246000Y-88552000D01*
%TO.C,R52*%
X163676000Y-89902000D02*
X163676000Y-86692000D01*
X165026000Y-86682000D02*
X163676000Y-86682000D01*
X165036000Y-86692000D02*
X165036000Y-89902000D01*
X165036000Y-89912000D02*
X163676000Y-89912000D01*
%TO.C,R41*%
X163448000Y-92276000D02*
X164808000Y-92276000D01*
X163448000Y-95496000D02*
X163448000Y-92286000D01*
X163458000Y-95506000D02*
X164808000Y-95506000D01*
X164808000Y-92286000D02*
X164808000Y-95496000D01*
%TO.C,R49*%
X163448000Y-96836000D02*
X164808000Y-96836000D01*
X163448000Y-100056000D02*
X163448000Y-96846000D01*
X163458000Y-100066000D02*
X164808000Y-100066000D01*
X164808000Y-96846000D02*
X164808000Y-100056000D01*
%TO.C,R39*%
X160698000Y-92276000D02*
X162058000Y-92276000D01*
X160698000Y-95496000D02*
X160698000Y-92286000D01*
X160708000Y-95506000D02*
X162058000Y-95506000D01*
X162058000Y-92286000D02*
X162058000Y-95496000D01*
%TO.C,R50*%
X160016000Y-86682000D02*
X160016000Y-85322000D01*
X160026000Y-85322000D02*
X163236000Y-85322000D01*
X163236000Y-86682000D02*
X160026000Y-86682000D01*
X163246000Y-86672000D02*
X163246000Y-85322000D01*
%TO.C,R40*%
X162068000Y-92276000D02*
X163428000Y-92276000D01*
X162068000Y-95496000D02*
X162068000Y-92286000D01*
X162078000Y-95506000D02*
X163428000Y-95506000D01*
X163428000Y-92286000D02*
X163428000Y-95496000D01*
%TO.C,R47*%
X160698000Y-96836000D02*
X162058000Y-96836000D01*
X160698000Y-100056000D02*
X160698000Y-96846000D01*
X160708000Y-100066000D02*
X162058000Y-100066000D01*
X162058000Y-96846000D02*
X162058000Y-100056000D01*
%TO.C,R65*%
X153839000Y-89861000D02*
X153839000Y-88501000D01*
X153849000Y-88501000D02*
X157059000Y-88501000D01*
X157059000Y-89861000D02*
X153849000Y-89861000D01*
X157069000Y-89851000D02*
X157069000Y-88501000D01*
%TO.C,R51*%
X160016000Y-88042000D02*
X160016000Y-86682000D01*
X160026000Y-86682000D02*
X163236000Y-86682000D01*
X163236000Y-88042000D02*
X160026000Y-88042000D01*
X163246000Y-88032000D02*
X163246000Y-86682000D01*
%TO.C,R56*%
X160016000Y-91272000D02*
X160016000Y-89912000D01*
X160026000Y-89912000D02*
X163236000Y-89912000D01*
X163236000Y-91272000D02*
X160026000Y-91272000D01*
X163246000Y-91262000D02*
X163246000Y-89912000D01*
%TO.C,R67*%
X153839000Y-91221000D02*
X153839000Y-89861000D01*
X153849000Y-89861000D02*
X157059000Y-89861000D01*
X157059000Y-91221000D02*
X153849000Y-91221000D01*
X157069000Y-91211000D02*
X157069000Y-89861000D01*
%TO.C,R57*%
X153839000Y-86671000D02*
X153839000Y-85311000D01*
X153849000Y-85311000D02*
X157059000Y-85311000D01*
X157059000Y-86671000D02*
X153849000Y-86671000D01*
X157069000Y-86661000D02*
X157069000Y-85311000D01*
%TO.C,R61*%
X157539000Y-89891000D02*
X157539000Y-86681000D01*
X158889000Y-86671000D02*
X157539000Y-86671000D01*
X158899000Y-86681000D02*
X158899000Y-89891000D01*
X158899000Y-89901000D02*
X157539000Y-89901000D01*
%TD*%
M02*
